<svg xmlns="http://www.w3.org/2000/svg" width="31.439" height="31.431" viewBox="0 0 31.439 31.431">
  <g id="system" transform="translate(-15.982 495.944)">
    <path id="Path_83572" data-name="Path 83572" d="M233.031-495.863a2.088,2.088,0,0,0-.969,1,1.434,1.434,0,0,0,.413,1.565,1.433,1.433,0,0,0,1.081.491,1.433,1.433,0,0,0,1.081-.491,1.442,1.442,0,0,0,.052-2.128A1.537,1.537,0,0,0,233.031-495.863Zm.884,1.126a.51.51,0,0,1,.164.36.511.511,0,0,1-.164.36.517.517,0,0,1-.884-.36.553.553,0,0,1,.524-.524A.51.51,0,0,1,233.915-494.736Z" transform="translate(-201.855 0)" fill="#28924f"/>
    <path id="Path_83573" data-name="Path 83573" d="M43.236-479.836c-.21.2-.2.341.026,1.028l.19.563-.576.341a14.836,14.836,0,0,0-6.68,8.958c-.111.426-.2.8-.2.838a2.544,2.544,0,0,0,.93.223c.065,0,.131-.157.21-.53a14.166,14.166,0,0,1,2.521-5.265,18.634,18.634,0,0,1,2.168-2.213,11.166,11.166,0,0,1,1.919-1.27,1.964,1.964,0,0,1,.255.576c.2.6.354.779.661.779.183,0,.386-.183,1.663-1.46,1.31-1.3,1.46-1.48,1.46-1.67a.51.51,0,0,0-.144-.36c-.131-.131-.373-.183-2.082-.426-1.061-.151-1.984-.275-2.05-.275A.5.5,0,0,0,43.236-479.836Zm2.246,1.153a2.846,2.846,0,0,1,.6.118,6.911,6.911,0,0,1-.609.648l-.609.6-.216-.668c-.124-.373-.236-.714-.255-.766-.026-.072.02-.085.223-.052C44.755-478.782,45.148-478.723,45.482-478.684Z" transform="translate(-18.707 -14.9)" fill="#28924f"/>
    <path id="Path_83574" data-name="Path 83574" d="M295.254-475.681c-.118.635-.138.6.452.727a14.329,14.329,0,0,1,3.975,1.631,13.018,13.018,0,0,1,2.462,1.945c1.028,1,2.462,2.921,2.292,3.071a3.407,3.407,0,0,1-.6.236c-.576.19-.733.327-.733.648,0,.17.2.406,1.46,1.657,1.3,1.31,1.48,1.46,1.67,1.46a.489.489,0,0,0,.36-.151c.138-.131.183-.367.439-2.154.268-1.906.275-2.017.17-2.174-.17-.268-.386-.282-1.061-.059l-.6.2-.341-.583a15.019,15.019,0,0,0-7.053-6.051,16.858,16.858,0,0,0-2.547-.779l-.262-.046Zm10.838,8.212c-.02.138-.072.511-.118.838a5.783,5.783,0,0,1-.1.616,5,5,0,0,1-.642-.583l-.622-.622.7-.242c.393-.131.733-.242.766-.242S306.112-467.6,306.092-467.469Z" transform="translate(-260.922 -18.544)" fill="#28924f"/>
    <path id="Path_83575" data-name="Path 83575" d="M119.5-399.836c-.157.151-.164.2-.164.93v.773l-.38.118a9.508,9.508,0,0,0-.884.354l-.5.236-.55-.53c-.805-.786-.7-.825-2.246.727s-1.513,1.441-.727,2.246l.53.55-.236.5a9.507,9.507,0,0,0-.354.884l-.118.38h-.773c-.733,0-.779.007-.93.164l-.164.157v3.549l.164.157c.151.157.2.164.93.164h.779l.079.308a7.608,7.608,0,0,0,.354.884l.268.576-.53.55c-.786.805-.825.7.727,2.246s1.441,1.513,2.246.727l.55-.53.5.236a9.5,9.5,0,0,0,.884.354l.38.118v.773c0,.733.007.779.164.93l.157.164H123.2l.157-.164c.157-.151.164-.2.164-.93v-.779l.308-.079a7.606,7.606,0,0,0,.884-.354l.576-.268.55.53c.805.786.7.825,2.246-.727s1.513-1.441.727-2.246l-.53-.55.236-.5a9.506,9.506,0,0,0,.354-.884l.118-.38h.773c.733,0,.779-.007.93-.164l.164-.157v-3.549l-.164-.157c-.151-.157-.2-.164-.93-.164h-.773l-.118-.38a9.507,9.507,0,0,0-.354-.884l-.236-.5.53-.55c.786-.805.825-.7-.727-2.246s-1.441-1.513-2.246-.727l-.55.53-.576-.268a7.612,7.612,0,0,0-.884-.354l-.308-.079v-.779c0-.733-.007-.779-.164-.93L123.2-400h-3.549Zm2.98,1.578c0,.674.007.694.19.884a.641.641,0,0,0,.314.19,6.366,6.366,0,0,1,1.7.655c.485.249.694.327.819.295a2.653,2.653,0,0,0,.616-.5,2.793,2.793,0,0,1,.517-.452,11,11,0,0,1,1.408,1.408,2.792,2.792,0,0,1-.452.517,2.653,2.653,0,0,0-.5.616c-.033.124.046.334.295.819a6.366,6.366,0,0,1,.655,1.7.641.641,0,0,0,.19.314c.19.183.21.19.884.19h.694v2.1h-.694c-.674,0-.694.007-.884.19a.641.641,0,0,0-.19.314,6.362,6.362,0,0,1-.655,1.709c-.255.465-.327.661-.295.792a2.289,2.289,0,0,0,.491.629,2.625,2.625,0,0,1,.458.524,11,11,0,0,1-1.408,1.408,2.625,2.625,0,0,1-.524-.458,2.289,2.289,0,0,0-.629-.491c-.131-.033-.327.039-.792.295a6.364,6.364,0,0,1-1.709.655.641.641,0,0,0-.314.19c-.183.19-.19.21-.19.884v.694h-2.1v-.694c0-.675-.007-.694-.19-.884a.641.641,0,0,0-.314-.19,6.368,6.368,0,0,1-1.7-.655c-.485-.249-.694-.327-.819-.295a2.653,2.653,0,0,0-.616.5,2.793,2.793,0,0,1-.517.452,11,11,0,0,1-1.408-1.408,2.794,2.794,0,0,1,.452-.517,2.652,2.652,0,0,0,.5-.616c.033-.124-.046-.334-.295-.819a6.366,6.366,0,0,1-.655-1.7.641.641,0,0,0-.19-.314c-.19-.183-.21-.19-.884-.19h-.694v-2.1h.694c.674,0,.694-.007.884-.19a.641.641,0,0,0,.19-.314,6.363,6.363,0,0,1,.655-1.709c.255-.465.327-.661.295-.792a2.289,2.289,0,0,0-.491-.629,2.625,2.625,0,0,1-.458-.524,11,11,0,0,1,1.408-1.408,2.625,2.625,0,0,1,.524.458,2.288,2.288,0,0,0,.629.491c.131.033.327-.039.792-.295a6.362,6.362,0,0,1,1.709-.655.641.641,0,0,0,.314-.19c.183-.19.19-.21.19-.884v-.694h2.1Z" transform="translate(-89.73 -89.661)" fill="#28924f"/>
    <path id="Path_83576" data-name="Path 83576" d="M180.558-335.525a5.283,5.283,0,0,0-4.054,3.458,5.178,5.178,0,0,0,1.244,5.4,4.954,4.954,0,0,0,3.693,1.513,4.954,4.954,0,0,0,3.693-1.513,4.954,4.954,0,0,0,1.513-3.693,4.726,4.726,0,0,0-.812-2.829,5.314,5.314,0,0,0-3.15-2.259A7.5,7.5,0,0,0,180.558-335.525Zm1.768,1.074a4.352,4.352,0,0,1,3.13,2.881,4.9,4.9,0,0,1,0,2.423,4.394,4.394,0,0,1-2.8,2.8,4.9,4.9,0,0,1-2.423,0,4.351,4.351,0,0,1-2.508-2.115,4.083,4.083,0,0,1-.013-3.772A4.173,4.173,0,0,1,182.326-334.451Z" transform="translate(-149.742 -149.873)" fill="#28924f"/>
    <path id="Path_83577" data-name="Path 83577" d="M17.031-279.863a2.088,2.088,0,0,0-.969,1,1.434,1.434,0,0,0,.413,1.565,1.416,1.416,0,0,0,2.161,0,1.442,1.442,0,0,0,.052-2.128A1.537,1.537,0,0,0,17.031-279.863Zm.884,1.126a.517.517,0,0,1-.36.884.553.553,0,0,1-.524-.524.553.553,0,0,1,.524-.524A.511.511,0,0,1,17.915-278.736Z" transform="translate(0 -201.855)" fill="#28924f"/>
    <path id="Path_83578" data-name="Path 83578" d="M449.031-279.863a2.088,2.088,0,0,0-.969,1,1.434,1.434,0,0,0,.413,1.565,1.416,1.416,0,0,0,2.161,0,1.442,1.442,0,0,0,.052-2.128A1.537,1.537,0,0,0,449.031-279.863Zm.884,1.126a.517.517,0,0,1-.36.884.553.553,0,0,1-.524-.524.511.511,0,0,1,.164-.36.511.511,0,0,1,.36-.164A.511.511,0,0,1,449.915-278.736Z" transform="translate(-403.71 -201.855)" fill="#28924f"/>
    <path id="Path_83579" data-name="Path 83579" d="M306.674-216.594a15.327,15.327,0,0,1-1.041,2.96,13.451,13.451,0,0,1-2.8,3.844c-1,.969-2.7,2.2-2.836,2.05a3.411,3.411,0,0,1-.236-.6c-.19-.576-.327-.733-.648-.733-.17,0-.406.2-1.657,1.46-1.31,1.3-1.46,1.48-1.46,1.67a.489.489,0,0,0,.151.36c.131.138.367.183,2.154.439,1.906.268,2.017.275,2.174.17.269-.17.282-.386.059-1.061l-.2-.6.583-.341a14.9,14.9,0,0,0,6.673-8.958c.111-.426.2-.8.2-.838a2.545,2.545,0,0,0-.93-.223C306.786-217,306.733-216.876,306.674-216.594Zm-7.3,10.51a13.588,13.588,0,0,1-1.67-.223,4.984,4.984,0,0,1,.583-.642l.622-.622.242.733A4.978,4.978,0,0,1,299.379-206.084Z" transform="translate(-261.681 -260.677)" fill="#28924f"/>
    <path id="Path_83580" data-name="Path 83580" d="M33.11-215.849c-.138.131-.183.367-.439,2.154-.268,1.906-.275,2.017-.17,2.174.17.268.386.282,1.061.059l.6-.2.341.583a15.019,15.019,0,0,0,7.053,6.051,16.867,16.867,0,0,0,2.547.779l.262.046.079-.419c.118-.629.131-.609-.327-.7a14.361,14.361,0,0,1-3.8-1.48,14.508,14.508,0,0,1-4.381-3.988,3.342,3.342,0,0,1-.675-1.2,3.412,3.412,0,0,1,.6-.236c.576-.19.733-.327.733-.648,0-.17-.2-.406-1.46-1.657-1.3-1.31-1.48-1.46-1.67-1.46A.489.489,0,0,0,33.11-215.849Zm1.375,2.154.609.609-.733.242a4.981,4.981,0,0,1-.753.223,11.612,11.612,0,0,1,.236-1.676C33.864-214.3,34.152-214.022,34.486-213.695Z" transform="translate(-15.378 -261.612)" fill="#28924f"/>
    <path id="Path_83581" data-name="Path 83581" d="M233.031-63.863a2.088,2.088,0,0,0-.969,1,1.434,1.434,0,0,0,.413,1.565,1.434,1.434,0,0,0,1.565.413,1.945,1.945,0,0,0,1.008-1.008,1.488,1.488,0,0,0-.36-1.532A1.537,1.537,0,0,0,233.031-63.863Zm.884,1.126a.517.517,0,0,1-.36.884.511.511,0,0,1-.36-.164.517.517,0,0,1,.36-.884A.51.51,0,0,1,233.915-62.736Z" transform="translate(-201.855 -403.71)" fill="#28924f"/>
  </g>
</svg>
