<svg xmlns="http://www.w3.org/2000/svg" width="16.934" height="16.933" viewBox="0 0 16.934 16.933">
  <path id="Icon_ionic-ios-call" data-name="Icon ionic-ios-call" d="M4.952,17.018a13.427,13.427,0,0,1,2.8-1.877c.841-.4,1.149-.4,1.744.033.5.358.816.691,1.386.566a8.266,8.266,0,0,0,2.784-2.06A8.207,8.207,0,0,0,15.73,10.9c.121-.574-.212-.891-.566-1.386-.429-.6-.441-.9-.033-1.744a13.161,13.161,0,0,1,1.877-2.8c.612-.612.749-.479,1.086-.358a6.181,6.181,0,0,1,.995.528,3,3,0,0,1,1.194,1.261c.237.512.512,1.465-.886,3.953a22.059,22.059,0,0,1-3.878,5.172h0l0,0,0,0h0a22.145,22.145,0,0,1-5.173,3.878c-2.488,1.4-3.441,1.124-3.953.886A2.949,2.949,0,0,1,5.122,19.1a6.18,6.18,0,0,1-.528-.995C4.473,17.767,4.336,17.63,4.952,17.018Z" transform="translate(-4.018 -4.031)" fill="#fff" stroke="#007889" stroke-width="1"/>
</svg>
