<svg xmlns="http://www.w3.org/2000/svg" width="27.189" height="36.245" viewBox="0 0 27.189 36.245">
  <g id="passport" transform="translate(-63.95 511.994)">
    <path id="Path_7936" data-name="Path 7936" d="M83.1-511.945,74.89-509.68c-4.438,1.225-8.239,2.258-8.445,2.286a3.052,3.052,0,0,0-2.421,2.407c-.1.517-.1,26.24,0,26.764a3.055,3.055,0,0,0,2.407,2.4c.51.1,21.71.1,22.234,0a3.055,3.055,0,0,0,2.4-2.407c.1-.517.1-26.24,0-26.764a3.055,3.055,0,0,0-2.407-2.4,9.544,9.544,0,0,0-1.21-.071H86.6v-.906a3.257,3.257,0,0,0-.878-2.7A3.1,3.1,0,0,0,83.1-511.945Zm1.147,1.628a1.8,1.8,0,0,1,.474.375c.3.333.4.75.4,1.734v.743l-6.243-.007c-3.44,0-6.215-.014-6.18-.035.156-.057,10.554-2.916,10.724-2.945A1.474,1.474,0,0,1,84.248-510.317Zm4.2,4.417a1.545,1.545,0,0,1,1.118,1.118c.113.524.113,25.822,0,26.346a1.192,1.192,0,0,1-.418.7,1.192,1.192,0,0,1-.7.418c-.524.113-21.292.113-21.816,0a1.545,1.545,0,0,1-1.118-1.118c-.113-.524-.113-25.822,0-26.346a1.6,1.6,0,0,1,1.062-1.111C67.047-506,87.971-506,88.452-505.9Z" transform="translate(0 0)" fill="#fff"/>
    <path id="Path_7937" data-name="Path 7937" d="M146-383.749a8.467,8.467,0,0,0-6.378,5,8.482,8.482,0,0,0-.234,5.769,8.373,8.373,0,0,0,3.355,4.375,8.339,8.339,0,0,0,7.277.878,8.189,8.189,0,0,0,4.679-4.148,7.735,7.735,0,0,0,.835-4.006,7.887,7.887,0,0,0-1.154-3.943A8.391,8.391,0,0,0,146-383.749Zm1.685,1.564c.793.5,1.621,2.945,1.763,5.174l.042.729h-4.431l.042-.729c.149-2.407,1.055-4.884,1.918-5.259A.631.631,0,0,1,147.681-382.184Zm-3.072.644a10.606,10.606,0,0,0-.552,1.586,20.476,20.476,0,0,0-.5,3.051l-.05.623h-2.966l.05-.269a6.848,6.848,0,0,1,1.862-3.716,7.29,7.29,0,0,1,.786-.722,9.128,9.128,0,0,1,1.437-.814C144.7-381.8,144.673-381.682,144.609-381.54Zm5.727-.042a6.421,6.421,0,0,1,1.755,1.31,6.845,6.845,0,0,1,1.862,3.723l.05.269h-2.966l-.05-.623a20.482,20.482,0,0,0-.5-3.051,10.61,10.61,0,0,0-.552-1.586c-.064-.142-.1-.262-.078-.262A4.414,4.414,0,0,1,150.336-381.583Zm-6.781,7.4a20.632,20.632,0,0,0,.559,3.249,12.77,12.77,0,0,0,.588,1.564c.05.127-.715-.234-1.217-.573a8.133,8.133,0,0,1-1.869-1.911,7.571,7.571,0,0,1-1.026-2.718l-.035-.227h2.952Zm5.9.028c-.227,2.909-1.232,5.373-2.18,5.373-.623,0-1.324-1.133-1.77-2.846a13.652,13.652,0,0,1-.411-2.527l-.057-.644h4.474Zm4.5-.418a7.57,7.57,0,0,1-1.026,2.718,8.359,8.359,0,0,1-1.876,1.925c-.5.34-1.267.694-1.21.559a14.047,14.047,0,0,0,.588-1.564,20.637,20.637,0,0,0,.559-3.249l.05-.616H154Z" transform="translate(-69.727 -119.079)" fill="#fff"/>
    <path id="Path_7938" data-name="Path 7938" d="M136.751-126.823a.694.694,0,0,0-.191.856c.2.474-.234.453,8.211.453,8.466,0,8.013.028,8.218-.467a.66.66,0,0,0-.2-.842l-.212-.177H136.964Z" transform="translate(-67.404 -357.742)" fill="#fff"/>
    <path id="Path_7939" data-name="Path 7939" d="M179.446-84.894a.824.824,0,0,0-.446.665.818.818,0,0,0,.347.623c.17.12.524.127,4.771.149,3.115.014,4.679-.007,4.87-.057a.764.764,0,0,0,.446-1.125c-.255-.361-.248-.361-5.174-.361A34.194,34.194,0,0,0,179.446-84.894Z" transform="translate(-106.906 -396.769)" fill="#fff"/>
  </g>
</svg>
