<svg xmlns="http://www.w3.org/2000/svg" width="32.443" height="37.054" viewBox="0 0 32.443 37.054">
  <g id="clipboard" transform="translate(-31.5 512.026)">
    <path id="Path_7948" data-name="Path 7948" d="M42.279-511.915a1.933,1.933,0,0,0-.969,1.02,5.646,5.646,0,0,0-.08,1.056v.781H40.2c-1.353.007-1.693.145-1.968.81l-.116.268-2.293.022-2.3.022-.441.2a3.093,3.093,0,0,0-1.382,1.389l-.2.434v28.863l.2.434a3.093,3.093,0,0,0,1.382,1.389l.441.2,8.883.022,8.883.014.174-.174a.471.471,0,0,0,0-.731l-.174-.181H42.626c-5.888,0-8.753-.029-8.941-.08a1.96,1.96,0,0,1-1.056-1.042c-.116-.412-.109-28.169,0-28.574a1.934,1.934,0,0,1,1.042-1.042,18.594,18.594,0,0,1,2.365-.08h2.076l.022,1.548.022,1.548.217.275c.47.571.014.535,6.474.535s6,.036,6.467-.535a1,1,0,0,0,.246-.731l.029-.47h3.385v9.78l-2.756,4.774c-1.512,2.619-2.8,4.883-2.857,5.013a8.605,8.605,0,0,0,.014,2.872c.123,1.628.174,1.837.514,2.062.369.246.673.159,2.445-.658a19.873,19.873,0,0,0,1.917-.977,2.928,2.928,0,0,0,.492-.557l.231-.354v4.594H34.719v-26.548h.68c.723,0,1.02-.072,1.172-.275a.515.515,0,0,0-.043-.651c-.145-.152-.21-.159-1.273-.159H34.126l-.239.239a.91.91,0,0,0-.289.637c-.022.21-.036,6.416-.022,13.773.022,12.652.029,13.4.152,13.585a1.112,1.112,0,0,0,.318.318c.188.123.788.13,10.8.13s10.612-.007,10.8-.13c.463-.3.449-.166.485-4.065l.036-3.545.47-.81.47-.81.022,4.463a43.549,43.549,0,0,1-.072,4.789,1.831,1.831,0,0,1-1.042,1.071,7.949,7.949,0,0,1-1.432.087c-1.107,0-1.136.007-1.309.181a.471.471,0,0,0,0,.731l.188.188L54.815-475c1.3-.022,1.367-.029,1.794-.224a3.093,3.093,0,0,0,1.382-1.389l.2-.434.022-5.693.022-5.693,2.684-4.651c1.476-2.561,2.713-4.767,2.742-4.9a1.315,1.315,0,0,0-.3-1.085l-.2-.21.362-.637c.441-.767.514-1.2.282-1.657-.181-.354-.188-.362-.984-.817-.839-.477-1.114-.564-1.49-.449-.42.123-.716.42-1.085,1.078l-.326.579-.376-.036a1.081,1.081,0,0,0-1.034.311l-.282.253-.022-2.626-.022-2.626-.224-.47a2.767,2.767,0,0,0-1.331-1.331l-.47-.224-2.3-.022-2.293-.022-.116-.268c-.275-.665-.615-.8-1.96-.81H48.464v-.767a5.8,5.8,0,0,0-.087-1.071,1.934,1.934,0,0,0-1.034-1.049A33.734,33.734,0,0,0,42.279-511.915Zm4.919,1.157c.166.166.181.224.181.94v.76H42.315v-.76c0-.716.014-.774.181-.94l.174-.181h4.355Zm3.255,4.738v1.917H39.24l-.022-1.845c-.007-1.013,0-1.881.022-1.931.022-.08,1.15-.094,5.621-.08l5.592.022Zm5.9-.615a2.681,2.681,0,0,1,.535.535l.217.311.022,3.552.014,3.559-.506.868-.506.868v-3.942c0-2.17-.036-4.073-.072-4.232a.982.982,0,0,0-.289-.492l-.217-.2H51.574v-1.092l2.235.022,2.235.022Zm5.867,5.143a2.9,2.9,0,0,1,.615.434,3.9,3.9,0,0,1-.637,1.186,5.906,5.906,0,0,1-.7-.376l-.658-.376.2-.326a3.31,3.31,0,0,1,.571-.875A6.625,6.625,0,0,1,62.222-501.491Zm-1.295,2.17c.8.463,1.519.89,1.584.955.123.1.116.13-.1.528a1.178,1.178,0,0,1-.311.427c-.036-.007-.788-.427-1.664-.94a7.335,7.335,0,0,1-1.584-1.042c.022-.2.391-.767.506-.767A16.014,16.014,0,0,1,60.928-499.321Zm-1.02,1.924c1.288.738,1.649.977,1.613,1.063-.043.108-6.344,11.061-6.5,11.3-.072.109-.289,0-1.743-.846a11.665,11.665,0,0,1-1.642-1.042c.029-.116,6.554-11.43,6.59-11.43C58.236-498.352,59-497.925,59.908-497.4Zm-7.14,12.486c.8.456,1.483.868,1.534.911s.007.21-.224.608a5.173,5.173,0,0,1-.412.629,25.677,25.677,0,0,1-3.1,1.432,29.265,29.265,0,0,1-.217-3.009,1.585,1.585,0,0,1,.333-.991c.311-.528.347-.571.492-.492C51.249-485.779,51.972-485.367,52.768-484.911Z" fill="#fff"/>
    <path id="Path_7949" data-name="Path 7949" d="M102.1-353.848a.488.488,0,0,0,0,.781c.2.152.21.152,8.059.152,7.581,0,7.878-.007,8.037-.137a.559.559,0,0,0,0-.81c-.159-.13-.456-.137-8.037-.137C102.305-354,102.291-354,102.1-353.848Z" transform="translate(-65.307 -146.594)" fill="#fff"/>
    <path id="Path_7950" data-name="Path 7950" d="M103.1-313.848a.488.488,0,0,0,0,.781c.188.152.26.152,3.574.152,3.2,0,3.393-.007,3.552-.137a.559.559,0,0,0,0-.81c-.159-.13-.354-.137-3.552-.137C103.356-314,103.283-314,103.1-313.848Z" transform="translate(-66.235 -183.701)" fill="#fff"/>
    <path id="Path_7951" data-name="Path 7951" d="M227.188-313.848a.441.441,0,0,0-.188.391.44.44,0,0,0,.188.391c.181.145.289.152,1.62.152,1.288,0,1.447-.014,1.6-.137a.446.446,0,0,0,.166-.405.446.446,0,0,0-.166-.405c-.152-.123-.311-.137-1.6-.137C227.477-314,227.369-313.993,227.188-313.848Z" transform="translate(-181.358 -183.701)" fill="#fff"/>
    <path id="Path_7952" data-name="Path 7952" d="M103.1-273.848a.488.488,0,0,0,0,.781c.188.145.268.152,2.959.152,2.6,0,2.778-.007,2.937-.137a.446.446,0,0,0,.166-.405.446.446,0,0,0-.166-.405c-.159-.13-.34-.137-2.937-.137C103.363-274,103.283-273.993,103.1-273.848Z" transform="translate(-66.235 -220.807)" fill="#fff"/>
    <path id="Path_7953" data-name="Path 7953" d="M207.188-273.848a.441.441,0,0,0-.188.391.44.44,0,0,0,.188.391c.181.145.289.152,1.584.152,1.251,0,1.411-.014,1.563-.137a.559.559,0,0,0,0-.81c-.152-.123-.311-.137-1.563-.137C207.477-274,207.369-273.993,207.188-273.848Z" transform="translate(-162.805 -220.807)" fill="#fff"/>
    <path id="Path_7954" data-name="Path 7954" d="M103.1-233.848a.488.488,0,0,0,0,.781c.188.145.282.152,2.235.152,1.888,0,2.062-.007,2.214-.137a.446.446,0,0,0,.166-.405.446.446,0,0,0-.166-.405c-.152-.13-.326-.137-2.214-.137C103.377-234,103.283-233.993,103.1-233.848Z" transform="translate(-66.235 -257.913)" fill="#fff"/>
    <path id="Path_7955" data-name="Path 7955" d="M187.188-233.848a.44.44,0,0,0-.188.391.44.44,0,0,0,.188.391c.188.145.275.152,2.308.152,1.96,0,2.127-.007,2.286-.137a.559.559,0,0,0,0-.81c-.159-.13-.326-.137-2.286-.137C187.463-234,187.376-233.993,187.188-233.848Z" transform="translate(-144.251 -257.913)" fill="#fff"/>
    <path id="Path_7956" data-name="Path 7956" d="M103.1-193.848a.488.488,0,0,0,0,.781c.188.145.282.152,2.235.152,1.888,0,2.062-.007,2.214-.137a.446.446,0,0,0,.166-.405.446.446,0,0,0-.166-.405c-.152-.13-.326-.137-2.214-.137C103.377-194,103.283-193.993,103.1-193.848Z" transform="translate(-66.235 -295.02)" fill="#fff"/>
    <path id="Path_7957" data-name="Path 7957" d="M110.8-127.969a6.351,6.351,0,0,0-.738.687l-.514.55-.477-.557c-.5-.593-.7-.731-1.049-.731-.369,0-.571.152-1.3.991-.55.622-.723.868-.723,1.02a.567.567,0,0,0,.557.521c.2,0,.318-.1.825-.651a5.508,5.508,0,0,1,.644-.651,3.251,3.251,0,0,1,.477.514c.463.557.694.716,1.042.716s.492-.1,1.1-.745l.564-.593.26.289c.152.159.441.477.651.7.3.34.42.42.6.42a.506.506,0,0,0,.514-.543c0-.21-.1-.362-.723-1.063C111.606-128.107,111.317-128.259,110.8-127.969Z" transform="translate(-69.111 -356.153)" fill="#fff"/>
  </g>
</svg>
