<svg xmlns="http://www.w3.org/2000/svg" width="31.109" height="32.628" viewBox="0 0 31.109 32.628">
  <g id="passport-_1_" transform="translate(-12 511.749)">
    <path id="Path_7940" data-name="Path 7940" d="M27.339-511.65a2.261,2.261,0,0,0-1.416,1.384c-.051.159-.344,1.225-.651,2.379l-.561,2.086-5.989.032-5.989.032-.223.14a1.224,1.224,0,0,0-.37.4l-.14.249.013,11.505.019,11.5.153.217a1.193,1.193,0,0,0,.415.332c.249.115.561.121,6.786.121H25.91l3.935,1.059c2.162.58,4.095,1.071,4.292,1.091a1.953,1.953,0,0,0,.823-.1,1.659,1.659,0,0,0,.861-.536,1.956,1.956,0,0,0,.529-.746c.07-.191,1.626-5.944,3.457-12.787,3.285-12.252,3.329-12.443,3.3-12.915a2.39,2.39,0,0,0-.166-.784,2.479,2.479,0,0,0-1.154-1.116c-.191-.077-3.265-.918-6.824-1.869-4.535-1.218-6.595-1.747-6.888-1.76A1.768,1.768,0,0,0,27.339-511.65Zm7.392,2.755c3.546.95,6.524,1.754,6.62,1.792a1.389,1.389,0,0,1,.663.8,1.514,1.514,0,0,1-.026.529c-.038.159-1.55,5.817-3.355,12.564-1.99,7.411-3.342,12.354-3.425,12.488a1.1,1.1,0,0,1-.906.466c-.249,0-4.031-.969-4.114-1.052-.019-.019.026-.032.1-.032A2.521,2.521,0,0,0,31.427-482a2.175,2.175,0,0,0,.529-1.052c.045-.23.07-1.741.07-4.8,0-4.222.006-4.464.115-4.433.421.128.453.121.5-.07.026-.1.153-.574.281-1.059.159-.6.217-.893.166-.912s-.268-.083-.51-.153c-.344-.1-.459-.108-.5-.045-.026.038-.051-1.881-.051-4.279a43.012,43.012,0,0,1,.07-4.35c.045,0,.293.064.568.134l.491.134.657,2.162.663,2.156.434.108a2.2,2.2,0,0,0,.459.083c.013-.013,0-.887-.019-1.939s-.038-1.932-.026-1.952a1.772,1.772,0,0,1,.542.1c.293.083.651.179.8.217.255.07.287.108.625.7s.37.631.644.708a.929.929,0,0,0,.306.057,7.7,7.7,0,0,0-.032-.874l-.057-.848.446-.663a8.021,8.021,0,0,0,.459-.733c.013-.045-.108-.115-.261-.159l-.274-.089-.631.376-.625.37-.778-.21c-.427-.121-.784-.23-.8-.242s.421-.759.969-1.658.989-1.658.989-1.69a3,3,0,0,0-.855-.268c-.019,0-.772.689-1.671,1.531a15.449,15.449,0,0,1-1.728,1.505c-.045-.019-.427-.128-.848-.236-.753-.2-.778-.217-.969-.478a2.649,2.649,0,0,0-.989-.778,9.058,9.058,0,0,0-2.481-.14l-2.232-.032.548-2.041c.3-1.122.6-2.13.657-2.245a1.03,1.03,0,0,1,.9-.529C28.187-510.617,30.4-510.049,34.73-508.895Zm-4.458,4.35a1.172,1.172,0,0,1,.536.58c.051.128.07,3.329.07,10.447,0,8.527-.013,10.3-.089,10.472a1.2,1.2,0,0,1-.727.619c-.159.038-3.049.064-8.6.064H13.084v-22.322l8.5.013C29.347-504.653,30.1-504.647,30.272-504.545Z" transform="translate(0 0)" fill="#fff"/>
    <path id="Path_7941" data-name="Path 7941" d="M336.223-283.923a7.7,7.7,0,0,0-.223.9c0,.064.159.134.51.223l.51.128.07-.268c.038-.14.1-.37.134-.5s.051-.261.013-.293a5.4,5.4,0,0,0-.95-.262C336.268-284,336.242-283.962,336.223-283.923Z" transform="translate(-303.336 -213.223)" fill="#fff"/>
    <path id="Path_7942" data-name="Path 7942" d="M369.223-274.8c-.051.153-.223.867-.223.925a2.346,2.346,0,0,0,1.014.236,4.25,4.25,0,0,0,.262-.925c0-.07-.14-.134-.459-.2C369.261-274.9,369.261-274.9,369.223-274.8Z" transform="translate(-334.231 -221.772)" fill="#fff"/>
    <path id="Path_7943" data-name="Path 7943" d="M402.617-266.29a1.358,1.358,0,0,0-.083.561,4.5,4.5,0,0,0,1,.249,5.5,5.5,0,0,0,.236-1.046c-.025-.013-.261-.077-.529-.147l-.485-.128Z" transform="translate(-365.617 -229.326)" fill="#fff"/>
    <path id="Path_7944" data-name="Path 7944" d="M369.334-227.948a10.624,10.624,0,0,0-.249,1.071,5.042,5.042,0,0,0,1.04.242,20.853,20.853,0,0,0,.523-2.092,6.244,6.244,0,0,0-.969-.274A4.836,4.836,0,0,0,369.334-227.948Z" transform="translate(-334.31 -264.716)" fill="#fff"/>
    <path id="Path_7945" data-name="Path 7945" d="M330.006-157.8a28.01,28.01,0,0,0-.925,3.788,3.881,3.881,0,0,0,.982.236c.032-.032,2-7.36,2-7.449a1.193,1.193,0,0,0-.427-.153c-.242-.057-.478-.121-.529-.134C331.027-161.535,330.823-160.834,330.006-157.8Z" transform="translate(-296.851 -327.901)" fill="#fff"/>
    <path id="Path_7946" data-name="Path 7946" d="M70.078-365.292a6.667,6.667,0,0,0-5.963,5.542A6.7,6.7,0,0,0,67-353.1a5.7,5.7,0,0,0,1.645.784,6.5,6.5,0,0,0,4.968-.357,6.677,6.677,0,0,0,3.559-4.362,5.2,5.2,0,0,0,.14-1.633,5.24,5.24,0,0,0-.357-2.3A6.669,6.669,0,0,0,70.078-365.292Zm.918,1.32a9.751,9.751,0,0,1,1.027,2.577l.045.242H70.691c-.759,0-1.378-.013-1.378-.032s.057-.249.134-.517a8.961,8.961,0,0,1,.931-2.245C70.589-364.3,70.78-364.31,71-363.972Zm-2.009.281a14.179,14.179,0,0,0-.727,2.073l-.108.466h-2.4l.134-.242a6.359,6.359,0,0,1,1.779-1.888,7.533,7.533,0,0,1,1.416-.676C69.1-363.959,69.064-363.838,68.988-363.692Zm4.222.115a5.7,5.7,0,0,1,2.258,2.117l.166.306H73.223l-.083-.4a13.849,13.849,0,0,0-.67-2c-.089-.2-.159-.37-.159-.383A3.852,3.852,0,0,1,73.21-363.577Zm-5.268,4.911v1.4H65.314l-.077-.446a5.593,5.593,0,0,1,.1-2.315,9.9,9.9,0,0,1,1.314-.045h1.288Zm4.394-.727a11.185,11.185,0,0,1,.006,1.39l-.045.74H69.141l-.045-.2a19.006,19.006,0,0,1,0-2.411l.045-.2,1.569.013,1.569.019Zm3.808-.313a6.645,6.645,0,0,1,0,2.073l-.077.37h-2.64v-2.806h2.64Zm-7.915,3.859a12.327,12.327,0,0,0,.619,1.888,2.262,2.262,0,0,1,.191.561,4.414,4.414,0,0,1-1.4-.651,6.494,6.494,0,0,1-.855-.7,5.186,5.186,0,0,1-.982-1.346c0-.064.274-.083,1.174-.083h1.174Zm3.795-.1a10.592,10.592,0,0,1-.81,2.207c-.319.6-.338.625-.523.606s-.23-.077-.523-.651a12.075,12.075,0,0,1-.829-2.226l-.038-.172h2.768Zm3.6-.21a4.639,4.639,0,0,1-.548.874,5.743,5.743,0,0,1-1.543,1.365,3.969,3.969,0,0,1-1.2.523,3.823,3.823,0,0,1,.223-.593,10.645,10.645,0,0,0,.58-1.792.82.82,0,0,1,.064-.236l.064-.166h1.18C75.1-356.179,75.627-356.166,75.627-356.153Z" transform="translate(-48.703 -137.091)" fill="#fff"/>
    <path id="Path_7947" data-name="Path 7947" d="M81.115-103.917a2.648,2.648,0,0,0-.013.561l.019.472,5.568.019,5.561.013V-104H86.7A47.194,47.194,0,0,0,81.115-103.917Z" transform="translate(-64.689 -381.743)" fill="#fff"/>
  </g>
</svg>
