<svg xmlns="http://www.w3.org/2000/svg" width="11.229" height="17.967" viewBox="0 0 11.229 17.967">
  <path id="Icon_awesome-mobile-alt" data-name="Icon awesome-mobile-alt" d="M9.545,0H1.684A1.685,1.685,0,0,0,0,1.684v14.6a1.685,1.685,0,0,0,1.684,1.684h7.86a1.685,1.685,0,0,0,1.684-1.684V1.684A1.685,1.685,0,0,0,9.545,0ZM5.615,16.844a1.123,1.123,0,1,1,1.123-1.123A1.122,1.122,0,0,1,5.615,16.844Zm3.93-3.79a.422.422,0,0,1-.421.421H2.105a.422.422,0,0,1-.421-.421V2.105a.422.422,0,0,1,.421-.421H9.124a.422.422,0,0,1,.421.421Z" fill="#009780"/>
</svg>
