<svg xmlns="http://www.w3.org/2000/svg" width="18.215" height="18.211" viewBox="0 0 18.215 18.211">
  <path id="Icon_awesome-internet-explorer" data-name="Icon awesome-internet-explorer" d="M16.231,5.366a8.235,8.235,0,0,0,.72-2.953c0-2.444-2.676-3.305-7.045-1.3A7.945,7.945,0,0,0,1.939,7.383a13.834,13.834,0,0,1,4.1-3.4A22.207,22.207,0,0,0,1.478,9.8,11.758,11.758,0,0,0,0,14.676c0,3.312,3.12,2.907,6.057,1.411a7.6,7.6,0,0,0,3.417.523A7.531,7.531,0,0,0,16.759,11.7H12.7c-1.764,2.977-6.614,1.781-6.614-1.594H17.134A7.715,7.715,0,0,0,16.231,5.366ZM2.169,11.656A7.81,7.81,0,0,0,5.538,15.8C2.557,17.444-.284,16.777,2.169,11.656ZM6.066,8A3.412,3.412,0,0,1,9.56,4.81,3.418,3.418,0,0,1,13.054,8Zm6.2-6.3A6.147,6.147,0,0,1,14.705.954a1.739,1.739,0,0,1,1.824,1.805,7.517,7.517,0,0,1-.49,2.28,8.221,8.221,0,0,0-3.772-3.346Z" transform="translate(0.5 0.505)" fill="none" stroke="#009780" stroke-width="1"/>
</svg>
