<svg xmlns="http://www.w3.org/2000/svg" width="16.34" height="14.74" viewBox="0 0 16.34 14.74">
  <path id="Icon_ionic-ios-star" data-name="Icon ionic-ios-star" d="M17.97,8.477H12.6l-1.63-4.727a.6.6,0,0,0-1.109,0L8.235,8.477h-5.4a.577.577,0,0,0-.584.567.405.405,0,0,0,.011.1.541.541,0,0,0,.244.4l4.41,3.019-1.692,4.78a.559.559,0,0,0,.2.638.573.573,0,0,0,.328.138.728.728,0,0,0,.365-.128l4.3-2.98,4.3,2.98a.7.7,0,0,0,.365.128.532.532,0,0,0,.325-.138.552.552,0,0,0,.2-.638l-1.692-4.78,4.373-3.047.106-.089a.588.588,0,0,0,.19-.379A.61.61,0,0,0,17.97,8.477Z" transform="translate(-2.25 -3.375)" fill="#ffba00"/>
</svg>
