<svg xmlns="http://www.w3.org/2000/svg" width="28.952" height="30.737" viewBox="0 0 28.952 30.737">
  <g id="couple" transform="translate(0.495 0.51)">
    <path id="Path_83549" data-name="Path 83549" d="M77.875-511.8a2.419,2.419,0,0,0-.958,4.047,2.488,2.488,0,0,0,2.056.656,2.446,2.446,0,0,0,2.021-2.746A2.414,2.414,0,0,0,77.875-511.8Z" transform="translate(-72.632 511.915)" fill="none" stroke="#136e35" stroke-width="1"/>
    <path id="Path_83550" data-name="Path 83550" d="M329.2-497.6a2.8,2.8,0,0,0-1.132.708,2.985,2.985,0,0,0-.389.61,1.653,1.653,0,0,0-.18.987,1.666,1.666,0,0,0,.186,1,2.426,2.426,0,0,0,1.167,1.167,1.676,1.676,0,0,0,1,.186,1.614,1.614,0,0,0,1.051-.221,2.233,2.233,0,0,0,1.115-1.144,1.653,1.653,0,0,0,.18-.987,1.665,1.665,0,0,0-.186-1,2.465,2.465,0,0,0-1.156-1.161,1.886,1.886,0,0,0-.883-.2A2.976,2.976,0,0,0,329.2-497.6Z" transform="translate(-309.361 498.488)" fill="none" stroke="#136e35" stroke-width="1"/>
    <path id="Path_83551" data-name="Path 83551" d="M17.265-414.9a2.886,2.886,0,0,0-1.771,1.318c-.4.679-.4.633-.383,5.743.017,4.494.017,4.564.139,4.79a1.1,1.1,0,0,0,.97.592,1.067,1.067,0,0,0,.993-.464l.18-.227.029-4.564c.023-3.461.046-4.6.1-4.692a.491.491,0,0,1,.25-.186l.174-.064.012,10.376.017,10.376.128.238a1.728,1.728,0,0,0,.325.412,1.4,1.4,0,0,0,2.305-.79c.035-.2.058-2.427.058-5.992v-5.685h.581l.012,5.905L21.4-391.9l.128.238a1.423,1.423,0,0,0,1.388.761,1.4,1.4,0,0,0,1.237-1.092c.046-.2.064-3.443.064-10.446,0-9.8.006-10.161.1-10.161a.406.406,0,0,1,.232.134c.128.134.128.163.134,2.253a16.3,16.3,0,0,0,.07,2.294c.041.1.372.679.737,1.289l.662,1.115.093-.343c.122-.441.221-.592.836-1.254l.511-.552-.267-.459-.267-.453v-1.794c0-.987-.029-1.98-.058-2.2a2.834,2.834,0,0,0-2.259-2.352C24.268-415.008,17.648-414.99,17.265-414.9Z" transform="translate(-15.105 420.606)" fill="none" stroke="#136e35" stroke-width="1"/>
    <path id="Path_83552" data-name="Path 83552" d="M226.274-402.76a2.663,2.663,0,0,0-1.986,1.574c-.128.267-.5,1.225-.819,2.131a16.972,16.972,0,0,1-.685,1.771c-.052.064-.656.7-1.341,1.423a15.672,15.672,0,0,0-1.318,1.492,1.22,1.22,0,0,0,.4,1.382,1.142,1.142,0,0,0,1.185.081,16.559,16.559,0,0,0,1.661-1.62,14.385,14.385,0,0,0,1.69-1.945c.151-.25.261-.395.244-.314-.151.685-1.254,7.026-1.254,7.206a.535.535,0,0,0,.168.412c.168.192.18.192.755.209l.586.023.012,4.245.017,4.25.128.244a1.426,1.426,0,0,0,1.5.72,1.457,1.457,0,0,0,.935-.685l.163-.279.017-4.256.017-4.25h.569l.017,4.25.017,4.256.163.279a1.457,1.457,0,0,0,.935.685,1.406,1.406,0,0,0,1.5-.726c.128-.238.128-.238.145-4.488l.012-4.245.586-.023c.575-.017.586-.017.755-.209a.543.543,0,0,0,.168-.424c0-.128-.261-1.777-.581-3.658s-.581-3.455-.569-3.49a5.191,5.191,0,0,1,.331.807c.755,2.079,1.539,4.07,1.672,4.25a1.158,1.158,0,0,0,2.026-.6c.029-.267-.035-.476-.819-2.642-.47-1.295-1.126-3.124-1.457-4.065-.737-2.1-.958-2.555-1.434-3.043a2.264,2.264,0,0,0-1.434-.732C230.443-402.83,226.791-402.83,226.274-402.76Z" transform="translate(-208.147 409.148)" fill="none" stroke="#136e35" stroke-width="1"/>
  </g>
</svg>
