<svg id="egypt" xmlns="http://www.w3.org/2000/svg" width="35.443" height="23.221" viewBox="0 0 35.443 23.221">
  <path id="Path_26907" data-name="Path 26907" d="M32.789,88.276H2.654A2.654,2.654,0,0,0,0,90.93v5.086H35.443V90.93A2.654,2.654,0,0,0,32.789,88.276Z" transform="translate(0 -88.276)" fill="#ff4b55"/>
  <path id="Path_26908" data-name="Path 26908" d="M0,316.994a2.654,2.654,0,0,0,2.654,2.654H32.789a2.654,2.654,0,0,0,2.654-2.654v-5.086H0Z" transform="translate(0 -296.427)" fill="#464655"/>
  <rect id="Rectangle_4072" data-name="Rectangle 4072" width="35.443" height="7.74" transform="translate(0 7.74)" fill="#f5f5f5"/>
  <path id="Path_26909" data-name="Path 26909" d="M231.715,213.711a.444.444,0,0,0-.584-.421l-.54.18-.131-.792a.972.972,0,0,0-.963-.816h-.505l-.528.65h.7l-.2.967-.57-.19a.444.444,0,0,0-.584.421V217l.787-.787-.371,1.112h-.416v.65h3.9v-.65H231.3l-.371-1.112.787.787v-3.286Zm-2.276,3.612h-.524l.361-.963.164.209v.754Zm.65,0v-.754l.164-.209.361.963Zm-.325-1.179a2.391,2.391,0,0,1-.965-1.951,1.537,1.537,0,0,0,.965-.65,1.537,1.537,0,0,0,.965.65A2.391,2.391,0,0,1,229.764,216.144Z" transform="translate(-212.043 -203.307)" fill="#f0c727"/>
</svg>
