<svg xmlns="http://www.w3.org/2000/svg" width="16.986" height="23.003" viewBox="0 0 16.986 23.003">
  <path id="Icon_material-speaker-phone" data-name="Icon material-speaker-phone" d="M9.389,8.152l1.567,1.567a5.53,5.53,0,0,1,7.825,0l1.567-1.567a7.752,7.752,0,0,0-10.959,0ZM14.868,1.5A12.015,12.015,0,0,0,6.375,5.018L7.92,6.563a9.842,9.842,0,0,1,13.9,0l1.545-1.545A12.015,12.015,0,0,0,14.868,1.5ZM18,11.374l-6.269-.011a1.249,1.249,0,0,0-1.249,1.249V23.254A1.249,1.249,0,0,0,11.734,24.5h6.258a1.249,1.249,0,0,0,1.249-1.249V12.612A1.223,1.223,0,0,0,18,11.374Zm.153,10.948H11.581V13.555h6.575Z" transform="translate(-6.375 -1.5)" fill="#009780"/>
</svg>
