<svg id="prisoner" xmlns="http://www.w3.org/2000/svg" width="24.077" height="24.076" viewBox="0 0 24.077 24.076">
  <path id="Path_83539" data-name="Path 83539" d="M.118-511.882,0-511.77v23.616l.118.113a.346.346,0,0,0,.517,0l.118-.113V-511.77l-.118-.113A.366.366,0,0,0,.376-512,.366.366,0,0,0,.118-511.882Z" transform="translate(0 512)" fill="#136e35"/>
  <path id="Path_83540" data-name="Path 83540" d="M124.118-511.882l-.118.113v23.616l.118.113a.346.346,0,0,0,.517,0l.118-.113V-511.77l-.118-.113a.366.366,0,0,0-.259-.118A.366.366,0,0,0,124.118-511.882Z" transform="translate(-118.169 512)" fill="#136e35"/>
  <path id="Path_83541" data-name="Path 83541" d="M248.118-511.882l-.118.113v23.616l.118.113a.346.346,0,0,0,.517,0l.118-.113V-511.77l-.118-.113a.366.366,0,0,0-.259-.118A.366.366,0,0,0,248.118-511.882Z" transform="translate(-236.338 512)" fill="#136e35"/>
  <path id="Path_83542" data-name="Path 83542" d="M372.118-511.882l-.117.113v23.616l.117.113a.346.346,0,0,0,.517,0l.118-.113V-511.77l-.118-.113a.366.366,0,0,0-.259-.118A.366.366,0,0,0,372.118-511.882Z" transform="translate(-354.507 512)" fill="#136e35"/>
  <path id="Path_83543" data-name="Path 83543" d="M496.118-511.882l-.117.113v23.616l.117.113a.346.346,0,0,0,.517,0l.118-.113V-511.77l-.118-.113a.366.366,0,0,0-.259-.118A.367.367,0,0,0,496.118-511.882Z" transform="translate(-472.675 512)" fill="#136e35"/>
  <path id="Path_83544" data-name="Path 83544" d="M150.843-481.253a4.466,4.466,0,0,0-1.4.7,4.217,4.217,0,0,0-1.336,3.612,8.036,8.036,0,0,0,1.354,4.016l.226.339v1.072l-.362.329a5.611,5.611,0,0,1-1.284.809,8.188,8.188,0,0,0-.973.56.419.419,0,0,0,.033.48c.155.155.353.118.973-.207.5-.263.574-.287.555-.2-.165.72-.447,2.149-.447,2.271a.329.329,0,0,0,.32.343,5.5,5.5,0,0,0,.649-.122l.517-.127.611.5c.625.517.734.578.936.527a.387.387,0,0,0,.221-.47,10.479,10.479,0,0,0-1.589-1.326,1.5,1.5,0,0,0-.442.052,1.553,1.553,0,0,1-.348.066c-.009-.009.089-.531.226-1.157l.24-1.138.188-.193c.127-.132.193-.169.216-.132s.216.546.437,1.143.433,1.11.466,1.138a.532.532,0,0,0,.207.089c.127.024.174,0,.3-.113a.538.538,0,0,0,.141-.216c0-.042-.235-.705-.517-1.472a7.3,7.3,0,0,1-.508-1.571l.014-.179.282.188a1.313,1.313,0,0,0,.362.183.412.412,0,0,0,.367-.24c.094-.226.028-.348-.324-.578a4.618,4.618,0,0,1-1.552-1.9,8.5,8.5,0,0,1-.649-1.933,6.961,6.961,0,0,1,.028-2.328,2.786,2.786,0,0,1,.672-1.274,2.627,2.627,0,0,1,1.218-.752c.466-.15.607-.259.607-.466a.423.423,0,0,0-.282-.362A1.06,1.06,0,0,0,150.843-481.253Z" transform="translate(-140.098 482.743)" fill="#136e35"/>
  <path id="Path_83545" data-name="Path 83545" d="M269.319-480.834a.339.339,0,0,0,0,.489,2,2,0,0,0,.5.221,2.626,2.626,0,0,1,1.218.752,2.786,2.786,0,0,1,.672,1.274,6.966,6.966,0,0,1,.024,2.328,8.055,8.055,0,0,1-.682,2,4.473,4.473,0,0,1-1.514,1.834c-.353.23-.419.353-.324.578a.386.386,0,0,0,.433.216,2.387,2.387,0,0,0,.357-.193l.245-.16v.188a10.237,10.237,0,0,1-.517,1.571c-.282.762-.517,1.42-.517,1.462a.518.518,0,0,0,.141.221c.122.118.169.136.3.113a.533.533,0,0,0,.207-.089,11.737,11.737,0,0,0,.475-1.176,11.9,11.9,0,0,1,.451-1.119.907.907,0,0,1,.207.15l.169.15.244,1.157c.132.635.235,1.166.226,1.176a1.457,1.457,0,0,1-.32-.061,2.6,2.6,0,0,0-.409-.075,8.846,8.846,0,0,0-1.472,1.138c-.207.2-.226.235-.2.376a.367.367,0,0,0,.593.24c.066-.042.357-.282.654-.527l.536-.442.522.122a4.922,4.922,0,0,0,.649.127.35.35,0,0,0,.32-.334c0-.1-.324-1.754-.447-2.285-.023-.089.042-.066.555.2.625.324.814.367.973.207a.41.41,0,0,0,.009-.508,10.92,10.92,0,0,0-.973-.545,5.19,5.19,0,0,1-1.256-.795l-.367-.329v-1.072l.226-.339a7.59,7.59,0,0,0,1.2-5.747,4.738,4.738,0,0,0-.7-1.4,3.67,3.67,0,0,0-1.655-1.114C269.681-480.975,269.45-480.97,269.319-480.834Z" transform="translate(-256.518 482.4)" fill="#136e35"/>
  <path id="Path_83546" data-name="Path 83546" d="M61.787-215.621a2.15,2.15,0,0,0-1.006.945,2.227,2.227,0,0,0-.188.5c-.042.273-.593,6.236-.593,6.428a.389.389,0,0,0,.329.39c.165.033.165.028.075.809-.071.578-.052.7.122.823a.326.326,0,0,0,.437-.028c.108-.1.127-.165.2-.809l.08-.7.216.028c.118.019.4.042.625.061.386.028.419.023.527-.08a.356.356,0,0,0-.122-.6,8.656,8.656,0,0,0-.9-.127l-.79-.085v-.146c0-.329.522-5.756.569-5.93a1.4,1.4,0,0,1,.372-.574,3.662,3.662,0,0,1,.376-.23c.428-.24.47-.287.47-.494a.289.289,0,0,0-.122-.273C62.29-215.842,62.191-215.828,61.787-215.621Z" transform="translate(-57.178 229.724)" fill="#136e35"/>
  <path id="Path_83547" data-name="Path 83547" d="M394.3-215.9a.289.289,0,0,0-.122.273c0,.212.052.263.48.5a1.42,1.42,0,0,1,.71.734c.052.136.165,1.138.339,3.028.141,1.552.259,2.892.259,2.977,0,.113-.019.15-.08.15s-.433.042-.851.089c-.663.08-.785.108-.884.2a.36.36,0,0,0,.273.616c.085,0,.362-.024.616-.056a3.627,3.627,0,0,1,.475-.038c.009.009.047.32.089.7.071.63.085.691.2.785a.322.322,0,0,0,.437.033c.169-.118.188-.24.122-.795-.094-.785-.089-.8.075-.837a.391.391,0,0,0,.329-.381c0-.268-.56-6.2-.611-6.461a2.01,2.01,0,0,0-.564-1.016,3.264,3.264,0,0,0-1.072-.593A.435.435,0,0,0,394.3-215.9Z" transform="translate(-375.504 229.92)" fill="#136e35"/>
  <path id="Path_83548" data-name="Path 83548" d="M279.1-144.892c-.1.1-.1.146-.1,1.147,0,.95.009,1.049.089,1.147l.089.113,1.655.014,1.651.014.136-.141.141-.136v-.973c0-1.006-.033-1.194-.212-1.265-.042-.014-.814-.028-1.712-.028H279.2Zm2.906,1.161v.517h-2.257v-1.035h2.257Z" transform="translate(-265.88 162.258)" fill="#136e35"/>
</svg>
