<svg id="search" xmlns="http://www.w3.org/2000/svg" width="26.762" height="26.724" viewBox="0 0 26.762 26.724">
  <path id="Path_83524" data-name="Path 83524"
    d="M3.068-511.681a2.07,2.07,0,0,0-1,.747c-.34.5-.329.382-.329,4.668v3.878l-.261.057a2.061,2.061,0,0,0-1.4,1.129l-.146.314-.016,3.23L-.1-494.432l.131.131a.34.34,0,0,0,.528,0l.131-.125V-497.5c0-2.086.021-3.141.057-3.283a1.4,1.4,0,0,1,.753-.753c.146-.037,1.443-.057,4.2-.057a29.079,29.079,0,0,1,4.176.078c.4.167.512.361.721,1.228.235.983.5,1.375,1.124,1.667l.287.136,2.263.016c1.244.005,2.258.031,2.248.057s-.162.3-.345.612l-.329.57-.246.005a1.19,1.19,0,0,0-.779.345c-.131.146-3.152,5.363-3.371,5.828a2.126,2.126,0,0,0,1.04,2.8,2.222,2.222,0,0,0,1.589.1,2.27,2.27,0,0,0,1.014-.711c.089-.12.889-1.469,1.777-3.006l1.615-2.8.021-.35a.99.99,0,0,0-.094-.591l-.115-.235.131-.225c.068-.12.225-.387.34-.6l.22-.371.272.073c.152.037.517.1.815.136l.533.063v4.96c0,3.758-.016,5.018-.063,5.18a1.4,1.4,0,0,1-.753.753c-.287.084-17.976.094-18.279.005a1.416,1.416,0,0,1-.763-.753c-.037-.141-.057-1.2-.057-3.22,0-2.87-.005-3.021-.1-3.136a.406.406,0,0,0-.591.005c-.094.115-.1.235-.084,3.288l.016,3.168.146.314a2.235,2.235,0,0,0,1,1l.319.146H19.9l.34-.162a2,2,0,0,0,.962-.962l.162-.34.016-5.159.01-5.154.355-.063a6.093,6.093,0,0,0,3.3-1.809,5.977,5.977,0,0,0-1.85-9.513,5.13,5.13,0,0,0-2.336-.528l-.821-.026-.016-.795c-.016-.774-.021-.8-.188-1.139a1.987,1.987,0,0,0-1-.946l-.287-.115-7.579-.01C3.6-511.78,3.371-511.775,3.068-511.681Zm15.556.826a1.233,1.233,0,0,1,.439.371c.157.22.157.225.172,1.051l.016.826-.371.11a7.224,7.224,0,0,0-1.84.962,6.086,6.086,0,0,0-1.694,2.033c-.125.261-.136.308-.078.45a.406.406,0,0,0,.5.22.63.63,0,0,0,.24-.272,5.5,5.5,0,0,1,1.788-2,5.04,5.04,0,0,1,1.495-.7,3.47,3.47,0,0,1,1.364-.141,4.151,4.151,0,0,1,2.1.387,5.256,5.256,0,0,1,3.11,5.039,5.227,5.227,0,0,1-4.088,4.819,5.884,5.884,0,0,1-2.378-.042,5.25,5.25,0,0,1-3.455-2.891,4.421,4.421,0,0,1-.45-2.127c-.026-.774-.037-.883-.125-.962a.406.406,0,0,0-.533.026c-.11.1-.115.157-.115.962a4.745,4.745,0,0,0,.319,1.981,5.392,5.392,0,0,0,.612,1.228l.188.277H14.029c-1.735,0-1.814-.005-2.039-.11-.324-.157-.444-.387-.659-1.218a6.056,6.056,0,0,0-.314-.946,2.018,2.018,0,0,0-.81-.727c-.235-.11-.287-.11-3.962-.125l-3.727-.016v-7.762l.172-.282a.94.94,0,0,1,.45-.429L3.418-511H18.346Zm-.643,13.413c.12.052.22.12.22.146a7.932,7.932,0,0,1-.5.915c-.068.11-.073.11-.591-.183a3.325,3.325,0,0,1-.528-.34,5.6,5.6,0,0,1,.287-.533l.293-.491.3.193A4.727,4.727,0,0,0,17.98-497.442Zm-1.354,1.5c.507.288.962.57,1.019.622a.368.368,0,0,1,.1.225c0,.136-3.032,5.441-3.3,5.786a1.368,1.368,0,0,1-.983.47,1.979,1.979,0,0,1-.5-.063,1.629,1.629,0,0,1-.779-.68,1.441,1.441,0,0,1-.1-.962c.037-.11.795-1.469,1.688-3.016,1.526-2.65,1.683-2.9,1.887-2.906A9.588,9.588,0,0,1,16.627-495.942Z"
    transform="translate(0.1 511.774)" fill="#000" />
  <path id="Path_83525" data-name="Path 83525"
    d="M88.041-466.89a.353.353,0,0,0,0,.565c.141.11.152.11,5.938.11h5.8l.125-.131a.431.431,0,0,0,.131-.261.431.431,0,0,0-.131-.261L99.776-467h-5.8C88.193-467,88.182-467,88.041-466.89Z"
    transform="translate(-83.3 469.34)" fill="#000" />
  <path id="Path_83526" data-name="Path 83526"
    d="M88.041-421.89a.353.353,0,0,0,0,.565c.141.11.167.11,4.762.11h4.621l.125-.131a.43.43,0,0,0,.131-.261.43.43,0,0,0-.131-.261L97.424-422H92.8C88.208-422,88.182-422,88.041-421.89Z"
    transform="translate(-83.3 426.693)" fill="#000" />
  <path id="Path_83527" data-name="Path 83527"
    d="M326.965-412.9a3.9,3.9,0,0,0-2.7,2.54,3.425,3.425,0,0,0-.162,1.03,3.369,3.369,0,0,0,.382,1.861,3.7,3.7,0,0,0,1.725,1.735,3.782,3.782,0,0,0,4.38-.674,3.844,3.844,0,0,0-1.714-6.487A4.515,4.515,0,0,0,326.965-412.9Zm1.955.831a3.072,3.072,0,0,1,2.059,2.755,2.956,2.956,0,0,1-.9,2.3,3.041,3.041,0,0,1-2.729.857,3.172,3.172,0,0,1-2.4-2.269,3.677,3.677,0,0,1,.005-1.511,3.18,3.18,0,0,1,2.169-2.2A4.146,4.146,0,0,1,328.919-412.07Z"
    transform="translate(-307.149 418.164)" fill="#000" />
  <path id="Path_83528" data-name="Path 83528"
    d="M88.041-376.89a.353.353,0,0,0,0,.565c.141.11.167.11,4.37.11H96.64l.125-.131a.43.43,0,0,0,.131-.261.431.431,0,0,0-.131-.261L96.64-377H92.411C88.208-377,88.182-377,88.041-376.89Z"
    transform="translate(-83.3 384.045)" fill="#000" />
</svg>
