<svg xmlns="http://www.w3.org/2000/svg" width="30.974" height="27.102" viewBox="0 0 30.974 27.102">
  <path id="Icon_awesome-sort-amount-down" data-name="Icon awesome-sort-amount-down" d="M18.391,25.48H14.519a.968.968,0,0,0-.968.968v1.936a.968.968,0,0,0,.968.968h3.872a.968.968,0,0,0,.968-.968V26.448A.968.968,0,0,0,18.391,25.48Zm-7.743-3.872h-2.9V3.218a.968.968,0,0,0-.968-.968H4.84a.968.968,0,0,0-.968.968V21.609H.968a.968.968,0,0,0-.683,1.652l4.84,5.808a.968.968,0,0,0,1.368,0l4.84-5.808A.969.969,0,0,0,10.647,21.609ZM26.134,9.993H14.519a.968.968,0,0,0-.968.968V12.9a.968.968,0,0,0,.968.968H26.134A.968.968,0,0,0,27.1,12.9V10.961A.968.968,0,0,0,26.134,9.993Zm-3.872,7.743H14.519a.968.968,0,0,0-.968.968v1.936a.968.968,0,0,0,.968.968h7.743a.968.968,0,0,0,.968-.968V18.7A.968.968,0,0,0,22.262,17.737ZM30.006,2.25H14.519a.968.968,0,0,0-.968.968V5.154a.968.968,0,0,0,.968.968H30.006a.968.968,0,0,0,.968-.968V3.218A.968.968,0,0,0,30.006,2.25Z" transform="translate(0 -2.25)" fill="#7b7b7b"/>
</svg>
