<svg id="united-states" xmlns="http://www.w3.org/2000/svg" width="35.443" height="23.222" viewBox="0 0 35.443 23.222">
  <path id="Path_26910" data-name="Path 26910" d="M32.789,88.276H2.654A2.654,2.654,0,0,0,0,90.93v17.913A2.654,2.654,0,0,0,2.654,111.5H32.789a2.654,2.654,0,0,0,2.654-2.654V90.93A2.654,2.654,0,0,0,32.789,88.276Z" transform="translate(0 -88.276)" fill="#f5f5f5"/>
  <g id="Group_5419" data-name="Group 5419" transform="translate(0 0)">
    <path id="Path_26911" data-name="Path 26911" d="M2.109,90.062H37.26a2.655,2.655,0,0,0-2.508-1.786H4.617A2.655,2.655,0,0,0,2.109,90.062Z" transform="translate(-1.963 -88.276)" fill="#ff4b55"/>
    <rect id="Rectangle_4073" data-name="Rectangle 4073" width="35.443" height="1.786" transform="translate(0 7.145)" fill="#ff4b55"/>
    <rect id="Rectangle_4074" data-name="Rectangle 4074" width="35.443" height="1.786" transform="translate(0 3.572)" fill="#ff4b55"/>
    <path id="Path_26912" data-name="Path 26912" d="M0,244.273a.611.611,0,0,0,.611.611H35.443V243.1H0Z" transform="translate(0 -232.38)" fill="#ff4b55"/>
    <rect id="Rectangle_4075" data-name="Rectangle 4075" width="35.443" height="1.786" transform="translate(0 17.863)" fill="#ff4b55"/>
    <path id="Path_26913" data-name="Path 26913" d="M37.26,397.92H2.109a2.655,2.655,0,0,0,2.508,1.786H34.752A2.655,2.655,0,0,0,37.26,397.92Z" transform="translate(-1.963 -376.485)" fill="#ff4b55"/>
    <rect id="Rectangle_4076" data-name="Rectangle 4076" width="35.443" height="1.786" transform="translate(0 14.29)" fill="#ff4b55"/>
  </g>
  <path id="Path_26914" data-name="Path 26914" d="M.611,100.779H15.888a.611.611,0,0,0,.611-.611V88.886a.611.611,0,0,0-.611-.611H2.654A2.654,2.654,0,0,0,0,90.93v9.238A.611.611,0,0,0,.611,100.779Z" transform="translate(0 -88.275)" fill="#41479b"/>
  <g id="Group_5420" data-name="Group 5420" transform="translate(0.987 1.363)">
    <path id="Path_26915" data-name="Path 26915" d="M14.982,108.007l.135.406.428,0a.058.058,0,0,1,.034.1l-.344.254.129.408a.058.058,0,0,1-.088.064L14.927,109l-.348.249a.058.058,0,0,1-.088-.064l.129-.408-.344-.254a.058.058,0,0,1,.034-.1l.428,0,.135-.406A.058.058,0,0,1,14.982,108.007Z" transform="translate(-14.253 -107.968)" fill="#f5f5f5"/>
    <path id="Path_26916" data-name="Path 26916" d="M14.982,138.662l.135.406.428,0a.058.058,0,0,1,.034.1l-.344.254.129.408a.058.058,0,0,1-.088.064l-.348-.249-.348.249a.058.058,0,0,1-.088-.064l.129-.408-.344-.254a.058.058,0,0,1,.034-.1l.428,0,.135-.406A.058.058,0,0,1,14.982,138.662Z" transform="translate(-14.253 -136.501)" fill="#f5f5f5"/>
    <path id="Path_26917" data-name="Path 26917" d="M14.982,169.316l.135.406.428,0a.058.058,0,0,1,.034.1l-.344.254.129.408a.058.058,0,0,1-.088.064l-.348-.249-.348.249a.058.058,0,0,1-.088-.064l.129-.408-.344-.254a.058.058,0,0,1,.034-.1l.428,0,.135-.406A.058.058,0,0,1,14.982,169.316Z" transform="translate(-14.253 -165.033)" fill="#f5f5f5"/>
    <path id="Path_26918" data-name="Path 26918" d="M14.982,199.97l.135.406.428,0a.058.058,0,0,1,.034.1l-.344.254.129.408a.058.058,0,0,1-.088.064l-.348-.249-.348.249a.058.058,0,0,1-.088-.064l.129-.408-.344-.254a.058.058,0,0,1,.034-.1l.428,0,.135-.406A.058.058,0,0,1,14.982,199.97Z" transform="translate(-14.253 -193.565)" fill="#f5f5f5"/>
    <path id="Path_26919" data-name="Path 26919" d="M14.982,230.625l.135.406.428,0a.058.058,0,0,1,.034.1l-.344.254.129.408a.058.058,0,0,1-.088.064l-.348-.249-.348.249a.058.058,0,0,1-.088-.064l.129-.408-.344-.254a.058.058,0,0,1,.034-.1l.428,0,.135-.406A.058.058,0,0,1,14.982,230.625Z" transform="translate(-14.253 -222.097)" fill="#f5f5f5"/>
    <path id="Path_26920" data-name="Path 26920" d="M38.775,123.037l.135.406.428,0a.058.058,0,0,1,.034.1l-.344.254.129.408a.058.058,0,0,1-.088.064l-.348-.249-.348.249a.058.058,0,0,1-.088-.064l.129-.408-.344-.254a.058.058,0,0,1,.034-.1l.428,0,.135-.406A.058.058,0,0,1,38.775,123.037Z" transform="translate(-36.399 -121.957)" fill="#f5f5f5"/>
    <path id="Path_26921" data-name="Path 26921" d="M38.775,153.691l.135.406.428,0a.058.058,0,0,1,.034.1l-.344.254.129.408a.058.058,0,0,1-.088.064l-.348-.249-.348.249a.058.058,0,0,1-.088-.064l.129-.408-.344-.254a.058.058,0,0,1,.034-.1l.428,0,.135-.406A.058.058,0,0,1,38.775,153.691Z" transform="translate(-36.399 -150.489)" fill="#f5f5f5"/>
    <path id="Path_26922" data-name="Path 26922" d="M38.775,184.345l.135.406.428,0a.058.058,0,0,1,.034.1l-.344.254.129.408a.058.058,0,0,1-.088.064l-.348-.249-.348.249a.058.058,0,0,1-.088-.064l.129-.408-.344-.254a.058.058,0,0,1,.034-.1l.428,0,.135-.406A.058.058,0,0,1,38.775,184.345Z" transform="translate(-36.399 -179.021)" fill="#f5f5f5"/>
    <path id="Path_26923" data-name="Path 26923" d="M38.775,215l.135.406.428,0a.058.058,0,0,1,.034.1l-.344.254.129.408a.058.058,0,0,1-.088.064l-.348-.249-.348.249a.058.058,0,0,1-.088-.064l.129-.408-.344-.254a.058.058,0,0,1,.034-.1l.428,0,.135-.406A.058.058,0,0,1,38.775,215Z" transform="translate(-36.399 -207.554)" fill="#f5f5f5"/>
    <path id="Path_26924" data-name="Path 26924" d="M62.568,108.007l.135.406.428,0a.058.058,0,0,1,.034.1l-.344.254.129.408a.058.058,0,0,1-.088.064L62.513,109l-.348.249a.058.058,0,0,1-.088-.064l.129-.408-.344-.254a.058.058,0,0,1,.034-.1l.428,0,.135-.406A.058.058,0,0,1,62.568,108.007Z" transform="translate(-58.544 -107.968)" fill="#f5f5f5"/>
    <path id="Path_26925" data-name="Path 26925" d="M62.568,138.662l.135.406.428,0a.058.058,0,0,1,.034.1l-.344.254.129.408a.058.058,0,0,1-.088.064l-.348-.249-.348.249a.058.058,0,0,1-.088-.064l.129-.408-.344-.254a.058.058,0,0,1,.034-.1l.428,0,.135-.406A.058.058,0,0,1,62.568,138.662Z" transform="translate(-58.544 -136.5)" fill="#f5f5f5"/>
    <path id="Path_26926" data-name="Path 26926" d="M62.568,169.316l.135.406.428,0a.058.058,0,0,1,.034.1l-.344.254.129.408a.058.058,0,0,1-.088.064l-.348-.249-.348.249a.058.058,0,0,1-.088-.064l.129-.408-.344-.254a.058.058,0,0,1,.034-.1l.428,0,.135-.406A.058.058,0,0,1,62.568,169.316Z" transform="translate(-58.544 -165.033)" fill="#f5f5f5"/>
    <path id="Path_26927" data-name="Path 26927" d="M62.568,199.97l.135.406.428,0a.058.058,0,0,1,.034.1l-.344.254.129.408a.058.058,0,0,1-.088.064l-.348-.249-.348.249a.058.058,0,0,1-.088-.064l.129-.408-.344-.254a.058.058,0,0,1,.034-.1l.428,0,.135-.406A.058.058,0,0,1,62.568,199.97Z" transform="translate(-58.544 -193.565)" fill="#f5f5f5"/>
    <path id="Path_26928" data-name="Path 26928" d="M62.568,230.625l.135.406.428,0a.058.058,0,0,1,.034.1l-.344.254.129.408a.058.058,0,0,1-.088.064l-.348-.249-.348.249a.058.058,0,0,1-.088-.064l.129-.408-.344-.254a.058.058,0,0,1,.034-.1l.428,0,.135-.406A.058.058,0,0,1,62.568,230.625Z" transform="translate(-58.544 -222.097)" fill="#f5f5f5"/>
    <path id="Path_26929" data-name="Path 26929" d="M86.362,123.037l.135.406.428,0a.058.058,0,0,1,.034.1l-.344.254.129.408a.058.058,0,0,1-.088.064l-.348-.249-.348.249a.058.058,0,0,1-.088-.064L86,123.8l-.344-.254a.058.058,0,0,1,.034-.1l.428,0,.135-.406A.058.058,0,0,1,86.362,123.037Z" transform="translate(-80.691 -121.957)" fill="#f5f5f5"/>
    <path id="Path_26930" data-name="Path 26930" d="M86.362,153.691l.135.406.428,0a.058.058,0,0,1,.034.1l-.344.254.129.408a.058.058,0,0,1-.088.064l-.348-.249-.348.249a.058.058,0,0,1-.088-.064l.129-.408-.344-.254a.058.058,0,0,1,.034-.1l.428,0,.135-.406A.058.058,0,0,1,86.362,153.691Z" transform="translate(-80.691 -150.489)" fill="#f5f5f5"/>
    <path id="Path_26931" data-name="Path 26931" d="M86.362,184.345l.135.406.428,0a.058.058,0,0,1,.034.1l-.344.254.129.408a.058.058,0,0,1-.088.064l-.348-.249-.348.249a.058.058,0,0,1-.088-.064l.129-.408-.344-.254a.058.058,0,0,1,.034-.1l.428,0,.135-.406A.058.058,0,0,1,86.362,184.345Z" transform="translate(-80.691 -179.021)" fill="#f5f5f5"/>
    <path id="Path_26932" data-name="Path 26932" d="M86.362,215l.135.406.428,0a.058.058,0,0,1,.034.1l-.344.254.129.408a.058.058,0,0,1-.088.064l-.348-.249-.348.249a.058.058,0,0,1-.088-.064l.129-.408-.344-.254a.058.058,0,0,1,.034-.1l.428,0,.135-.406A.058.058,0,0,1,86.362,215Z" transform="translate(-80.691 -207.554)" fill="#f5f5f5"/>
    <path id="Path_26933" data-name="Path 26933" d="M110.154,108.007l.135.406.428,0a.058.058,0,0,1,.034.1l-.344.254.129.408a.058.058,0,0,1-.088.064L110.1,109l-.348.249a.058.058,0,0,1-.088-.064l.129-.408-.344-.254a.058.058,0,0,1,.034-.1l.428,0,.135-.406A.058.058,0,0,1,110.154,108.007Z" transform="translate(-102.836 -107.968)" fill="#f5f5f5"/>
    <path id="Path_26934" data-name="Path 26934" d="M110.154,138.662l.135.406.428,0a.058.058,0,0,1,.034.1l-.344.254.129.408a.058.058,0,0,1-.088.064l-.348-.249-.348.249a.058.058,0,0,1-.088-.064l.129-.408-.344-.254a.058.058,0,0,1,.034-.1l.428,0,.135-.406A.058.058,0,0,1,110.154,138.662Z" transform="translate(-102.836 -136.5)" fill="#f5f5f5"/>
    <path id="Path_26935" data-name="Path 26935" d="M110.154,169.316l.135.406.428,0a.058.058,0,0,1,.034.1l-.344.254.129.408a.058.058,0,0,1-.088.064l-.348-.249-.348.249a.058.058,0,0,1-.088-.064l.129-.408-.344-.254a.058.058,0,0,1,.034-.1l.428,0,.135-.406A.058.058,0,0,1,110.154,169.316Z" transform="translate(-102.836 -165.033)" fill="#f5f5f5"/>
    <path id="Path_26936" data-name="Path 26936" d="M110.154,199.97l.135.406.428,0a.058.058,0,0,1,.034.1l-.344.254.129.408a.058.058,0,0,1-.088.064l-.348-.249-.348.249a.058.058,0,0,1-.088-.064l.129-.408-.344-.254a.058.058,0,0,1,.034-.1l.428,0,.135-.406A.058.058,0,0,1,110.154,199.97Z" transform="translate(-102.836 -193.565)" fill="#f5f5f5"/>
    <path id="Path_26937" data-name="Path 26937" d="M110.154,230.625l.135.406.428,0a.058.058,0,0,1,.034.1l-.344.254.129.408a.058.058,0,0,1-.088.064l-.348-.249-.348.249a.058.058,0,0,1-.088-.064l.129-.408-.344-.254a.058.058,0,0,1,.034-.1l.428,0,.135-.406A.058.058,0,0,1,110.154,230.625Z" transform="translate(-102.836 -222.097)" fill="#f5f5f5"/>
    <path id="Path_26938" data-name="Path 26938" d="M133.948,123.037l.135.406.428,0a.058.058,0,0,1,.034.1l-.344.254.129.408a.058.058,0,0,1-.088.064l-.348-.249-.348.249a.058.058,0,0,1-.088-.064l.129-.408-.344-.254a.058.058,0,0,1,.034-.1l.428,0,.135-.406A.058.058,0,0,1,133.948,123.037Z" transform="translate(-124.983 -121.957)" fill="#f5f5f5"/>
    <path id="Path_26939" data-name="Path 26939" d="M133.948,153.691l.135.406.428,0a.058.058,0,0,1,.034.1l-.344.254.129.408a.058.058,0,0,1-.088.064l-.348-.249-.348.249a.058.058,0,0,1-.088-.064l.129-.408-.344-.254a.058.058,0,0,1,.034-.1l.428,0,.135-.406A.058.058,0,0,1,133.948,153.691Z" transform="translate(-124.983 -150.489)" fill="#f5f5f5"/>
    <path id="Path_26940" data-name="Path 26940" d="M133.948,184.345l.135.406.428,0a.058.058,0,0,1,.034.1l-.344.254.129.408a.058.058,0,0,1-.088.064l-.348-.249-.348.249a.058.058,0,0,1-.088-.064l.129-.408-.344-.254a.058.058,0,0,1,.034-.1l.428,0,.135-.406A.058.058,0,0,1,133.948,184.345Z" transform="translate(-124.983 -179.021)" fill="#f5f5f5"/>
    <path id="Path_26941" data-name="Path 26941" d="M133.948,215l.135.406.428,0a.058.058,0,0,1,.034.1l-.344.254.129.408a.058.058,0,0,1-.088.064l-.348-.249-.348.249a.058.058,0,0,1-.088-.064l.129-.408-.344-.254a.058.058,0,0,1,.034-.1l.428,0,.135-.406A.058.058,0,0,1,133.948,215Z" transform="translate(-124.983 -207.554)" fill="#f5f5f5"/>
    <path id="Path_26942" data-name="Path 26942" d="M157.742,108.007l.135.406.428,0a.058.058,0,0,1,.034.1l-.344.254.129.408a.058.058,0,0,1-.088.064l-.348-.249-.348.249a.058.058,0,0,1-.088-.064l.129-.408-.344-.254a.058.058,0,0,1,.034-.1l.428,0,.135-.406A.058.058,0,0,1,157.742,108.007Z" transform="translate(-147.13 -107.968)" fill="#f5f5f5"/>
    <path id="Path_26943" data-name="Path 26943" d="M157.742,138.662l.135.406.428,0a.058.058,0,0,1,.034.1l-.344.254.129.408a.058.058,0,0,1-.088.064l-.348-.249-.348.249a.058.058,0,0,1-.088-.064l.129-.408-.344-.254a.058.058,0,0,1,.034-.1l.428,0,.135-.406A.058.058,0,0,1,157.742,138.662Z" transform="translate(-147.13 -136.5)" fill="#f5f5f5"/>
    <path id="Path_26944" data-name="Path 26944" d="M157.742,169.316l.135.406.428,0a.058.058,0,0,1,.034.1l-.344.254.129.408a.058.058,0,0,1-.088.064l-.348-.249-.348.249a.058.058,0,0,1-.088-.064l.129-.408-.344-.254a.058.058,0,0,1,.034-.1l.428,0,.135-.406A.058.058,0,0,1,157.742,169.316Z" transform="translate(-147.13 -165.033)" fill="#f5f5f5"/>
    <path id="Path_26945" data-name="Path 26945" d="M157.742,199.97l.135.406.428,0a.058.058,0,0,1,.034.1l-.344.254.129.408a.058.058,0,0,1-.088.064l-.348-.249-.348.249a.058.058,0,0,1-.088-.064l.129-.408-.344-.254a.058.058,0,0,1,.034-.1l.428,0,.135-.406A.058.058,0,0,1,157.742,199.97Z" transform="translate(-147.13 -193.565)" fill="#f5f5f5"/>
    <path id="Path_26946" data-name="Path 26946" d="M157.742,230.625l.135.406.428,0a.058.058,0,0,1,.034.1l-.344.254.129.408a.058.058,0,0,1-.088.064l-.348-.249-.348.249a.058.058,0,0,1-.088-.064l.129-.408-.344-.254a.058.058,0,0,1,.034-.1l.428,0,.135-.406A.058.058,0,0,1,157.742,230.625Z" transform="translate(-147.13 -222.097)" fill="#f5f5f5"/>
    <path id="Path_26947" data-name="Path 26947" d="M181.535,123.037l.135.406.428,0a.058.058,0,0,1,.034.1l-.344.254.129.408a.058.058,0,0,1-.088.064l-.348-.249-.348.249a.058.058,0,0,1-.088-.064l.129-.408-.344-.254a.058.058,0,0,1,.034-.1l.428,0,.135-.406A.058.058,0,0,1,181.535,123.037Z" transform="translate(-169.276 -121.957)" fill="#f5f5f5"/>
    <path id="Path_26948" data-name="Path 26948" d="M181.535,153.691l.135.406.428,0a.058.058,0,0,1,.034.1l-.344.254.129.408a.058.058,0,0,1-.088.064l-.348-.249-.348.249a.058.058,0,0,1-.088-.064l.129-.408-.344-.254a.058.058,0,0,1,.034-.1l.428,0,.135-.406A.058.058,0,0,1,181.535,153.691Z" transform="translate(-169.276 -150.489)" fill="#f5f5f5"/>
    <path id="Path_26949" data-name="Path 26949" d="M181.535,184.345l.135.406.428,0a.058.058,0,0,1,.034.1l-.344.254.129.408a.058.058,0,0,1-.088.064l-.348-.249-.348.249a.058.058,0,0,1-.088-.064l.129-.408-.344-.254a.058.058,0,0,1,.034-.1l.428,0,.135-.406A.058.058,0,0,1,181.535,184.345Z" transform="translate(-169.276 -179.021)" fill="#f5f5f5"/>
    <path id="Path_26950" data-name="Path 26950" d="M181.535,215l.135.406.428,0a.058.058,0,0,1,.034.1l-.344.254.129.408a.058.058,0,0,1-.088.064l-.348-.249-.348.249a.058.058,0,0,1-.088-.064l.129-.408-.344-.254a.058.058,0,0,1,.034-.1l.428,0,.135-.406A.058.058,0,0,1,181.535,215Z" transform="translate(-169.276 -207.554)" fill="#f5f5f5"/>
    <path id="Path_26951" data-name="Path 26951" d="M205.329,108.007l.135.406.428,0a.058.058,0,0,1,.034.1l-.344.254.129.408a.058.058,0,0,1-.088.064l-.348-.249-.348.249a.058.058,0,0,1-.088-.064l.129-.408-.344-.254a.058.058,0,0,1,.034-.1l.428,0,.135-.406A.058.058,0,0,1,205.329,108.007Z" transform="translate(-191.423 -107.968)" fill="#f5f5f5"/>
    <path id="Path_26952" data-name="Path 26952" d="M205.329,138.662l.135.406.428,0a.058.058,0,0,1,.034.1l-.344.254.129.408a.058.058,0,0,1-.088.064l-.348-.249-.348.249a.058.058,0,0,1-.088-.064l.129-.408-.344-.254a.058.058,0,0,1,.034-.1l.428,0,.135-.406A.058.058,0,0,1,205.329,138.662Z" transform="translate(-191.423 -136.5)" fill="#f5f5f5"/>
    <path id="Path_26953" data-name="Path 26953" d="M205.329,169.316l.135.406.428,0a.058.058,0,0,1,.034.1l-.344.254.129.408a.058.058,0,0,1-.088.064l-.348-.249-.348.249a.058.058,0,0,1-.088-.064l.129-.408-.344-.254a.058.058,0,0,1,.034-.1l.428,0,.135-.406A.058.058,0,0,1,205.329,169.316Z" transform="translate(-191.423 -165.033)" fill="#f5f5f5"/>
    <path id="Path_26954" data-name="Path 26954" d="M205.329,199.97l.135.406.428,0a.058.058,0,0,1,.034.1l-.344.254.129.408a.058.058,0,0,1-.088.064l-.348-.249-.348.249a.058.058,0,0,1-.088-.064l.129-.408-.344-.254a.058.058,0,0,1,.034-.1l.428,0,.135-.406A.058.058,0,0,1,205.329,199.97Z" transform="translate(-191.423 -193.565)" fill="#f5f5f5"/>
    <path id="Path_26955" data-name="Path 26955" d="M205.329,230.625l.135.406.428,0a.058.058,0,0,1,.034.1l-.344.254.129.408a.058.058,0,0,1-.088.064l-.348-.249-.348.249a.058.058,0,0,1-.088-.064l.129-.408-.344-.254a.058.058,0,0,1,.034-.1l.428,0,.135-.406A.058.058,0,0,1,205.329,230.625Z" transform="translate(-191.423 -222.097)" fill="#f5f5f5"/>
  </g>
</svg>
