<svg xmlns="http://www.w3.org/2000/svg" width="258.401" height="81.479" viewBox="0 0 258.401 81.479">
  <g id="Group_18095" data-name="Group 18095" transform="translate(-983.433 -13)">
    <g id="Group_18176" data-name="Group 18176" transform="translate(1160.349 13)">
      <path id="Path_1" data-name="Path 1" d="M203.075,0h81.341V81.479H202.937V.416C202.925.219,202.914.023,203.075,0Zm10.947,14.55a39.34,39.34,0,0,0-9.7,29.516,37.1,37.1,0,0,0,13.164,26.189,38.961,38.961,0,0,0,29.377,9.839,37.9,37.9,0,0,0,26.328-13.025,39,39,0,0,0,9.977-29.516A38.233,38.233,0,0,0,270,11.363a38.85,38.85,0,0,0-29.516-9.977A38.35,38.35,0,0,0,214.022,14.55Z" transform="translate(-202.931)" fill="none"/>
      <path id="Path_2" data-name="Path 2" d="M252.083,13.013A38.85,38.85,0,0,1,281.6,22.991a38.233,38.233,0,0,1,13.164,26.19A39,39,0,0,1,284.786,78.7a37.9,37.9,0,0,1-26.328,13.025,38.961,38.961,0,0,1-29.377-9.839,37.1,37.1,0,0,1-13.164-26.189,39.34,39.34,0,0,1,9.7-29.516A38.35,38.35,0,0,1,252.083,13.013Zm-14.273,6.513A39.2,39.2,0,0,0,227.418,27.7c-5.7,6.3-10.114,15.321-9.146,27.714A35.353,35.353,0,0,0,230.6,80.082a36.528,36.528,0,0,0,27.575,9.284,35.642,35.642,0,0,0,24.8-12.194,36.86,36.86,0,0,0,9.422-27.714,35.629,35.629,0,0,0-12.332-24.666,36.508,36.508,0,0,0-27.714-9.423A37.065,37.065,0,0,0,237.811,19.526Z" transform="translate(-214.525 -11.628)" fill="#008738"/>
      <path id="Path_3" data-name="Path 3" d="M274.285,37.407A36.508,36.508,0,0,1,302,46.829,35.629,35.629,0,0,1,314.331,71.5a36.86,36.86,0,0,1-9.422,27.714A35.642,35.642,0,0,1,280.1,111.4a36.528,36.528,0,0,1-27.575-9.284A35.352,35.352,0,0,1,240.2,77.454c-.969-12.393,3.443-21.41,9.146-27.714a39.2,39.2,0,0,1,10.393-8.175A37.064,37.064,0,0,1,274.285,37.407Zm1.524,3.048c-.395-.712-2.16-.446-2.633,0,.557.831,1.919,1.59,1.8,2.633-.98-.867-1.529-2.166-3.6-1.94.5,1.4,2.64,1.885,3.048,2.91-1.027-.554-2.794-1.811-4.3-.97.7.92,2.315.918,3.187,1.663-1.836-.4-3.7.1-4.434,1.247.617.343,1.923-.446,2.356-.277-.114.944-2.152,1.724-.97,2.633.933-.961,1.728-2.06,3.187-2.494-.671.807-1.962.994-1.94,2.494.515.053.363-.562.97-.416v1.386c.321.312.454-.74,1.108-.554v1.386c1.037-.3.8-1.876,1.524-2.494-.087,1.167-.507,2.489,0,3.464,2.364-.065.464,3.124,1.247,4.3-.7.912.215,3.449-.693,4.157a8,8,0,0,0-2.078.277A1.575,1.575,0,0,0,274.7,61.1a1.473,1.473,0,0,1,2.078.139c.52.1.3-.529.693-.555.436.146.585.578,1.108.277.281-.089.091-.648.416-.693.878.246,1.53.01,1.525-.97a10.4,10.4,0,0,1-2.494-.138c-.353-2.695-.7-5.4-.97-8.176a1.176,1.176,0,0,1,.831.139c.179-1.336-.464-2.583-.415-3.326.142.736.81.946,1.247,1.386,0,.7.2,1.185.97,1.109-.127-1.489-1.037-2.2-1.524-3.326,1.18.4,1.858,2.006,2.91,2.079-.077-1.494-1.543-1.6-1.94-2.772.842.729,2.347.794,3.464,1.247-.026-1.036-1.211-.913-1.385-1.8.752-.105,1.122.171,1.8.139-.253-1.874-3.929-.836-5.127-.97,1.215-.725,3.042-.837,4.573-1.247-.13-.747-1.248-.507-1.8-.832-.093-.6.7-.319.555-.97-1.934-.79-2.815,1.315-3.742,1.524-.041-1.2,1.248-1.062,1.386-2.078a2.151,2.151,0,0,0,1.108-.277c-.273-1.056-1.187-.464-1.94-.277.067-.436-.2-.542-.277-.832A2.085,2.085,0,0,0,275.809,40.455Zm29.238,43.1a9.106,9.106,0,0,1,.277-1.247,17.543,17.543,0,0,0,5.82-5.266c-1.961.857-3.542,2.832-5.127,3.6.745-3.089,4.682-3.725,4.988-6.79-1.637,1.088-2.973,3.216-4.434,4.019.256-3.578,4.035-4.37,4.019-7.76-1.348,1.332-2.147,3.211-3.6,4.434-.359-4.007,3.049-4.987,3.049-8.175-1.235,1.213-1.8,3.1-3.049,4.3-1.154-3.715,2.48-5.228,1.94-8.73-1.005,1.351-1.332,3.38-2.356,4.711-1.552-2.7,1.263-4.735.831-8.037-1.165.867-.9,3.165-1.8,4.3-1.641-1.934.39-4.422.139-7.067-1.438.317-.756,2.754-1.385,3.88-2.078-1.438-.063-4.423-.693-7.067-.968.65-.466,2.768-.97,3.88-1.7-.935-.117-5.148-1.524-6.374-.083,1.5.023,2.486,0,4.157-1.908-1-.8-5.024-2.356-6.374-.107,1.585.512,2.444.416,4.019-2.247-.8-1.5-4.6-3.187-5.959.027,1.451.66,2.3.831,3.6-2.359-.69-2.179-3.918-3.741-5.4-.074,1.323,1.074,2.157.832,3.187-2.358-.506-2.094-3.633-4.019-4.573.134,1.3,1.134,1.73,1.386,2.91-1.921-.435-3.037-2.413-5.4-1.94,1.916,1.41,5.243,1.409,6.513,3.464-1.09.111-2.706-.3-3.187.416,2.229.355,5.134-.867,5.82,1.386-1.018.183-2.822-.419-3.187.416,2.307.049,5.5-.051,5.543,1.8-1.261,0-2.9-.654-3.742.139,2.1.714,5.784-.149,5.959,2.494-1.008-.073-2.71-.868-3.464-.277,1.8.933,5.685.5,5.4,3.048-1.362-.254-2.256-.977-3.88-.97,1.39,1.658,5.452.645,5.4,3.741-1.31-.4-2.568-1.588-4.157-1.247,1.45,1.506,5.51,1.14,5.127,4.019-1.5-.534-2.429-1.635-4.157-1.94,1.2,2.125,5.635,1.755,5.127,5.127-1.434-.6-2.282-1.783-4.018-2.079,1.033,2.155,5.348,1.765,4.435,5.4-.982-.635-1.551-1.682-2.772-2.079.361,2.4,4.114,2.026,3.049,5.4-.813-.489-1.511-1.67-2.356-2.356-.387-.315-1.23-.89-1.524-.693.767,2.392,5.283,3.131,3.464,6.374-1.165-1.514-2.118-3.24-3.742-4.3a13.311,13.311,0,0,0,2.494,4.157c.432.5,1.111.786,1.247,1.386a2.59,2.59,0,0,1-.693,2.356c-1.279-1.631-1.693-4.127-3.464-5.266-.019,3.023,4.615,5.738,2.633,8.176-1.225-1.685-1.632-4.188-3.187-5.543.026,3.252,3.912,5.4,2.078,8.315-1.3-1.7-1.378-4.627-3.048-5.959.461,2.726,1.655,4.719,2.494,7.067-.471.637-.567,1.65-1.524,1.8a17.853,17.853,0,0,0-1.8-6.79c-.656,3.741,3.192,7.787-.139,9.562-.381-2.529.051-5.871-1.247-7.483-.417,2.925.417,5.762.692,8.453-.623.578-.974,1.428-1.94,1.663-.07-2.279.321-5.185-.277-7.483-1.115,1.918-.833,5.7-.416,8.037a4.016,4.016,0,0,1-2.494,1.94c.4-2.507,1.4-5.161.832-8.176-.965,2.591-1.154,5.96-1.663,9.007-.686.178-1.327,1.031-2.079.692.776-2.365,1.928-5.092,1.663-8.037a25.689,25.689,0,0,0-2.356,8.591,3.549,3.549,0,0,1-2.494.97c.831-2.218,2.149-4.686,1.94-7.483a22.748,22.748,0,0,0-2.771,7.76c-3.976,2.063-11.49,2.027-16.213.693-.886-2.855-1.771-5.712-3.464-7.76,0,3.19,1.6,4.777,2.217,7.344a3.346,3.346,0,0,1-2.217-.97c-.675-2.974-1.443-5.855-3.049-7.9-.243,2.791,1.548,5.465,1.94,7.621-.67-.39-1.633-.39-2.078-1.108-.346-.558-.045-.94-.139-1.663a26.35,26.35,0,0,0-2.217-6.929c-.224,3.277,1.271,5.56,1.385,8.037a6.1,6.1,0,0,1-2.217-1.524c-.01-3.177-.113-6.261-1.247-8.314-.2,2.646.276,5.359.138,7.483-3-.8-.376-6.493-1.524-9.562-1.392,1.431-.507,5.051-.832,7.206-3.216-1.344.462-6.186-.97-9.561-.729,2-.79,4.661-1.247,6.929-2.607-1.891,1.11-5.748.277-8.869-1.144,1.627-1.42,4.123-2.079,6.236-2.5-2.367,1.817-5.427,1.109-8.591-1.267,1.6-1.73,4-2.633,5.959-1.762-2.971,2.118-5.157,2.217-8.453-1.784,1.172-1.972,3.94-3.464,5.4-1.23-3.35,2.522-4.832,2.771-8.037-1.708,1.11-2.3,3.335-3.6,4.85a7.322,7.322,0,0,1-.416-2.494c1.461-1.5,3.09-2.823,3.88-4.989-1.727.814-2.69,2.391-3.88,3.742-.985-3.377,3.438-3.649,4.018-6.374-2.029.419-2.51,2.387-4.157,3.187-.637-3.551,3.672-3.346,4.434-5.958-1.972.291-2.487,2.039-4.157,2.633a2.8,2.8,0,0,1,.277-1.94c1.043-1.577,4.715-1.926,4.573-3.6-1.6.434-2.4,1.667-4.019,2.078a4.927,4.927,0,0,1,.277-1.663c.719-.35,1.7-.916,2.633-1.386.866-.435,2.319-.77,2.079-1.524-1.587.178-2.779,1.458-4.019,1.524.354-2.787,4.433-1.848,5.543-3.88-1.8.01-3.06,1.269-4.434,1.247.262-2.878,4.389-1.893,5.82-3.6-1.412-.012-2.54.951-3.88.554.387-2.569,4.5-1.408,5.958-2.91-1.562-.253-2.749.555-3.88.277.273-2.5,4.314-1.229,5.958-2.356-.883-.436-2.61.137-3.326-.139.517-2.1,3.7-.676,5.682-1.247-.428-.912-2.22-.46-3.187-.831,1.288-1.807,4.466-1.724,5.82-3.464-2.1-.017-3.05,1.845-4.712,1.8.083-.935,1.027-1.741.693-2.633-1.107,1.619-1.658,4.531-3.741,4.711.116-.81.84-1.743.416-2.633-1.116,1.61-1.058,5.131-3.187,5.266.233-1.337.847-2.294.97-3.741-1.933,1.023-1.085,5.566-3.048,6.1.024-1.408.549-2.315.415-3.88-1.721,1.282-.173,5.832-2.494,6.513.049-1.414.668-3.21-.139-4.3-.968,1.711.373,6.47-1.386,6.929-.22-1.4.054-3.287-.693-4.157-1.157,2.523,1.295,6.355-.97,7.622a9.983,9.983,0,0,0-.831-4.85c-.632,3.405,1.58,6.055,0,8.314-.541-1.677-.618-3.816-1.663-4.989-.565,3.607,2.28,5.148,1.109,8.453-1.019-1.475-1.1-3.89-2.633-4.85-.106,3.571,2.938,4.729,2.356,8.314-1.346-1.24-1.547-3.626-3.464-4.3.351,3.437,4.095,4.219,3.6,8.037-1.381-1.345-2.2-3.255-4.019-4.157.667,3.271,4.506,4.123,4.712,7.621-1.755-1.109-2.673-3.055-4.712-3.88a9.279,9.279,0,0,0,2.217,3.187c1.182,1.045,3.407,1.58,3.187,3.6-1.675-1-3-3.1-5.127-3.187,1.469,2.735,5.583,2.823,6.513,6.1-2.02-.936-3.326-2.587-5.82-3.049,1.444,2.852,6.444,2.886,7.206,5.959-2-.772-3.8-2.482-6.236-2.356,1.917,2.425,6.543,2.142,8.037,4.988-2.044-.589-4.075-1.928-6.651-1.524a17.768,17.768,0,0,0,7.483,2.494c.469.546,1.251.78,1.386,1.663-2.207-.436-4.54-1.295-7.067-.97,2.3,2.5,9,.606,10.393,4.019-2.425-.215-5.548-1.028-7.9-.416,2.324,2.445,9.662-.067,11.085,2.633-2.49.42-6.056-.236-7.76.97,4.01,1.683,9.341-1.575,12.056,1.109-2.622.8-6.265.572-8.314,1.94a19.917,19.917,0,0,0,3.326.138c3.546-.185,6.754-2.244,8.73-.831-2.362,1.1-4.729,2.2-6.374,4.018a10.41,10.41,0,0,0,3.742,1.524c2.837-2.611,6.711-5.147,11.917-4.988,4.384.134,7.578,2.477,10.254,4.434,1.084-.672,2.662-.849,3.464-1.8-1.459-2.051-4.7-2.32-6.651-3.88,3.271-1.632,7.633,1.53,11.917.139-2.1-1.133-5.628-.838-8.176-1.525,2.081-2.8,8.046.556,11.363-1.524-2.249-.477-5.108-.342-7.344-.832,1.536-2.74,8.3-.591,10.531-2.909-2.635-.228-5.139.4-7.205.277.674-1.8,2.4-1.588,4.573-1.94a15.675,15.675,0,0,0,5.4-2.217c-2.485-.3-4.937,1.328-7.205,1.247,1.33-3.059,6.967-1.809,8.453-4.712-2.528.151-4.244,1.853-6.374,1.94,1.375-3.106,6.26-2.7,7.9-5.543-2.314.6-4.4,2.156-6.236,2.772-.048-.742.385-1,.555-1.525,2.428-.99,4.986-2.589,6.1-4.434C308.453,81.229,306.716,82.956,305.047,83.551Zm-28.268-19.4c-2.849-2.318-8.369-6.607-13.025-4.3,5.3.566,9.181,2.551,11.917,5.682a7.923,7.923,0,0,1-2.078,1.8c-.359-.149-.324-.692-.97-.554-.413.66.374.657.416,1.247-1.043,1.19-2.939-.7-3.88.416v1.109c1.163,1.389,3.617.54,4.85-.278.6.005.465.736,1.247.554.538-.721-.79-.862-.416-1.385a4.55,4.55,0,0,1,2.078-1.94,8.561,8.561,0,0,1,2.217,2.079c-.2.354-.758.351-.554,1.109,1.507-.957,2.432.706,4.573.416.925-.125,2.134-.749,1.94-1.663-.339-1.6-2.856.624-4.019-.693-.058-.566.456-.56.277-1.247-.922-.276-.483.81-1.247.693a3.522,3.522,0,0,1-2.078-1.94c2.883-3.491,7.127-5.622,12.61-6.513C284.143,57.131,280.382,61.525,276.778,64.151ZM255.3,74.267c2.078,9.695,9.266,17.011,20.093,17.737,13.506.905,21.505-7.623,23.834-18.153h-6.79c-1.934,7.089-7.868,12.3-17.044,11.5-7.067-.616-11.777-5.327-13.441-11.5H255.3C255.064,73.908,255.329,74.029,255.3,74.267Zm8.037,0a13.312,13.312,0,0,0,3.187,5.681c7.433,7.513,22.822,4.3,24.665-6.1h-6.374a8.934,8.934,0,0,1-7.76,4.435c-3.636-.052-5.923-2.222-7.621-4.435H263.2A.652.652,0,0,0,263.337,74.267Z" transform="translate(-236.448 -33.665)" fill="none"/>
      <g id="Group_1" data-name="Group 1" transform="translate(27.305 6.185)">
        <path id="Path_4" data-name="Path 4" d="M545.062,63.61c.079.29.343.4.277.832.753-.186,1.667-.779,1.94.277A2.151,2.151,0,0,1,546.17,65c-.138,1.017-1.427.882-1.386,2.078.926-.209,1.808-2.314,3.742-1.524.143.651-.647.369-.555.97.554.325,1.671.085,1.8.832-1.53.41-3.358.522-4.573,1.247,1.2.134,4.874-.9,5.127.97-.679.032-1.049-.244-1.8-.139.174.888,1.359.765,1.385,1.8-1.117-.453-2.622-.518-3.464-1.247.4,1.173,1.863,1.278,1.94,2.772-1.052-.072-1.73-1.676-2.91-2.079.487,1.129,1.4,1.837,1.524,3.326-.77.077-.972-.413-.97-1.109-.438-.44-1.105-.65-1.247-1.386-.048.743.595,1.99.416,3.326a1.175,1.175,0,0,0-.831-.139c.273,2.775.616,5.481.97,8.176a10.4,10.4,0,0,0,2.495.138c.006.981-.647,1.216-1.525.97-.324.045-.134.6-.416.693-.524.3-.673-.131-1.109-.277-.391.025-.172.659-.693.554a1.473,1.473,0,0,0-2.078-.139,1.575,1.575,0,0,1-1.109-1.247,8,8,0,0,1,2.078-.277c.908-.708-.012-3.245.693-4.157-.783-1.172,1.117-4.36-1.247-4.3-.508-.975-.087-2.3,0-3.464-.721.618-.487,2.192-1.524,2.494V72.479c-.655-.186-.788.866-1.109.554V71.648c-.608-.146-.456.469-.97.416-.022-1.5,1.269-1.687,1.94-2.494-1.46.434-2.255,1.533-3.187,2.494-1.181-.909.856-1.689.97-2.633-.433-.169-1.738.62-2.356.277.729-1.143,2.6-1.645,4.434-1.247-.872-.745-2.49-.743-3.187-1.663,1.5-.841,3.269.416,4.3.97-.408-1.025-2.553-1.511-3.048-2.91,2.074-.226,2.622,1.072,3.6,1.94.118-1.043-1.245-1.8-1.8-2.633.474-.446,2.238-.712,2.633,0A2.085,2.085,0,0,1,545.062,63.61Z" transform="translate(-531.066 -63.56)" fill="#28924f"/>
        <path id="Path_5" data-name="Path 5" d="M510.39,254.506c-5.483.891-9.727,3.022-12.61,6.513a3.522,3.522,0,0,0,2.078,1.94c.764.117.325-.969,1.247-.693.179.687-.335.681-.277,1.247,1.162,1.317,3.679-.9,4.019.693.194.914-1.016,1.538-1.94,1.663-2.141.29-3.066-1.372-4.573-.416-.2-.758.353-.755.554-1.109a8.561,8.561,0,0,0-2.217-2.079,4.55,4.55,0,0,0-2.078,1.94c-.374.524.953.664.416,1.385-.783.182-.652-.549-1.247-.554-1.234.818-3.687,1.667-4.85.278v-1.109c.942-1.112,2.837.774,3.88-.416-.042-.59-.829-.587-.416-1.247.646-.138.611.405.97.554a7.922,7.922,0,0,0,2.078-1.8c-2.736-3.13-6.617-5.115-11.917-5.682,4.657-2.311,10.177,1.977,13.025,4.3C500.137,257.285,503.9,252.891,510.39,254.506Zm-12.332,8.037a1.334,1.334,0,0,0-1.109-.97C497.081,262.134,497.593,262.315,498.058,262.543Zm4.157,2.633c.6-.276,1.634-.121,1.8-.831C503.6,263.808,502.441,264.632,502.215,265.176Zm-12.749-.139c.464-.4,1.572.21,1.663-.277C490.629,264.46,489.068,263.967,489.466,265.038Z" transform="translate(-483.508 -235.611)" fill="#28924f"/>
      </g>
      <path id="Path_6" data-name="Path 6" d="M621.625,330.352a1.334,1.334,0,0,1,1.109.97C622.27,331.093,621.758,330.912,621.625,330.352Z" transform="translate(-580.88 -298.204)" fill="#fff"/>
      <path id="Path_7" data-name="Path 7" d="M677.536,357.211c-.167.71-1.2.556-1.8.831C675.962,357.5,677.122,356.673,677.536,357.211Z" transform="translate(-629.724 -322.291)" fill="#fff"/>
      <path id="Path_8" data-name="Path 8" d="M545.8,359.587c-.091.487-1.2-.122-1.664.277C543.737,358.793,545.3,359.286,545.8,359.587Z" transform="translate(-510.873 -324.252)" fill="#fff"/>
      <path id="Path_9" data-name="Path 9" d="M477.81,412.936h6.236c1.7,2.213,3.986,4.383,7.621,4.435a8.934,8.934,0,0,0,7.76-4.435H505.8c-1.843,10.395-17.232,13.611-24.665,6.1a13.312,13.312,0,0,1-3.187-5.681A.652.652,0,0,1,477.81,412.936Zm5.543,2.218h.693v-.693c-.4-.017-.658-.174-.554-.693-.392.114-.359-.2-.693-.139C482.512,414.608,483.551,414.262,483.352,415.154Zm18.014-1.247a1.167,1.167,0,0,0,.97,1.385c.517.147.448-.292.693-.416.483.649-.29,1.531,0,1.94C504.687,415.8,503.264,413.257,501.366,413.906Zm-20.786,2.217c.558.089,1.473-.18,1.8.139-.008.454-.394.53-.277,1.109,1.322,1.126,2.28,2.616,4.435,2.91.378.875,1.792.956,2.91.693.665.213,1.265.4,1.385-.416-1.13.015-2.43-2.365-3.187-.554a1.321,1.321,0,0,1,1.109.415c-2.237.013-1.39-1.592-.832-2.909-1.084.117-.8,1.6-1.524,2.078-.384-.489-1.723-.463-1.247-1.386-1.172.317-1.573-.776-2.217-1.385-.015-.43.436-.4.277-.97-.529-.531-1.627.121-1.94-.416.014-.632.728-.565.831-1.108C481.28,414.575,480.271,415.175,480.581,416.123Zm18.984-1.524v.692h.693c-.084-.285.223-.963-.277-.831C499.957,414.622,499.762,414.611,499.565,414.6Zm1.663,3.048c-.26-1.31-1.436-1.705-2.356-2.356C499.054,416.681,500.432,416.873,501.228,417.648Zm-.693-2.217c-.065.435.373.366.416.693.325-.044.52-.219.97-.139a2.578,2.578,0,0,1-.277,2.079C503.693,417.789,502.42,414.511,500.535,415.43Zm-4.018,2.495c.938.245.591-.794,1.525-.554v-.693h-.693C497.442,417.465,496.3,417.018,496.516,417.925Zm2.772-.139c.392.024.951-.119.97.277.148.933-.347,1.223-.554,1.8a2.766,2.766,0,0,0,1.247-.692c.081-1.42-.55-2.13-1.8-2.218C498.844,417.247,499.327,417.365,499.288,417.786Zm-2.218,2.91a4.867,4.867,0,0,0-1.109-3.049A3.407,3.407,0,0,0,497.07,420.7Zm.832-.832c1.139.1,1.352-.744,1.109-1.663a1.78,1.78,0,0,0-1.247-.416A2.6,2.6,0,0,0,497.9,419.865Zm-2.356.416c-.619.12-1.134.343-1.8.416-.292-.494-.288-1.282-.693-1.663-.422.568-.1.966,0,1.663-.266.225-1.16.239-1.247-.139a1.083,1.083,0,0,0,0,1.109c1.742-.289,2.663-.055,4.3-.693.233-1.28-.772-1.638-.415-2.633-.523.061-.651-.274-.97-.416C494.238,419,495.492,419.3,495.546,420.281Zm-6.929-1.94c-.073.773.6.76.97.415C489.584,418.178,489.049,418.132,488.618,418.341Zm2.495,3.326c.487-.458.7-2.6.138-3.187C490.742,419.113,490.92,420.622,491.112,421.666ZM483.491,420c.414-.624-.648-.778-.693-1.385H482.1C482.378,419.269,482.66,419.91,483.491,420Z" transform="translate(-451.059 -372.751)" fill="#28924f"/>
      <path id="Path_10" data-name="Path 10" d="M528.607,419.994c.334-.056.3.253.693.139-.1.519.156.675.554.693v.693h-.693C529.361,420.626,528.321,420.973,528.607,419.994Z" transform="translate(-496.869 -379.116)" fill="#fff"/>
      <path id="Path_11" data-name="Path 11" d="M446.485,424.268c.334-.057.3.253.693.138-.165.765.442.76.277,1.525C446.522,425.986,446.605,425.025,446.485,424.268Z" transform="translate(-422.783 -382.974)" fill="#fff"/>
      <path id="Path_12" data-name="Path 12" d="M788.226,425.753c1.128.212,2.4.277,3.049.97C790.345,426.866,788.546,426.682,788.226,425.753Z" transform="translate(-731.268 -384.321)" fill="#fff"/>
      <path id="Path_13" data-name="Path 13" d="M507.284,427.179c-.1.544-.817.476-.831,1.108.312.536,1.411-.115,1.94.416.159.575-.291.54-.277.97.644.609,1.045,1.7,2.217,1.385-.476.923.863.9,1.247,1.386.722-.479.44-1.962,1.524-2.078-.558,1.318-1.405,2.922.832,2.909a1.321,1.321,0,0,0-1.108-.416c.757-1.811,2.057.569,3.187.554-.12.821-.72.629-1.385.416-1.118.263-2.532.182-2.91-.693-2.155-.294-3.112-1.784-4.435-2.91-.117-.579.269-.655.277-1.109-.328-.319-1.244-.05-1.8-.139C505.45,428.032,506.459,427.432,507.284,427.179Z" transform="translate(-476.238 -385.608)" fill="#fff"/>
      <path id="Path_14" data-name="Path 14" d="M421.231,428.6c-.179.514-.995.391-1.108.97.406.426,1.38.283,1.8.693.1.6-.249.767-.554.97.21.621.668,1,.832,1.663.227-.327.376-.732,1.109-.554a1.328,1.328,0,0,1-1.524,1.109c-.629-.387-.843-1.189-1.247-1.8-.029-.583.527-.583.554-1.109-.264-.475-1.356-.121-1.663-.554C419.419,428.917,420.375,428.81,421.231,428.6Z" transform="translate(-398.361 -386.893)" fill="#fff"/>
      <path id="Path_15" data-name="Path 15" d="M701.784,428.448c.5-.131.193.546.277.831h-.693v-.692C701.565,428.6,701.76,428.609,701.784,428.448Z" transform="translate(-652.862 -386.738)" fill="#fff"/>
      <path id="Path_16" data-name="Path 16" d="M694.247,437.145c.92.651,2.1,1.045,2.356,2.356C695.807,438.726,694.429,438.534,694.247,437.145Z" transform="translate(-646.434 -394.604)" fill="#fff"/>
      <path id="Path_17" data-name="Path 17" d="M712.38,439.7a2.579,2.579,0,0,0,.277-2.079c-.45-.08-.644.095-.97.139-.043-.327-.481-.258-.416-.693C713.157,436.145,714.43,439.423,712.38,439.7Z" transform="translate(-661.796 -394.385)" fill="#fff"/>
      <path id="Path_18" data-name="Path 18" d="M716.862,438.79c-1.026.7-.7,2.266-1.94,2.494,0,.326.239.408.139.831-.269.285-.432.677-.97.693a.778.778,0,0,1,.139.554,22.658,22.658,0,0,1-5.543,5.266c-.625.117-.692-.324-1.109-.416-.35.481.123,1.786-.554,1.94a2.182,2.182,0,0,1-1.386-1.8c.58.113.4.983,1.109.97.3-.483.072-1.5.554-1.8.379-.363.591.223.97.277,1.518-.652,2.406-1.936,3.6-2.91-1.465.014-1.984,2.173-3.6,2.494a3.637,3.637,0,0,1,.693-3.187c.689.748-.31,1.434-.416,2.217,1.044-.2,2.053-2.976,3.742-2.078a13.5,13.5,0,0,0,1.247-1.525c-.486-.714-1.845-.557-1.94-1.663.841.176,1.222.81,2.078.97.474.059.417-.415.693-.554a2.23,2.23,0,0,1-.416-1.524c.8.1,1.32-.066,1.524-.554-.546-.563-2-.217-2.356-.97.868-.684,1.293-.087,2.079.277C715.913,438.608,716.318,438.139,716.862,438.79Z" transform="translate(-656.717 -395.556)" fill="#fff"/>
      <path id="Path_19" data-name="Path 19" d="M670.622,451.386h.693v.693c-.933-.24-.586.8-1.525.554C669.576,451.726,670.717,452.173,670.622,451.386Z" transform="translate(-624.334 -407.459)" fill="#fff"/>
      <path id="Path_20" data-name="Path 20" d="M696.153,454.23c1.252.088,1.882.8,1.8,2.218a2.766,2.766,0,0,1-1.247.692c.207-.578.7-.868.554-1.8-.019-.4-.578-.254-.97-.277C696.33,454.64,695.847,454.523,696.153,454.23Z" transform="translate(-648.063 -410.026)" fill="#fff"/>
      <path id="Path_21" data-name="Path 21" d="M664.112,461.352a4.867,4.867,0,0,1,1.109,3.049A3.407,3.407,0,0,1,664.112,461.352Z" transform="translate(-619.209 -416.455)" fill="#fff"/>
      <path id="Path_22" data-name="Path 22" d="M681.379,462.734a1.78,1.78,0,0,1,1.247.416c.243.919.03,1.764-1.109,1.663A2.6,2.6,0,0,1,681.379,462.734Zm.693.832h-.554C681.3,464.21,682.234,464.047,682.072,463.566Z" transform="translate(-634.675 -417.699)" fill="#fff"/>
      <path id="Path_23" data-name="Path 23" d="M623.119,464.2c.32.142.447.477.97.416-.357,1,.649,1.353.416,2.633-1.633.637-2.554.4-4.3.693a1.083,1.083,0,0,1,0-1.109c.087.378.981.364,1.247.139-.1-.7-.422-1.094,0-1.663.4.381.4,1.169.693,1.663.667-.072,1.183-.3,1.8-.416C623.9,465.577,622.642,465.278,623.119,464.2Z" transform="translate(-579.464 -419.028)" fill="#fff"/>
      <path id="Path_24" data-name="Path 24" d="M424.991,465.627h.554c.008.685.674.711.554,1.524h-.554C425.537,466.467,424.871,466.44,424.991,465.627Z" transform="translate(-403.368 -420.314)" fill="#fff"/>
      <path id="Path_25" data-name="Path 25" d="M589.8,467.837c-.374.345-1.042.358-.97-.415C589.257,467.213,589.792,467.259,589.8,467.837Z" transform="translate(-551.268 -421.832)" fill="#fff"/>
      <path id="Path_26" data-name="Path 26" d="M612.849,469.9c.559.589.349,2.729-.138,3.187C612.519,472.04,612.341,470.531,612.849,469.9Z" transform="translate(-572.658 -424.169)" fill="#fff"/>
      <path id="Path_27" data-name="Path 27" d="M521.952,471.323h.693c.045.607,1.107.761.693,1.385C522.507,472.615,522.225,471.974,521.952,471.323Z" transform="translate(-490.906 -425.456)" fill="#fff"/>
      <path id="Path_28" data-name="Path 28" d="M683.969,471.323h.554C684.685,471.8,683.749,471.967,683.969,471.323Z" transform="translate(-637.126 -425.456)" fill="#237424"/>
      <path id="Path_29" data-name="Path 29" d="M443.637,483.959h.693c-.021.345.218.429.277.693.65-.213.535-.827,1.247-.693.22.508-.724.9-.97,1.386A1.459,1.459,0,0,1,443.637,483.959Z" transform="translate(-420.212 -436.845)" fill="#fff"/>
      <path id="Path_30" data-name="Path 30" d="M701.6,524.008a1.659,1.659,0,0,1-1.663,1.108C700.047,524.3,700.736,524.063,701.6,524.008Z" transform="translate(-651.575 -473.014)" fill="#fff"/>
      <path id="Path_31" data-name="Path 31" d="M632.137,532.548a4.243,4.243,0,0,1,1.386,2.91c-.709-.354-.929-1.2-1.247-1.939-.443.77.552,1.293.277,2.356-1.671.394-2.493,1.092-4.711,1.108-.3.3-.355.845-.692,1.109a2.22,2.22,0,0,1-1.247-.277c.52-.265,1.141-.43,1.385-.97-.369-.468-.608-.619-.416-1.386.57.871,1.928.707,3.049.416-.056-.268-.635-.012-.416-.554.072-.9,2.093-.855,1.524.138a5.177,5.177,0,0,0,.97-.277c-.108-.954-.987-1.137-.831-2.356.346.07.462.369.831.416C632.3,533.265,632.061,532.749,632.137,532.548Z" transform="translate(-584.739 -480.723)" fill="#fff"/>
      <path id="Path_32" data-name="Path 32" d="M562.38,538.243c.42.557.965.136,1.385.693-.491.743-1.554.215-1.94-.277C561.864,538.374,562.342,538.528,562.38,538.243Z" transform="translate(-526.9 -485.864)" fill="#fff"/>
      <path id="Path_33" data-name="Path 33" d="M555.143,552.485c.708.084-.424.986.139,1.386.894-.03.835-1.013,1.94-.832.231.185.047.785.277.97.937.111,2.24.356,2.771-.277-.151.659.451.565.97.554.169-.355-.242-.562.139-1.109.835.231.668,1.241.416,1.94-1.962-.2-3.014.107-4.85-.416-.044-.325-.219-.52-.139-.97-.917.007-.805,1.043-1.8.97C554.4,554.147,554.966,553.1,555.143,552.485Z" transform="translate(-520.495 -498.72)" fill="#fff"/>
      <path id="Path_34" data-name="Path 34" d="M596.1,582.388c0,.275.378.176.277.554-.123.061-.248.122-.277.277-.542-.363-1.049.057-1.524-.416C595,582.011,595.43,582.86,596.1,582.388Z" transform="translate(-556.46 -525.713)" fill="#fff"/>
      <path id="Path_35" data-name="Path 35" d="M615.48,583.411c-.182.049-.218.244-.416.277a.521.521,0,0,1-.554-.555C614.858,582.835,615.459,582.747,615.48,583.411Z" transform="translate(-574.457 -526.182)" fill="#fff"/>
      <path id="Path_36" data-name="Path 36" d="M338.686,131.669c-1.111,1.845-3.668,3.445-6.1,4.434-.17.524-.6.783-.555,1.525,1.833-.616,3.923-2.175,6.236-2.772-1.639,2.843-6.524,2.438-7.9,5.543,2.131-.087,3.846-1.789,6.374-1.94-1.486,2.9-7.123,1.653-8.453,4.712,2.268.081,4.72-1.543,7.205-1.247a15.676,15.676,0,0,1-5.4,2.217c-2.171.352-3.9.139-4.573,1.94,2.066.119,4.571-.5,7.205-.277-2.235,2.319-9,.169-10.531,2.909,2.236.49,5.095.355,7.344.832-3.317,2.08-9.283-1.279-11.363,1.524,2.548.686,6.075.392,8.176,1.525-4.284,1.391-8.646-1.771-11.917-.139,1.95,1.56,5.192,1.829,6.651,3.88-.8.952-2.381,1.13-3.464,1.8-2.676-1.957-5.87-4.3-10.254-4.434-5.205-.159-9.08,2.377-11.917,4.988a10.41,10.41,0,0,1-3.742-1.524c1.645-1.819,4.012-2.916,6.374-4.018-1.976-1.413-5.184.646-8.73.831a19.919,19.919,0,0,1-3.326-.138c2.05-1.368,5.693-1.144,8.314-1.94-2.715-2.684-8.046.574-12.056-1.109,1.7-1.206,5.269-.55,7.76-.97-1.423-2.7-8.761-.188-11.085-2.633,2.35-.612,5.473.2,7.9.416-1.391-3.412-8.093-1.514-10.393-4.019,2.527-.324,4.861.534,7.067.97-.134-.882-.916-1.116-1.386-1.663a17.768,17.768,0,0,1-7.483-2.494c2.576-.4,4.607.935,6.651,1.524-1.494-2.847-6.12-2.564-8.037-4.988,2.436-.126,4.236,1.584,6.236,2.356-.762-3.072-5.762-3.107-7.206-5.959,2.494.462,3.8,2.113,5.82,3.049-.929-3.274-5.044-3.363-6.513-6.1,2.126.092,3.452,2.183,5.127,3.187.22-2.023-2-2.558-3.187-3.6a9.279,9.279,0,0,1-2.217-3.187c2.039.825,2.957,2.771,4.712,3.88-.205-3.5-4.044-4.351-4.712-7.621,1.823.9,2.638,2.812,4.019,4.157.492-3.818-3.252-4.6-3.6-8.037,1.917.669,2.118,3.055,3.464,4.3.582-3.585-2.462-4.743-2.356-8.314,1.534.96,1.613,3.375,2.633,4.85,1.171-3.3-1.674-4.845-1.109-8.453,1.045,1.172,1.122,3.312,1.663,4.989,1.58-2.259-.632-4.909,0-8.314a9.983,9.983,0,0,1,.831,4.85c2.264-1.266-.187-5.1.97-7.622.747.87.473,2.761.693,4.157,1.759-.459.417-5.218,1.386-6.929.806,1.086.188,2.882.139,4.3,2.322-.681.773-5.231,2.494-6.513.134,1.566-.392,2.472-.416,3.88,1.963-.531,1.115-5.074,3.048-6.1-.123,1.448-.737,2.4-.97,3.741,2.129-.135,2.071-3.656,3.187-5.266.425.889-.3,1.823-.416,2.633,2.083-.181,2.635-3.092,3.741-4.711.334.892-.61,1.7-.693,2.633,1.661.043,2.616-1.818,4.712-1.8-1.354,1.741-4.532,1.657-5.82,3.464.968.372,2.759-.081,3.187.831-1.977.571-5.165-.851-5.682,1.247.716.276,2.442-.3,3.326.139-1.644,1.127-5.686-.143-5.958,2.356,1.131.278,2.318-.53,3.88-.277-1.454,1.5-5.572.34-5.958,2.91,1.34.4,2.468-.567,3.88-.554-1.431,1.71-5.557.724-5.82,3.6,1.374.022,2.634-1.237,4.434-1.247-1.109,2.032-5.189,1.093-5.543,3.88,1.24-.066,2.432-1.346,4.019-1.524.24.755-1.213,1.089-2.079,1.524-.934.469-1.914,1.036-2.633,1.386a4.927,4.927,0,0,0-.277,1.663c1.621-.411,2.421-1.644,4.019-2.078.142,1.676-3.53,2.026-4.573,3.6a2.8,2.8,0,0,0-.277,1.94c1.67-.593,2.185-2.342,4.157-2.633-.763,2.612-5.072,2.407-4.434,5.958,1.647-.8,2.128-2.768,4.157-3.187-.581,2.725-5,3-4.018,6.374,1.19-1.35,2.153-2.928,3.88-3.742-.79,2.166-2.419,3.494-3.88,4.989a7.322,7.322,0,0,0,.416,2.494c1.3-1.515,1.895-3.74,3.6-4.85-.249,3.205-4,4.687-2.771,8.037,1.492-1.464,1.68-4.232,3.464-5.4-.1,3.3-3.979,5.482-2.217,8.453.9-1.962,1.365-4.362,2.633-5.959.708,3.164-3.612,6.224-1.109,8.591.659-2.113.934-4.608,2.079-6.236.833,3.121-2.884,6.978-.277,8.869.458-2.268.518-4.933,1.247-6.929,1.431,3.375-2.246,8.218.97,9.561.324-2.155-.56-5.775.832-7.206,1.148,3.069-1.476,8.763,1.524,9.562.137-2.124-.335-4.837-.138-7.483,1.134,2.053,1.236,5.138,1.247,8.314a6.1,6.1,0,0,0,2.217,1.524c-.114-2.477-1.61-4.761-1.385-8.037a26.353,26.353,0,0,1,2.217,6.929c.094.723-.207,1.105.139,1.663.445.718,1.408.718,2.078,1.108-.392-2.156-2.183-4.83-1.94-7.621,1.606,2.043,2.374,4.925,3.049,7.9a3.346,3.346,0,0,0,2.217.97c-.62-2.567-2.22-4.154-2.217-7.344,1.694,2.047,2.578,4.9,3.464,7.76,4.723,1.334,12.237,1.37,16.213-.693a22.748,22.748,0,0,1,2.771-7.76c.21,2.8-1.109,5.265-1.94,7.483a3.549,3.549,0,0,0,2.494-.97,25.689,25.689,0,0,1,2.356-8.591c.266,2.945-.887,5.672-1.663,8.037.752.339,1.393-.514,2.079-.692.509-3.048.7-6.416,1.663-9.007.566,3.014-.428,5.669-.832,8.176a4.016,4.016,0,0,0,2.495-1.94c-.417-2.339-.7-6.119.416-8.037.6,2.3.207,5.2.277,7.483.965-.235,1.317-1.085,1.94-1.663-.276-2.691-1.11-5.528-.692-8.453,1.3,1.612.866,4.954,1.247,7.483,3.331-1.774-.517-5.821.139-9.562a17.853,17.853,0,0,1,1.8,6.79c.957-.151,1.053-1.165,1.524-1.8-.838-2.348-2.033-4.341-2.494-7.067,1.67,1.332,1.746,4.258,3.048,5.959,1.834-2.916-2.052-5.063-2.078-8.315,1.555,1.355,1.962,3.858,3.187,5.543,1.983-2.438-2.651-5.153-2.633-8.176,1.771,1.138,2.185,3.635,3.464,5.266a2.59,2.59,0,0,0,.693-2.356c-.136-.6-.815-.885-1.247-1.386a13.31,13.31,0,0,1-2.495-4.157c1.623,1.056,2.576,2.782,3.742,4.3,1.818-3.243-2.7-3.982-3.464-6.374.294-.2,1.137.378,1.524.693.845.686,1.543,1.866,2.356,2.356,1.066-3.379-2.687-3-3.049-5.4,1.221.4,1.79,1.444,2.772,2.079.913-3.64-3.4-3.25-4.435-5.4,1.737.3,2.585,1.481,4.018,2.079.508-3.372-3.926-3-5.127-5.127,1.728.3,2.658,1.406,4.157,1.94.383-2.878-3.677-2.513-5.127-4.019,1.589-.341,2.847.847,4.157,1.247.048-3.1-4.015-2.083-5.4-3.741,1.624-.008,2.518.716,3.88.97.281-2.55-3.607-2.116-5.4-3.048.754-.591,2.457.2,3.464.277-.175-2.643-3.856-1.78-5.959-2.494.84-.793,2.481-.134,3.742-.139-.042-1.852-3.236-1.752-5.543-1.8.366-.835,2.17-.232,3.187-.416-.686-2.253-3.591-1.031-5.82-1.386.481-.72,2.1-.3,3.187-.416-1.27-2.056-4.6-2.054-6.513-3.464,2.368-.473,3.484,1.505,5.4,1.94-.251-1.18-1.252-1.611-1.386-2.91,1.925.939,1.661,4.067,4.019,4.573.242-1.03-.906-1.864-.832-3.187,1.562,1.486,1.382,4.714,3.741,5.4-.172-1.306-.8-2.152-.831-3.6,1.686,1.362.939,5.158,3.187,5.959.1-1.575-.523-2.433-.416-4.019,1.56,1.35.448,5.373,2.356,6.374.023-1.671-.084-2.654,0-4.157,1.407,1.226-.174,5.439,1.524,6.374.5-1.112,0-3.23.97-3.88.63,2.645-1.385,5.63.693,7.067.629-1.126-.053-3.563,1.385-3.88.251,2.645-1.78,5.133-.139,7.067.9-1.131.636-3.429,1.8-4.3.432,3.3-2.383,5.337-.831,8.037,1.024-1.332,1.35-3.361,2.356-4.711.54,3.5-3.094,5.015-1.94,8.73,1.253-1.2,1.814-3.082,3.049-4.3,0,3.188-3.407,4.168-3.049,8.175,1.456-1.223,2.255-3.1,3.6-4.434.017,3.389-3.763,4.182-4.019,7.76,1.461-.8,2.8-2.93,4.434-4.019-.307,3.066-4.243,3.7-4.988,6.79,1.585-.771,3.166-2.746,5.127-3.6a17.544,17.544,0,0,1-5.82,5.266,9.1,9.1,0,0,0-.277,1.247C334.951,134.123,336.688,132.4,338.686,131.669Z" transform="translate(-264.684 -84.832)" fill="#28924f"/>
      <path id="Path_37" data-name="Path 37" d="M395.731,412.936h6.651c1.664,6.175,6.375,10.886,13.442,11.5,9.175.8,15.109-4.413,17.044-11.5h6.79c-2.329,10.53-10.327,19.059-23.834,18.153-10.827-.726-18.015-8.042-20.093-17.737C395.76,413.115,395.495,412.993,395.731,412.936Zm5.82,2.772c.164-.765-.442-.76-.277-1.525-.392.115-.359-.2-.693-.138C400.7,414.8,400.618,415.763,401.551,415.708Zm35.335-.554c-.647-.693-1.921-.758-3.049-.97C434.158,415.112,435.956,415.3,436.886,415.154Zm-38.938.692c.306.433,1.4.079,1.663.554-.028.527-.583.526-.554,1.109.4.612.618,1.414,1.247,1.8a1.328,1.328,0,0,0,1.524-1.109c-.732-.178-.882.227-1.109.554-.164-.667-.622-1.041-.832-1.663.3-.2.649-.367.554-.97-.421-.41-1.4-.267-1.8-.693.114-.579.929-.456,1.108-.97C398.893,414.667,397.938,414.774,397.948,415.846Zm37.414.139c-.786-.364-1.211-.961-2.079-.277.356.753,1.81.407,2.356.97-.2.488-.727.659-1.524.554a2.229,2.229,0,0,0,.416,1.524c-.276.139-.219.613-.693.554-.856-.16-1.238-.794-2.078-.97.095,1.106,1.454.948,1.94,1.663a13.508,13.508,0,0,1-1.247,1.525c-1.689-.9-2.7,1.882-3.742,2.078.107-.783,1.105-1.469.416-2.217a3.637,3.637,0,0,0-.693,3.187c1.619-.321,2.138-2.48,3.6-2.494-1.2.974-2.085,2.258-3.6,2.91-.379-.054-.591-.64-.97-.277-.483.3-.252,1.318-.554,1.8-.706.014-.528-.857-1.109-.97a2.182,2.182,0,0,0,1.386,1.8c.677-.155.2-1.459.554-1.94.417.091.484.532,1.109.415a22.66,22.66,0,0,0,5.543-5.266.779.779,0,0,0-.139-.554c.537-.016.7-.408.97-.693.1-.423-.142-.5-.139-.831,1.243-.228.914-1.8,1.94-2.494C436.48,415.334,436.075,415.8,435.362,415.985Zm-36.306,3.6h.554c.12-.813-.546-.84-.554-1.524H398.5C398.382,418.876,399.048,418.9,399.057,419.588Zm2.494,1.663c.246-.489,1.189-.877.97-1.386-.712-.134-.6.48-1.247.693-.059-.264-.3-.348-.277-.693H400.3A1.459,1.459,0,0,0,401.551,421.251Zm1.8.832a1.285,1.285,0,0,0,.416-.97c-.155-.029-.215-.153-.277-.277-1.208-.1-1.632.764-1.386,1.385-.727-.012-.9-.577-1.386-.831.164,1.014.755,1.781,1.94,1.385a25.112,25.112,0,0,0,6.513,4.573c.779-.194.741-1.935,1.386-1.8-.112.676-.732,1.573-.416,2.217.767-.665.872-1.992,1.247-3.049-.435-.065-.366.373-.693.415-.123-.246-.387-.352-.277-.831-.345-.022-.429.218-.693.277a2.805,2.805,0,0,1-.554,1.94c-.736-.244.129-.6-.415-.832a.678.678,0,0,1-.693.277c-.278-.282.061-.272.139-.554-.712.219-1.382-.016-.832-.554-.781.042-1.45-.028-1.524-.693q.453.038.416-.415c-.222-.687-.974-1.252-1.663-.693-.183.347.548.434.139.554C404.359,423.015,403.732,422.673,403.352,422.082Zm21.894,2.771a1.659,1.659,0,0,0,1.663-1.108C426.041,423.8,425.351,424.034,425.246,424.853Zm-1.108.416c-.369-.047-.486-.346-.831-.416-.156,1.218.723,1.4.831,2.356a5.179,5.179,0,0,1-.97.277c.569-.993-1.452-1.037-1.524-.138-.219.542.36.286.416.554-1.12.291-2.478.454-3.049-.416-.192.767.046.918.416,1.386-.245.54-.866.7-1.385.97a2.219,2.219,0,0,0,1.247.277c.337-.263.393-.808.692-1.109,2.219-.016,3.041-.715,4.712-1.108.275-1.063-.719-1.586-.277-2.356.318.744.538,1.586,1.247,1.94a4.243,4.243,0,0,0-1.386-2.91C424.2,424.777,424.438,425.293,424.138,425.269Zm-12.332.277c.386.492,1.449,1.02,1.94.277-.42-.557-.965-.136-1.385-.693C412.321,425.416,411.843,425.261,411.805,425.547Zm-.416,3.187c1,.073.885-.963,1.8-.97-.08.45.095.644.139.97,1.836.523,2.888.215,4.85.415.252-.7.419-1.708-.416-1.94-.381.547.03.753-.139,1.109-.519.011-1.121.1-.97-.554-.532.633-1.834.388-2.771.277-.231-.185-.046-.785-.277-.97-1.1-.181-1.046.8-1.94.832-.563-.4.569-1.3-.139-1.386C411.35,427.127,410.78,428.178,411.389,428.733Zm3.6,1.109c.475.473.982.053,1.524.416.029-.156.154-.216.277-.277.1-.378-.275-.279-.277-.554C415.849,429.9,415.415,429.049,414.992,429.842Zm1.94-.139a.521.521,0,0,0,.554.555c.2-.033.233-.228.416-.277C417.881,429.316,417.281,429.4,416.932,429.7Z" transform="translate(-376.879 -372.751)" fill="#28924f"/>
      <path id="Path_38" data-name="Path 38" d="M721.152,424.849c-.29-.409.483-1.291,0-1.94-.245.124-.176.563-.693.416a1.167,1.167,0,0,1-.97-1.385C721.386,421.29,722.81,423.838,721.152,424.849Z" transform="translate(-669.182 -380.784)" fill="#fff"/>
      <path id="Path_39" data-name="Path 39" d="M451.929,496.8c.409-.121-.321-.207-.139-.554.689-.559,1.441.005,1.663.693q.038.453-.416.415c.074.665.743.735,1.524.693-.55.539.12.773.832.554-.077.283-.417.272-.139.554a.677.677,0,0,0,.693-.277c.544.229-.32.588.415.832a2.8,2.8,0,0,0,.554-1.94c.264-.059.348-.3.693-.277-.11.479.154.585.277.831.327-.043.258-.481.693-.415-.375,1.057-.48,2.383-1.247,3.049-.316-.644.3-1.541.416-2.217-.644-.134-.607,1.607-1.386,1.8a25.11,25.11,0,0,1-6.513-4.573c-1.185.4-1.775-.372-1.94-1.385.485.254.659.819,1.386.831-.247-.621.177-1.49,1.386-1.385.061.124.122.248.277.277a1.285,1.285,0,0,1-.416.97C450.922,495.862,451.549,496.2,451.929,496.8Z" transform="translate(-424.07 -445.94)" fill="#fff"/>
    </g>
    <g id="Vector_Smart_Object" data-name="Vector Smart Object" transform="translate(-5593.891 -818.802)">
      <g id="Group_4" data-name="Group 4" transform="translate(6577.324 852.803)">
        <g id="Group_3" data-name="Group 3" transform="translate(0 0)">
          <g id="Group_2" data-name="Group 2">
            <g id="Group_1-2" data-name="Group 1">
              <path id="Path_1-2" data-name="Path 1" d="M8674.021,869.651a3.884,3.884,0,0,1,.208.585c.043.21.234,2.637.236,2.663l.6,6.215s-.116-1.14.2,2.334c.339,3.743.654,7.951.775,9.178a49.729,49.729,0,0,1,.172,6.928c-.029.238-.006.3.016.333a.063.063,0,0,0,.051.028c.116,0,.32-.378.377-.49a4.721,4.721,0,0,0,.518-1.345,31.646,31.646,0,0,0,.251-6.584c-.028-1.376-.345-4.966-.586-7.568-.153-1.648-.361-3.607-.479-4.55-.312-2.534-.429-3.015-.5-3.608-.06-.43-.015-.6.033-.665a.085.085,0,0,1,.073-.04,9.694,9.694,0,0,1,.87.987c.08.125.149.186.214.186.094,0,.137-.133.137-.228-.021-.628-2.1-6.111-2.187-6.344l0-.014-.012,0a.068.068,0,0,0-.028-.006c-.1,0-.171.219-.183.258,0,.011-.5,1.117-.646,1.409-.139.27-.121.307-.112.326Z" transform="translate(-8506.198 -866.455)" fill="#008738"/>
              <path id="Path_2-2" data-name="Path 2" d="M7546.486,874.923a4.368,4.368,0,0,1,.212.621c.044.222.24,2.795.242,2.821l.616,6.587s-.119-1.208.2,2.474c.346,3.966.67,8.426.793,9.727a54.778,54.778,0,0,1,.177,7.342c-.032.253-.007.323.015.353a.062.062,0,0,0,.052.029c.119,0,.327-.4.385-.519a5.043,5.043,0,0,0,.53-1.425,34.783,34.783,0,0,0,.257-6.978c-.03-1.458-.352-5.263-.6-8.02-.157-1.746-.371-3.822-.489-4.822-.319-2.685-.439-3.195-.517-3.823-.06-.456-.014-.634.035-.7a.085.085,0,0,1,.074-.043,10.081,10.081,0,0,1,.89,1.047c.082.132.152.2.218.2.1,0,.14-.141.14-.242-.022-.664-2.146-6.475-2.236-6.723l0-.014-.013,0a.069.069,0,0,0-.029-.006c-.1,0-.175.231-.187.273,0,.012-.506,1.183-.66,1.493-.142.287-.124.325-.114.345Z" transform="translate(-7468.904 -871.195)" fill="#008738"/>
              <path id="Path_3-2" data-name="Path 3" d="M8314.078,1049.277c-.008-.084-.117-.015-.147.043-.008.015-.058.159-.072.205,0,.014-.327.673-.327.673l-.521.939-.468.791-.768,1.2s-.529.8-.541.808-.517.732-.517.732-.345-.345-.647-.626a4.841,4.841,0,0,1-.674-.837c-.082-.121.016-.13.016-.13l.172.022a3.355,3.355,0,0,0,.82.119c.2-.039-.006-.258-.094-.377a6.92,6.92,0,0,0-.668-.554c-.105-.083-.937-.788-.937-.788s-1.211-1.006-1.316-1.09-.161.081-.161.081-.38,1.869-.4,2.007a.632.632,0,0,0,.023.275l.377.362a.78.78,0,0,1,.13.143c.036.063.146.215.175.269s.436.711.561.9.627.861.627.861.295.355.859.97a12.07,12.07,0,0,0-.969,1.936,11.137,11.137,0,0,0-.523,1.838,9.053,9.053,0,0,0-.125,2.141,3.119,3.119,0,0,0,.293,1.124,1.084,1.084,0,0,0,.76.572,2.841,2.841,0,0,0,1.072-.116,6.382,6.382,0,0,0,1.334-.6,4.988,4.988,0,0,0,1.295-.982,1.563,1.563,0,0,0,.338-.544,7.179,7.179,0,0,0,.4-1.461,9.211,9.211,0,0,0,.092-1.492,2.7,2.7,0,0,0-.175-.9,3.5,3.5,0,0,0-.365-.781,6.541,6.541,0,0,0-.555-.72c-.035-.042-.447-.466-.617-.62s-.32-.315-.328-.314a1.037,1.037,0,0,1,.089-.114c.013-.015.315-.455.55-.831s.76-1.185.982-1.6a6.825,6.825,0,0,0,.436-.92,10.891,10.891,0,0,0,.416-1.542c.061-.357.106-.858.106-.858A1.791,1.791,0,0,0,8314.078,1049.277Zm-2.222,9.329a4.98,4.98,0,0,1,.975,1.373.447.447,0,0,1-.145.19,6.764,6.764,0,0,1-1.368.843,5.041,5.041,0,0,1-1.549.454,1.245,1.245,0,0,1-.9-.189.893.893,0,0,1-.211-.713,5,5,0,0,1,.475-1.452,7.742,7.742,0,0,1,.472-.872c.175-.265.7-1.057.7-1.057s.025-.044.037-.053.033.005.072.039.308.32.5.5S8311.727,1058.448,8311.856,1058.606Z" transform="translate(-8168.4 -1033.516)" fill="#008738"/>
              <path id="Path_4-2" data-name="Path 4" d="M6747.694,896.236s.113.166.26-.013c0,0,.138-.457.442.07a7.124,7.124,0,0,1,.581,1.2c.094.442.233.765.3,1.152l.031.083s-.425-.151-.85,1.421c0,0,.046.2.329.019a.449.449,0,0,1,.82-.156s-1.12.282-1.255.692a2.066,2.066,0,0,0-.27.736,2.215,2.215,0,0,0,.1,1.332s.715,3.914.695,4.11.08,1.692.08,1.692.2.2.384-.505a20,20,0,0,0-.386-3.928s-.436-2.237-.5-2.432l-.014-.116a4.11,4.11,0,0,1,2.256-.749l.434-.766s.008-.658-1.446-1.328l.309-1.311.33-1.835s.424-1.047.808-.352c0,0,.354.595.591.17a2.581,2.581,0,0,0,.173-.853s-.581-1.105-1.224-.537a2.8,2.8,0,0,0-.789,1.518s-.241,1.146-.262,1.557l-.018.066s-.125-.479-.3-.94a4.088,4.088,0,0,0-.417-.842c-.178-.2-.97-1.291-1.7-.888-.116.147-.283.243-.275,1.114C6746.943,895.67,6747.025,895.786,6747.694,896.236Z" transform="translate(-6733.339 -890.586)" fill="#008738"/>
              <path id="Path_5-2" data-name="Path 5" d="M8318.23,992.282l-2.43-1.823-1.167,1.82-2.286-1.715-1.287,2.007v.092l2.3,1.6,1.24-1.645,2.212,1.54Z" transform="translate(-8172.302 -979.441)" fill="#008738"/>
              <path id="Path_6-2" data-name="Path 6" d="M7784.338,1048.577l-2.43-1.823-1.168,1.82-2.285-1.715-1.289,2.008v.092l2.3,1.6,1.241-1.645,2.212,1.54Z" transform="translate(-7681.139 -1031.23)" fill="#008738"/>
              <path id="Path_7-2" data-name="Path 7" d="M7614.137,1069.331l-2.429-1.823-1.167,1.819-2.285-1.715-1.288,2.007v.092l2.3,1.6,1.241-1.645,2.212,1.54Z" transform="translate(-7524.56 -1050.324)" fill="#008738"/>
              <path id="Path_8-2" data-name="Path 8" d="M7111.1,1263.759l-2.429-1.823-1.168,1.819-2.285-1.715-1.289,2.007v.092l2.3,1.6,1.241-1.645,2.211,1.54Z" transform="translate(-7061.783 -1229.191)" fill="#008738"/>
              <path id="Path_9-2" data-name="Path 9" d="M6824.061,1027.93l1.345-1.781a.062.062,0,0,0-.013-.086l-2.331-1.749a.061.061,0,0,0-.086.014l-1.3,1.844a.062.062,0,0,0,.014.084l2.29,1.687A.061.061,0,0,0,6824.061,1027.93Z" transform="translate(-6802.107 -1010.576)" fill="#008738"/>
              <path id="Path_10-2" data-name="Path 10" d="M8059.865,1084.2l1.343-1.781a.061.061,0,0,0-.012-.086l-2.33-1.749a.061.061,0,0,0-.086.014l-1.3,1.844a.061.061,0,0,0,.013.084l2.29,1.687A.062.062,0,0,0,8059.865,1084.2Z" transform="translate(-7939.003 -1062.338)" fill="#008738"/>
              <path id="Path_11-2" data-name="Path 11" d="M7259.844,893.091c-.1-1.274-.308-3.634-.438-4.914a6.592,6.592,0,0,0-.215-1.569c-.084-.586-.515-4.48-.539-4.827s.145-.18.145-.18a9.078,9.078,0,0,0,1,1.15c.228.132.145-.192.084-.5a10.881,10.881,0,0,0-.6-1.63c-.228-.5-1.377-3.522-1.484-3.689s-.168-.06-.168-.06l-.97,1.857a.322.322,0,0,0,.036.156,4.917,4.917,0,0,1,.336.863c.047.275.095.563.25,2.288s.249,2.8.466,4.772.01.273.181,2.032c.191,1.964.371,4.2.371,4.2.092.944.517,4.445.517,4.462v-.017s.205,2.474.18,2.792a6.279,6.279,0,0,1-1.341.845l0,.067a16.048,16.048,0,0,1-1.572.775c-1.073.444-4.619,1.664-5.482,1.936a12.265,12.265,0,0,0-2.843,1.4c-.814.56-2.175,1.914-2.559,2.2s-2.11,1.912-2.68,2.369a5.608,5.608,0,0,1-1.4.926,1.756,1.756,0,0,1-2.228-.512,4.3,4.3,0,0,1-.467-2.38,9.861,9.861,0,0,1,1.468-3.786,26.479,26.479,0,0,1,1.7-2.635c.268-.462-.213-.383-.327-.229a15.269,15.269,0,0,0-2.408,3.462,8.906,8.906,0,0,0-1.142,3.363,4.779,4.779,0,0,0,.97,3.953,2.688,2.688,0,0,0,2.459,1.03,4.384,4.384,0,0,0,1.762-1.1c.556-.539,1.972-1.849,2.3-2.214a19.254,19.254,0,0,1,3.141-2.563c1.054-.6,3.559-1.435,6.44-2.513a10.222,10.222,0,0,0,4.086-2.356,2.042,2.042,0,0,0,.411-.678c.019-.03.04-.059.057-.09a8.907,8.907,0,0,0,.625-2.184l0-.006c0-.015,0-.034,0-.051.017-.1.029-.188.036-.248l-.02.025c.037-.635.05-1.82.05-1.82C7260.06,896.011,7259.934,894.286,7259.844,893.091Z" transform="translate(-7184.784 -874.912)" fill="#008738"/>
              <path id="Path_12-2" data-name="Path 12" d="M8317.864,1137.4c-2.706-.313-5.02,1.868-6.4,3.171-.1.1-.206.195-.3.284-.912.848-2.673,2.866-3.959,4.339-.615.706-1.1,1.263-1.31,1.48-.342.354-2.122,2.095-3.677,1.534-1.016-.474-2.206-1.57-.833-5.6a18.764,18.764,0,0,1,3.076-4.876c.188-.2.261-.364.209-.452-.017-.029-.064-.074-.187-.043a13.04,13.04,0,0,0-3.08,4.055,10.2,10.2,0,0,0-1.189,4.254,4.5,4.5,0,0,0,1.414,3.826,3.391,3.391,0,0,0,2.046.884c1.052,0,1.9-.817,2.994-1.861a20.954,20.954,0,0,0,1.756-1.936,48.975,48.975,0,0,1,3.726-4.047c3.132-3.091,4.848-2.63,5.77-2.381.1.026.186.05.266.066.782.16,1.816,1.444,1.826,1.457l.006.006a.081.081,0,0,0,.086.016c.221-.09.393-1.456.412-1.664A2.643,2.643,0,0,0,8317.864,1137.4Z" transform="translate(-8162.315 -1114.466)" fill="#008738"/>
              <path id="Path_13-2" data-name="Path 13" d="M8468.936,898.465h0c-.615-.629-.924-.883-1.788-.312a8.3,8.3,0,0,0-1.727,1.816.1.1,0,0,1-.069,0c-.046-.013-.116-.06-.2-.208l0,0h0c-.155-.04-.388.271-.542.55a13.836,13.836,0,0,1-1.646,2.2,4.3,4.3,0,0,1-1.148.631,3.852,3.852,0,0,1-1.1.126,3.382,3.382,0,0,1-1.735-.541c-.025-.032-.049-.066-.072-.1l-.01.046a3.481,3.481,0,0,1-.484-.41c-1.412-1.514-1.554-5.457-1.639-7.813-.008-.208-.014-.4-.021-.586-.024-.6-.057-1.363-.061-2.33-.018-4.72-.09-6.659-.207-8.3a105.739,105.739,0,0,0-1.178-11.116c-.012-.028-.029-.062-.037-.087-.025-.084-.053-.126-.086-.127,0,0-.076.08-.08.089a13.8,13.8,0,0,0-1.08,2.425l0,0v0a88.249,88.249,0,0,1,1.043,8.983c.021.227.047.44.064.628.063.69.07,1.219.133,2.086.01.141.01.258.015.345.034.8.31,7.467.364,9,0,.084.006.179.01.283.063,1.8.211,6.005,1.293,7.867a4.285,4.285,0,0,0,2.227,2.069,2.091,2.091,0,0,0,.851.146l.058,0a4.249,4.249,0,0,0,1.447-.29c.135-.049.672-.36.672-.36a4.283,4.283,0,0,0,1.363-1.565c.488-.855.719-1.231.882-1.254.053-.006.1.019.17.088a2.713,2.713,0,0,1,.22.268,1.45,1.45,0,0,0,.469.459l.24.131a12.126,12.126,0,0,0,2.681,1.193c.55.113.89,0,1.074-.342a4.9,4.9,0,0,0,.61-2.184C8469.879,901.1,8469.561,899.1,8468.936,898.465Zm-.731,3.34c-.038.032-.111.054-.234-.021h0c-.073-.045-.241-.123-.453-.222a4.929,4.929,0,0,1-1.394-.808c.031-.061.369-.691.83-.752a.739.739,0,0,1,.648.318,2.164,2.164,0,0,1,.65,1.261.287.287,0,0,0,.008.059A.174.174,0,0,1,8468.2,901.806Z" transform="translate(-8303.817 -870.375)" fill="#008738"/>
              <path id="Path_14-2" data-name="Path 14" d="M7608.623,897.516h0a7.707,7.707,0,0,0-.5-2.208c-.342-.984-.808-1.567-1.387-1.735a2.445,2.445,0,0,0-1.943.524l-.1.063a12.133,12.133,0,0,0-1.342,1.315h0a.49.49,0,0,0-.022-.079.1.1,0,0,0-.117-.063,2.784,2.784,0,0,0-.579.6c-.14.178-.343.467-.522.721-.15.214-.293.416-.372.517a5.5,5.5,0,0,1-1.349,1.286,4.7,4.7,0,0,1-3.4.146,3.19,3.19,0,0,1-1.533-2.276c-.036-.392-.36-.4-.762-.046-.262.23-.63.579-.918.786-.969.694-1.506,1.052-2.4,1.6a21.645,21.645,0,0,1-2.413,1.21,1.571,1.571,0,0,0-.316.173c.07-.083.559-.589.906-1.017a7.172,7.172,0,0,0,.856-1.894,4.048,4.048,0,0,0,.013-1.282c-.022-.284-.127-.69-1.036-1.456a4.448,4.448,0,0,0-3.172-1.1,7.179,7.179,0,0,0-3.372,1.192,13.917,13.917,0,0,0-2.984,2.763c-.378.48-.689.79-.636.6.073-.215.4-2.014.4-2.018a25.83,25.83,0,0,0,.3-4.978s-.29-3.98-.5-5.514c-.278-2.013-.43-5.509-.483-6.077-.088-.925.066-.733.083-.712.169.216.676.94.871,1.276.106.184.2.263.3.237s.147-.186.148-.287c-.016-.77-2.3-7.525-2.4-7.812l-.007-.021-.021-.011a.1.1,0,0,0-.087,0c-.1.043-.171.258-.188.317-.63,1.5-.941,2.5-.562,1.722-.168.345-.143.385-.127.411l0,.005a4.98,4.98,0,0,1,.229.726c.045.259.231,3.236.232,3.268l.676,9.311s.01.091.242,2.994a69.765,69.765,0,0,1,.226,7.508.641.641,0,0,1-.165.39,22.451,22.451,0,0,1-1.6,1.927c-.444.522-.545.412-.545.412a9.855,9.855,0,0,1-1.562-.221,6.513,6.513,0,0,1-1.244-.468,6.96,6.96,0,0,0,1.616-4.463c-.259-2.037-1.1-2.975-1.972-2.781s-2.263,1.714-3.168,3.978-.193,3.524-.193,3.524a6.318,6.318,0,0,1-2.07.4c-.127,0-.258,0-.389-.01a3.081,3.081,0,0,1-1.816-.674,9.489,9.489,0,0,1-1.84-2.669c-.16-.486-.718-1.48-1.1-1.56-1.075-.1-2.609.912-3.627,2.088a24.355,24.355,0,0,0-2.908,4.926,4.584,4.584,0,0,1-2.192,2.635c-.877.385-2.013-.649-2.71-2.25s-.533-4.844-.514-5.554-.259-.1-.3.1c-.141,1.52-.524,4.5.273,6.465s2.032,3.811,3.208,3.568,1.674-1.236,2.711-3.3a17.556,17.556,0,0,1,2.211-3.913,5.52,5.52,0,0,1,2.83-1.987c.976-.121,1.056.831,1.275,1.338a8.058,8.058,0,0,0,2.574,3.066,2.59,2.59,0,0,0,.316.148,3.64,3.64,0,0,0,1.328.22,7.594,7.594,0,0,0,2.871-.634,12.071,12.071,0,0,0,1.349-.716s1.392,1.2,5.642,1.482c1.313.086,4.13-.023,5.1-.04a33.748,33.748,0,0,0,5.435-1.049,18.2,18.2,0,0,0,5.338-2.683c.895-.681,1.82-1.732,1.945-1a4.07,4.07,0,0,0,1.13,1.838,2.879,2.879,0,0,0,3.931.289,5.962,5.962,0,0,0,1.359-1.179l.021-.025c.262-.325.743-.99.973-1.36a6.269,6.269,0,0,1,.532-.763,1.74,1.74,0,0,0,.809,1.4,9.816,9.816,0,0,0,1.4.64,14.42,14.42,0,0,0,2.676.622.422.422,0,0,0,.407-.2,2.743,2.743,0,0,0,.209-.492l.146-.378A4.766,4.766,0,0,0,7608.623,897.516Zm-38.159.42a5.029,5.029,0,0,1,1.7-2.232c.679-.437.873-.081,1.2.485.437.937.6,1.439.453,1.843s-1.875,1.585-1.875,1.585A3.1,3.1,0,0,1,7570.464,897.936Zm13.274,2.377c-3.415.919-4.556.924-5.89.707,0,0,2.887-3.153,3.709-3.741.857-.611,2.911-1.846,4.388-1.505a5.452,5.452,0,0,1,3.126,1.653c.12.218.2.218-.113.445A14.634,14.634,0,0,1,7583.738,900.313Zm21.937-2.909a5.576,5.576,0,0,1-1.717-.8,2.265,2.265,0,0,1,.79-.594l.022-.008a1.237,1.237,0,0,1,1.261.059,3.5,3.5,0,0,1,.863,1.6C7606.786,897.64,7606.136,897.533,7605.675,897.4Z" transform="translate(-7472.192 -870.391)" fill="#008738"/>
              <path id="Path_15-2" data-name="Path 15" d="M7004.137,886.566a9.221,9.221,0,0,0-1.225-2.5c-.18-.246-.2-.035-.2-.035l-.648,2.41c1.514,2.058,1.514,2.938,1.514,3.026a2.539,2.539,0,0,1-.59.452,20.57,20.57,0,0,1-2.076.99c-.467.191-2.607.913-3.229,1.107a19.572,19.572,0,0,1-3.676.91c-1.276.263-2.862.591-4.694.86a37.626,37.626,0,0,1-8.164.564,46.9,46.9,0,0,1-5.167-.508,11.06,11.06,0,0,1-2.671-.96,4.719,4.719,0,0,1-1.443-1.151,7.466,7.466,0,0,1-1.351-2.742,24.938,24.938,0,0,1-.692-5.708c0-.073-.268-7.486-.507-9.264l-.03-.225c-.166-1.256-.193-3.644-1.169-5.542a.132.132,0,0,0-.24.017l-.813,2.456a23.773,23.773,0,0,1,.936,5.283c.2,2.151.371,5.253.425,6.909a54.844,54.844,0,0,0,.543,6.748,12.063,12.063,0,0,0,.971,3.166,5.824,5.824,0,0,0,2.5,2.658c2.07,1.068,3.211,1.288,7.628,1.413a31.207,31.207,0,0,0,7.321-.486c.8-.1,3.4-.467,3.86-.553a54.483,54.483,0,0,0,7.421-1.9c.01,0,1.28-.467,2.3-.884.523-.229,1.3-.584,1.627-.772.028-.016.05-.027.078-.042.086-.043.169-.088.248-.134a3.319,3.319,0,0,0,.867-.728,3.557,3.557,0,0,0,.446-1.109,8.041,8.041,0,0,0,.18-1.873A8.336,8.336,0,0,0,7004.137,886.566Z" transform="translate(-6935.875 -866.953)" fill="#008738"/>
              <path id="Path_16-2" data-name="Path 16" d="M6607.826,1069.065a3.971,3.971,0,0,0,1.114-1.249,5.262,5.262,0,0,0,.364-3.542,5.661,5.661,0,0,0-2.762-2.8,4.306,4.306,0,0,0-3.6.006,11.451,11.451,0,0,0-3.334,2.921,41.626,41.626,0,0,0-2.678,4.179,5.3,5.3,0,0,1-1.118-1.216c-.546-.794-.651-.945-.7-1.014a.118.118,0,0,0-.183.1c-.012.076-.517,2.2-.517,2.2l0,.016.01.014a14.936,14.936,0,0,1,1.449,3.876,1.732,1.732,0,0,1,.075,1.054,7.774,7.774,0,0,1-1.213,1.383,19.023,19.023,0,0,1-8.935,4.5,6.513,6.513,0,0,1-5.613-1.164,5.274,5.274,0,0,1-1.47-1.936c-1.365-2.582.868-7.546.892-7.6.065-.244.058-.38-.023-.431-.126-.078-.36.12-.41.165a15.384,15.384,0,0,0-1.58,4.167,9.622,9.622,0,0,0,.082,4.859,5.853,5.853,0,0,0,.785,1.712,6.6,6.6,0,0,0,6,2.824,10.757,10.757,0,0,0,3.488-.778,23.039,23.039,0,0,0,5.529-3.157c2.272-1.513,2.655-2.61,2.666-2.649a11.58,11.58,0,0,0,.835-4.156,8,8,0,0,0,2.645.175,16.575,16.575,0,0,0,3.369-.385A12.1,12.1,0,0,0,6607.826,1069.065Zm-6.562.184a9.19,9.19,0,0,1-3.4-.271c.234-.462,2.908-5.568,6.277-5.578a5.663,5.663,0,0,1,4.4,2.929c.019.043-.129.175-.24.284-.743.729-1.813,1.328-4.213,2.127A15,15,0,0,1,6601.264,1069.249Z" transform="translate(-6577.323 -1044.411)" fill="#008738"/>
              <path id="Path_17-2" data-name="Path 17" d="M8528.751,1040.585l-11.5,4.99-.3,1.188,11.54-5.115Z" transform="translate(-8361.71 -1025.556)" fill="#008738"/>
              <path id="Path_18-2" data-name="Path 18" d="M7930.087,1267.345l-11.859,4.07-.395,1.16,11.907-4.191Z" transform="translate(-7810.546 -1234.167)" fill="#008738"/>
              <path id="Path_19-2" data-name="Path 19" d="M7394.872,1243.012l-11.5,4.99-.3,1.188,11.54-5.115Z" transform="translate(-7318.58 -1211.782)" fill="#008738"/>
              <path id="Path_20-2" data-name="Path 20" d="M8671.314,1289.834l-6.707,2.83-.167.911,6.729-2.926Z" transform="translate(-8497.399 -1254.856)" fill="#008738"/>
              <path id="Path_21-2" data-name="Path 21" d="M8440.757,1216.44a9.857,9.857,0,0,1-.478,1.835,4.843,4.843,0,0,0-.51,2.622c.141,1.048.771,1.048.879,1.018a.294.294,0,0,0,.23-.171,3.11,3.11,0,0,1,.14-.324c.077-.138.278-.462.278-.462s.169-.185.123.14a4.292,4.292,0,0,1-.541,1.572s-.677,1.387-1.369.786-.448-2.082-.4-2.375.431-1.65.632-2.237.586-1.512.633-1.619.261-.648.261-.648S8440.757,1216.3,8440.757,1216.44Z" transform="translate(-8290.027 -1187.301)" fill="#008738"/>
              <path id="Path_22-2" data-name="Path 22" d="M7670.894,1238.458a9.856,9.856,0,0,1-.478,1.835,4.835,4.835,0,0,0-.51,2.622c.14,1.048.771,1.048.879,1.017a.293.293,0,0,0,.23-.17,2.9,2.9,0,0,1,.14-.324c.077-.139.278-.463.278-.463s.168-.184.123.14a4.33,4.33,0,0,1-.541,1.573s-.677,1.387-1.371.786-.447-2.083-.4-2.375.431-1.65.631-2.236.585-1.512.633-1.619.262-.649.262-.649S7670.894,1238.319,7670.894,1238.458Z" transform="translate(-7581.779 -1207.557)" fill="#008738"/>
              <path id="Path_23-2" data-name="Path 23" d="M7808.7,1250.8a9.908,9.908,0,0,1-.479,1.835,4.843,4.843,0,0,0-.51,2.622c.141,1.048.771,1.048.879,1.017a.291.291,0,0,0,.23-.17,3.11,3.11,0,0,1,.14-.324c.077-.138.278-.463.278-.463s.169-.184.124.141a4.3,4.3,0,0,1-.542,1.572s-.677,1.387-1.369.786-.448-2.083-.4-2.375.431-1.65.631-2.236.586-1.512.632-1.619.262-.648.262-.648S7808.7,1250.657,7808.7,1250.8Z" transform="translate(-7708.556 -1218.907)" fill="#008738"/>
              <path id="Path_24-2" data-name="Path 24" d="M6916.794,1196.873a9.783,9.783,0,0,1-.477,1.835,4.839,4.839,0,0,0-.51,2.622c.14,1.048.772,1.048.88,1.017a.3.3,0,0,0,.23-.17,2.884,2.884,0,0,1,.139-.324c.077-.138.278-.463.278-.463s.169-.185.124.141a4.3,4.3,0,0,1-.541,1.572s-.678,1.388-1.371.787-.447-2.083-.4-2.375.431-1.65.631-2.236.585-1.512.632-1.619.263-.649.263-.649S6916.794,1196.734,6916.794,1196.873Z" transform="translate(-6888.034 -1169.3)" fill="#008738"/>
              <path id="Path_25-2" data-name="Path 25" d="M7415.238,907.353a9.831,9.831,0,0,1-.477,1.835,4.828,4.828,0,0,0-.509,2.622c.139,1.048.771,1.048.879,1.018a.3.3,0,0,0,.23-.17,2.908,2.908,0,0,1,.139-.324c.078-.139.279-.463.279-.463s.169-.185.124.14a4.307,4.307,0,0,1-.541,1.572s-.677,1.388-1.371.786-.447-2.082-.4-2.374.431-1.65.631-2.237.585-1.511.633-1.618.262-.649.262-.649S7415.238,907.214,7415.238,907.353Z" transform="translate(-7346.585 -902.951)" fill="#008738"/>
              <path id="Path_26-2" data-name="Path 26" d="M7309.607,1037.93a9.809,9.809,0,0,1-.478,1.835,4.835,4.835,0,0,0-.509,2.622c.139,1.048.771,1.048.879,1.018a.3.3,0,0,0,.23-.17,2.718,2.718,0,0,1,.139-.324c.077-.138.278-.462.278-.462s.169-.185.124.14a4.307,4.307,0,0,1-.541,1.573s-.677,1.388-1.371.786-.447-2.082-.4-2.374.431-1.65.631-2.237.585-1.511.633-1.619.262-.649.262-.649S7309.607,1037.791,7309.607,1037.93Z" transform="translate(-7249.409 -1023.078)" fill="#008738"/>
              <path id="Path_27-2" data-name="Path 27" d="M7138.37,852.842a9.857,9.857,0,0,1-.478,1.835,4.826,4.826,0,0,0-.51,2.622c.14,1.048.771,1.048.879,1.018a.3.3,0,0,0,.23-.17,3.078,3.078,0,0,1,.139-.324c.077-.138.278-.462.278-.462s.169-.185.124.14a4.321,4.321,0,0,1-.541,1.572s-.677,1.387-1.371.786-.447-2.083-.4-2.374.431-1.65.631-2.237.585-1.512.632-1.619.262-.648.262-.648S7138.37,852.7,7138.37,852.842Z" transform="translate(-7091.875 -852.803)" fill="#008738"/>
              <path id="Path_28-2" data-name="Path 28" d="M6895.682,929.006a9.811,9.811,0,0,1-.478,1.835,4.834,4.834,0,0,0-.509,2.622c.139,1.048.771,1.048.879,1.018a.3.3,0,0,0,.23-.171,2.635,2.635,0,0,1,.139-.324c.077-.138.277-.462.277-.462s.169-.185.124.14a4.313,4.313,0,0,1-.54,1.573s-.678,1.387-1.372.786-.447-2.082-.4-2.374.431-1.65.631-2.237.584-1.512.632-1.619.262-.648.262-.648S6895.682,928.867,6895.682,929.006Z" transform="translate(-6868.612 -922.871)" fill="#008738"/>
              <path id="Path_29-2" data-name="Path 29" d="M8513.542,886.178c-.046-.036-.406,1.76-.406,1.76a19.514,19.514,0,0,1,1.48,1.778,7.749,7.749,0,0,1,1.092,2.667,8.033,8.033,0,0,1,.084,2.028,8.234,8.234,0,0,1-.269,1.473,2.6,2.6,0,0,0-.148.574c0,.111.074.2.148.111a2.187,2.187,0,0,0,.333-.629,7.323,7.323,0,0,0,.74-3.158,6.9,6.9,0,0,0-.814-3.565A10.788,10.788,0,0,0,8513.542,886.178Z" transform="translate(-8358.204 -883.506)" fill="#008738"/>
              <path id="Path_30-2" data-name="Path 30" d="M8346.788,906.377a15.356,15.356,0,0,1,1.512-2.346,5,5,0,0,1,2.836-.092c1.481.247,1.728.34,1.666.617a8.326,8.326,0,0,1-1.883,2.808c-1.14,1.08-1.325,1.08-1.509,1.11s-2.652.524-2.652.524-.556,0,.092-.278a29.266,29.266,0,0,0,3.824-1.943c.061-.031.031-.215-.155-.278a3.693,3.693,0,0,0-2.435-.247,6.03,6.03,0,0,0-.925.123S8346.633,906.5,8346.788,906.377Z" transform="translate(-8204.938 -899.721)" fill="#008738"/>
              <path id="Path_31-2" data-name="Path 31" d="M8049.367,877.424a15.315,15.315,0,0,1,1.512-2.345,5,5,0,0,1,2.837-.093c1.48.247,1.728.34,1.666.617a8.361,8.361,0,0,1-1.883,2.808c-1.14,1.08-1.325,1.08-1.509,1.11s-2.653.524-2.653.524-.556,0,.093-.278a29.32,29.32,0,0,0,3.823-1.943c.063-.031.031-.215-.154-.278a3.691,3.691,0,0,0-2.435-.246,6.087,6.087,0,0,0-.926.123S8049.213,877.547,8049.367,877.424Z" transform="translate(-7931.321 -873.085)" fill="#008738"/>
              <path id="Path_32-2" data-name="Path 32" d="M6655.778,1027.087a15.336,15.336,0,0,1,1.513-2.346,5,5,0,0,1,2.836-.092c1.48.246,1.728.34,1.667.617a8.388,8.388,0,0,1-1.884,2.808c-1.139,1.079-1.325,1.079-1.509,1.109s-2.653.525-2.653.525-.555,0,.092-.278a29.3,29.3,0,0,0,3.824-1.943c.063-.031.031-.215-.153-.277a3.7,3.7,0,0,0-2.436-.247,6.022,6.022,0,0,0-.926.123S6655.625,1027.21,6655.778,1027.087Z" transform="translate(-6649.268 -1010.769)" fill="#008738"/>
              <path id="Path_33-2" data-name="Path 33" d="M7661.879,956.117s-5.667,1.708-11.327,4.006c-1.97.767-3.9,1.482-5.578,2.308a3.814,3.814,0,0,0-.423,1.038,143.466,143.466,0,0,1,16.713-6.423A5.236,5.236,0,0,0,7661.879,956.117Z" transform="translate(-7559.136 -947.848)" fill="#008738"/>
              <path id="Path_34-2" data-name="Path 34" d="M7622.274,883.644s-2.144.517-9.893,3.415c-.985.368-5.146,2.05-6.852,2.805-1.924.852-3.8,1.694-3.8,1.694s-.594,1.62-.43,1.561,8.486-3.426,14.364-5.751c4.629-1.709,5.96-2.152,5.96-2.152Z" transform="translate(-7519.319 -881.175)" fill="#008738"/>
              <path id="Path_35-2" data-name="Path 35" d="M7114.537,954.325s-7.262,2.189-14.514,5.133c-2.524.983-5,1.9-7.147,2.957a4.855,4.855,0,0,0-.542,1.331,183.972,183.972,0,0,1,21.416-8.23A6.818,6.818,0,0,0,7114.537,954.325Z" transform="translate(-7051.114 -946.2)" fill="#008738"/>
              <path id="Path_36-2" data-name="Path 36" d="M8062.275,946.784s-7.261,2.189-14.514,5.133c-2.524.984-5,1.9-7.148,2.957a4.893,4.893,0,0,0-.541,1.331,183.791,183.791,0,0,1,21.415-8.229A6.8,6.8,0,0,0,8062.275,946.784Z" transform="translate(-7923.002 -939.262)" fill="#008738"/>
              <path id="Path_37-2" data-name="Path 37" d="M8416.764,1009.175a88.426,88.426,0,0,0-11.708,4.662,41.4,41.4,0,0,0-4.645,2.289,4.909,4.909,0,0,0-.47,1.358,148.766,148.766,0,0,1,16.1-7.077A6.757,6.757,0,0,0,8416.764,1009.175Z" transform="translate(-8254.069 -996.66)" fill="#008738"/>
              <path id="Path_38-2" data-name="Path 38" d="M7043.739,856.464s-10.979,3.867-20.908,7.58c-1.262.472-6.593,2.626-8.779,3.594-2.465,1.092-4.869,2.17-4.869,2.17s-.761,2.076-.551,2,9.115-4.421,24.093-9.744c8.573-2.939,10.179-3.587,10.179-3.587Z" transform="translate(-6974.078 -856.171)" fill="#008738"/>
              <path id="Path_39-2" data-name="Path 39" d="M7963.212,865.218s-10.979,3.867-20.908,7.58c-1.261.472-6.593,2.627-8.778,3.594-2.465,1.092-4.87,2.17-4.87,2.17s-.76,2.076-.551,2,9.115-4.421,24.094-9.744c8.573-2.939,10.179-3.587,10.179-3.587Z" transform="translate(-7819.963 -864.224)" fill="#008738"/>
              <path id="Path_40" data-name="Path 40" d="M8618.219,1082.839a9.229,9.229,0,0,1-.446,1.714,4.493,4.493,0,0,0-.474,2.446c.127.978.717.978.816.95a.276.276,0,0,0,.218-.158,2.34,2.34,0,0,1,.13-.3c.071-.13.258-.432.258-.432s.16-.173.115.129a4.013,4.013,0,0,1-.5,1.469s-.634,1.294-1.281.734-.416-1.943-.373-2.217.4-1.541.591-2.087.546-1.411.588-1.512.246-.6.246-.6S8618.219,1082.71,8618.219,1082.839Z" transform="translate(-8453.391 -1064.395)" fill="#008738"/>
              <path id="Path_41" data-name="Path 41" d="M8252.033,1022.507a9.232,9.232,0,0,1-.446,1.713,4.494,4.494,0,0,0-.474,2.446c.127.979.718.979.817.95a.272.272,0,0,0,.217-.158,2.167,2.167,0,0,1,.13-.3c.071-.13.258-.433.258-.433s.16-.172.115.13a4.012,4.012,0,0,1-.5,1.469s-.634,1.294-1.28.734-.417-1.944-.374-2.217.4-1.54.591-2.087.546-1.411.59-1.511.244-.6.244-.6S8252.033,1022.377,8252.033,1022.507Z" transform="translate(-8116.513 -1008.891)" fill="#008738"/>
              <path id="Path_42" data-name="Path 42" d="M6596.533,1050.947a13.257,13.257,0,0,1-.644,2.469,6.484,6.484,0,0,0-.683,3.527c.184,1.41,1.035,1.41,1.179,1.37a.4.4,0,0,0,.312-.228,3.406,3.406,0,0,1,.187-.434c.1-.188.374-.624.374-.624s.228-.248.166.187a5.819,5.819,0,0,1-.726,2.117s-.913,1.865-1.845,1.057-.6-2.8-.539-3.195.579-2.221.85-3.008.788-2.034.85-2.179.353-.872.353-.872S6596.533,1050.761,6596.533,1050.947Z" transform="translate(-6592.854 -1035.041)" fill="#008738"/>
              <path id="Path_43" data-name="Path 43" d="M7956.125,877.942a11.26,11.26,0,0,1-.542,2.082,5.467,5.467,0,0,0-.576,2.974c.155,1.189.874,1.189.994,1.155a.337.337,0,0,0,.264-.193,2.775,2.775,0,0,1,.157-.367c.087-.158.315-.526.315-.526s.192-.209.139.158a4.9,4.9,0,0,1-.611,1.785s-.77,1.573-1.557.892-.505-2.361-.453-2.694.488-1.873.717-2.536.664-1.714.717-1.836.3-.736.3-.736S7956.125,877.785,7956.125,877.942Z" transform="translate(-7843.968 -875.89)" fill="#008738"/>
              <path id="Path_44" data-name="Path 44" d="M8686.132,1254.018a2.424,2.424,0,0,0,.311-.99.508.508,0,0,0-.776-.35,6.1,6.1,0,0,0-1.513,2.115c0,.466.757.719.989.776-.368.233-.97.447-1.105,1.106-.078.369-.135.369.174.175s2.91-1.65,3.085-1.65a4.279,4.279,0,0,0,.427-1.009s-.059-.058-.156.019-.872.66-1.415.563-1.668-.428-1.3-.815c.33-.253.757-.6.951-.505a.35.35,0,0,1,.174.427C8685.938,1254.018,8686.035,1254.134,8686.132,1254.018Z" transform="translate(-8515.37 -1220.604)" fill="#008738"/>
              <path id="Path_45" data-name="Path 45" d="M8099.215,1253.142c-.218-.328-.407-.172-.767-.078a2.046,2.046,0,0,0-.767.58c-.2-.078-.533.376-.579.455a5.7,5.7,0,0,0-.532.768c-.184.342-.36.564-1.237,1.19-.184.132-.461.259-.72.423a39.194,39.194,0,0,1-6.794,2.914c-1.112.423-.282.407-.282.407s1.206-.3,1.738-.392,1.44-.392,2.207-.595a15.829,15.829,0,0,0,3.977-2.13,5.484,5.484,0,0,0,1.378-1.488c.094-.235.172-.329.36-.345a3.241,3.241,0,0,0,1.158.643c.235.078.611.125.736,0a1.374,1.374,0,0,0,.47-.658A3.123,3.123,0,0,0,8099.215,1253.142Zm-.391,1.473s-.783-.125-.861-.642c0,0,.615-.457.767.063S8098.824,1254.614,8098.824,1254.614Z" transform="translate(-7966.393 -1220.918)" fill="#008738"/>
              <path id="Path_46" data-name="Path 46" d="M7436.563,1039.244a3.807,3.807,0,0,0,.369,1.31,2.166,2.166,0,0,1-.17,1.771.882.882,0,0,1-1.169-.462c-.2.416-.662,1.171-1.324.755-.324-.262-.2-1.417-.2-1.417a.857.857,0,0,0-.2-.555,5.4,5.4,0,0,0,.247-.662s.092-.016.154.215a2.812,2.812,0,0,1,.062.832c0,.133.052.315.046.493a.419.419,0,0,0,.708.355.791.791,0,0,0,.338-.617,2.177,2.177,0,0,0-.338-1.2c.169-.478.262-.678.262-.678s.107-.231.215.108.185,1.263.247,1.587a.7.7,0,0,0,.832.508l.061.016a5.233,5.233,0,0,0-.277-.878A1.448,1.448,0,0,1,7436.563,1039.244Z" transform="translate(-7365.315 -1024.322)" fill="#008738"/>
              <path id="Path_47" data-name="Path 47" d="M7603.155,883.521a15.394,15.394,0,0,1,1.512-2.345,5,5,0,0,1,2.836-.093c1.481.247,1.728.34,1.666.618a8.348,8.348,0,0,1-1.883,2.807c-1.139,1.08-1.325,1.08-1.508,1.11s-2.653.524-2.653.524-.555,0,.092-.278a29.273,29.273,0,0,0,3.824-1.943c.062-.031.032-.215-.154-.278a3.7,3.7,0,0,0-2.436-.246,6.056,6.056,0,0,0-.924.123S7603,883.645,7603.155,883.521Z" transform="translate(-7520.821 -878.694)" fill="#008738"/>
              <path id="Path_48" data-name="Path 48" d="M7063.385,1047.041a9.811,9.811,0,0,1-.478,1.835,4.837,4.837,0,0,0-.51,2.622c.14,1.048.772,1.048.879,1.018a.3.3,0,0,0,.23-.17,3.029,3.029,0,0,1,.139-.324c.077-.139.278-.463.278-.463s.169-.185.125.14a4.322,4.322,0,0,1-.542,1.573s-.678,1.388-1.37.786-.447-2.082-.4-2.374.43-1.65.631-2.237.585-1.511.632-1.618.262-.649.262-.649S7063.385,1046.9,7063.385,1047.041Z" transform="translate(-7022.893 -1031.459)" fill="#008738"/>
              <path id="Path_49" data-name="Path 49" d="M8579.024,901.14s-.573-.43-.913-.354c-.23.051-.372-.067-.549,1.249-.1.763-.115,1.894-.234,2.434-.07.315-.066.636-.139.861,0,0-.3.99-.543.054a11.271,11.271,0,0,0-1.266-3.012,2.194,2.194,0,0,1-1.658-.9c-.266-.536.372-1.2.475-1.206a1.3,1.3,0,0,1,1.266.537,10.232,10.232,0,0,1,1.5,3.263c.059.174.113.04.127-.262a26.407,26.407,0,0,1,.225-3.04c.259-1.271,1.1-1.207,1.424-1.091a.782.782,0,0,1,.563.542C8579.361,900.475,8579.21,901.381,8579.024,901.14Z" transform="translate(-8413.882 -895.865)" fill="#008738"/>
              <path id="Path_50" data-name="Path 50" d="M8152.829,1046.8s-.572-.43-.912-.354c-.231.052-.372-.066-.548,1.25-.1.763-.115,1.894-.235,2.434-.07.315-.067.636-.138.86,0,0-.3.99-.544.055a11.233,11.233,0,0,0-1.267-3.012,2.2,2.2,0,0,1-1.657-.9c-.266-.536.372-1.2.475-1.206a1.3,1.3,0,0,1,1.266.537,10.2,10.2,0,0,1,1.5,3.263c.059.173.114.04.128-.262a26.2,26.2,0,0,1,.225-3.041c.259-1.271,1.1-1.207,1.424-1.091a.787.787,0,0,1,.563.542C8153.167,1046.132,8153.015,1047.037,8152.829,1046.8Z" transform="translate(-8021.798 -1029.864)" fill="#008738"/>
              <path id="Path_51" data-name="Path 51" d="M7710.671,1110.775s-.572-.43-.913-.354c-.231.051-.371-.067-.547,1.249-.1.763-.115,1.894-.235,2.434-.07.315-.067.636-.139.861,0,0-.3.99-.543.054a11.242,11.242,0,0,0-1.267-3.012,2.194,2.194,0,0,1-1.657-.9c-.266-.536.372-1.2.475-1.206a1.3,1.3,0,0,1,1.265.537,10.209,10.209,0,0,1,1.5,3.263c.059.174.114.04.128-.262a25.971,25.971,0,0,1,.225-3.04c.258-1.271,1.1-1.207,1.424-1.092a.783.783,0,0,1,.562.543C7711.009,1110.111,7710.855,1111.016,7710.671,1110.775Z" transform="translate(-7615.028 -1088.722)" fill="#008738"/>
              <path id="Path_52" data-name="Path 52" d="M7209.652,1080.729s-.573-.43-.913-.354c-.231.052-.372-.067-.548,1.249-.1.763-.115,1.895-.235,2.434-.07.315-.067.636-.138.861,0,0-.3.99-.543.054a11.259,11.259,0,0,0-1.267-3.012,2.192,2.192,0,0,1-1.657-.9c-.266-.536.371-1.2.474-1.206a1.3,1.3,0,0,1,1.266.537,10.216,10.216,0,0,1,1.5,3.263c.059.174.114.041.128-.261a26.178,26.178,0,0,1,.224-3.041c.259-1.271,1.1-1.207,1.424-1.091a.783.783,0,0,1,.563.542C7209.99,1080.065,7209.837,1080.97,7209.652,1080.729Z" transform="translate(-7154.108 -1061.082)" fill="#008738"/>
              <path id="Path_53" data-name="Path 53" d="M7039.53,884.012s-.572-.43-.913-.355c-.23.052-.371-.066-.547,1.25-.1.763-.115,1.894-.235,2.434-.07.315-.066.636-.139.86,0,0-.3.99-.543.055a11.231,11.231,0,0,0-1.267-3.012,2.2,2.2,0,0,1-1.657-.9c-.266-.536.372-1.2.475-1.206a1.3,1.3,0,0,1,1.266.537,10.22,10.22,0,0,1,1.5,3.263c.059.173.115.04.128-.262a26.206,26.206,0,0,1,.225-3.041c.259-1.271,1.1-1.206,1.424-1.091a.785.785,0,0,1,.563.542C7039.868,883.347,7039.716,884.252,7039.53,884.012Z" transform="translate(-6997.602 -880.108)" fill="#008738"/>
              <path id="Path_54" data-name="Path 54" d="M6837.337,870.269s-.573-.43-.913-.354c-.231.051-.372-.067-.547,1.249-.1.763-.116,1.9-.235,2.434-.07.315-.067.636-.139.861,0,0-.3.99-.542.054a11.289,11.289,0,0,0-1.267-3.012,2.193,2.193,0,0,1-1.657-.9c-.266-.536.372-1.2.475-1.206a1.3,1.3,0,0,1,1.266.537,10.206,10.206,0,0,1,1.5,3.263c.058.174.115.041.128-.262a26.276,26.276,0,0,1,.224-3.04c.259-1.271,1.1-1.207,1.424-1.091a.782.782,0,0,1,.563.542C6837.675,869.6,6837.523,870.51,6837.337,870.269Z" transform="translate(-6811.591 -867.466)" fill="#008738"/>
              <path id="Path_55" data-name="Path 55" d="M6660.891,1149.352s-.572-.43-.913-.354c-.231.051-.372-.067-.548,1.249-.1.763-.115,1.895-.235,2.433-.07.315-.067.636-.139.861,0,0-.3.99-.543.054a11.27,11.27,0,0,0-1.266-3.012,2.195,2.195,0,0,1-1.658-.9c-.266-.536.372-1.2.475-1.206a1.3,1.3,0,0,1,1.265.537,10.232,10.232,0,0,1,1.5,3.263c.058.174.114.041.127-.261a26.406,26.406,0,0,1,.225-3.041c.259-1.271,1.1-1.207,1.424-1.091a.782.782,0,0,1,.562.542C6661.229,1148.688,6661.076,1149.593,6660.891,1149.352Z" transform="translate(-6649.267 -1124.212)" fill="#008738"/>
            </g>
          </g>
        </g>
      </g>
    </g>
  </g>
</svg>
