<svg xmlns="http://www.w3.org/2000/svg" width="236.017" height="236" viewBox="0 0 236.017 236">
  <g id="Group_18235" data-name="Group 18235" opacity="0.02">
    <path id="Path_1" data-name="Path 1" d="M203.35,0h235.6V236h-236V1.2C202.914.634,202.882.068,203.35,0Zm31.707,42.143a113.947,113.947,0,0,0-28.1,85.49c2.832,34.655,17.769,58.024,38.13,75.856,20.237,17.726,48.6,31.351,85.088,28.5,33.586-2.626,58.478-17.481,76.258-37.727,17.372-19.781,31.7-47.66,28.9-85.49-2.473-33.439-18.693-58.719-38.129-75.857-19.56-17.247-47.676-31.855-85.49-28.9C277.1,6.72,251.946,22.834,235.057,42.143Z" transform="translate(-202.931)" fill="none"/>
    <path id="Path_2" data-name="Path 2" d="M320.94,13.264c37.814-2.957,65.93,11.652,85.49,28.9,19.436,17.138,35.656,42.418,38.129,75.857,2.8,37.83-11.526,65.709-28.9,85.49-17.78,20.246-42.672,35.1-76.258,37.727-36.487,2.855-64.851-10.77-85.088-28.5-20.361-17.832-35.3-41.2-38.13-75.856a113.946,113.946,0,0,1,28.1-85.49C261.169,32.085,286.323,15.971,320.94,13.264ZM279.6,32.128a113.548,113.548,0,0,0-30.1,23.68c-16.516,18.26-29.3,44.376-26.489,80.272,2.5,32.019,16.576,54.356,35.721,71.443,18.314,16.344,45.1,29.462,79.87,26.89,31.884-2.357,55.107-16.49,71.845-35.318,16.609-18.686,29.715-45.321,27.291-80.272-2.249-32.445-17.795-55.357-35.72-71.443-18.193-16.322-44.879-29.909-80.272-27.292A107.355,107.355,0,0,0,279.6,32.128Z" transform="translate(-212.154 -9.25)" fill="#28924f"/>
    <path id="Path_3" data-name="Path 3" d="M339.185,37.619c35.393-2.617,62.079,10.97,80.272,27.292,17.925,16.086,33.471,39,35.72,71.443,2.423,34.951-10.682,61.586-27.291,80.272-16.738,18.828-39.961,32.961-71.845,35.318-34.774,2.572-61.556-10.545-79.87-26.89-19.144-17.087-33.217-39.424-35.721-71.443-2.807-35.9,9.974-62.012,26.489-80.272a113.547,113.547,0,0,1,30.1-23.68A107.355,107.355,0,0,1,339.185,37.619Zm4.415,8.83c-1.143-2.062-6.255-1.293-7.627,0,1.612,2.407,5.559,4.605,5.218,7.626-2.838-2.513-4.427-6.274-10.434-5.619,1.435,4.051,7.648,5.459,8.829,8.429-2.974-1.6-8.092-5.246-12.441-2.81,2.017,2.664,6.7,2.66,9.231,4.817-5.319-1.153-10.731.3-12.843,3.612,1.788.994,5.569-1.291,6.823-.8-.332,2.733-6.232,4.992-2.811,7.626,2.7-2.785,5-5.967,9.232-7.224-1.945,2.337-5.683,2.879-5.62,7.224,1.491.154,1.05-1.627,2.811-1.2v4.013c.929.9,1.315-2.143,3.211-1.605v4.014c3-.876,2.326-5.434,4.414-7.224-.252,3.381-1.47,7.209,0,10.034,6.848-.187,1.344,9.048,3.613,12.442-2.042,2.641.624,9.989-2.007,12.04a23.166,23.166,0,0,0-6.02.8c.255,2.019,1.648,2.9,3.211,3.612,1.527-1.755,4.281-1.19,6.02.4,1.507.3.875-1.533,2.007-1.606,1.262.424,1.694,1.675,3.211.8.815-.257.265-1.877,1.2-2.007,2.543.713,4.432.03,4.416-2.81-2.533-.01-5.242.159-7.225-.4C349,92.827,348,84.99,347.212,76.952a3.4,3.4,0,0,1,2.407.4c.519-3.868-1.342-7.482-1.2-9.633.411,2.131,2.345,2.739,3.612,4.013-.006,2.014.58,3.434,2.809,3.211-.369-4.312-3-6.361-4.414-9.632,3.417,1.165,5.381,5.812,8.428,6.021-.224-4.326-4.468-4.63-5.62-8.028,2.438,2.111,6.8,2.3,10.034,3.612-.075-3-3.508-2.645-4.013-5.218,2.179-.305,3.25.5,5.216.4-.733-5.429-11.38-2.423-14.85-2.81,3.52-2.1,8.812-2.425,13.245-3.612-.377-2.164-3.614-1.469-5.218-2.409-.268-1.74,2.02-.924,1.607-2.809-5.6-2.288-8.154,3.81-10.837,4.414-.119-3.464,3.614-3.075,4.014-6.02a6.23,6.23,0,0,0,3.211-.8c-.79-3.058-3.438-1.343-5.62-.8.193-1.263-.571-1.569-.8-2.409C346.261,44.295,344.96,45.4,343.6,46.449Zm84.686,124.824c.034-1.439.624-2.319.8-3.612,6.619-4.085,12.67-8.737,16.857-15.252-5.68,2.482-10.259,8.2-14.85,10.436,2.159-8.946,13.56-10.788,14.448-19.668-4.742,3.152-8.611,9.315-12.843,11.639.742-10.362,11.689-12.658,11.639-22.475-3.9,3.858-6.219,9.3-10.436,12.843-1.039-11.607,8.832-14.445,8.831-23.68-3.577,3.515-5.2,8.98-8.831,12.442-3.343-10.761,7.184-15.143,5.619-25.286-2.912,3.912-3.857,9.789-6.823,13.646-4.5-7.82,3.658-13.713,2.407-23.278-3.376,2.511-2.606,9.166-5.218,12.442-4.754-5.6,1.13-12.808.4-20.469-4.166.918-2.19,7.977-4.013,11.238-6.018-4.164-.183-12.809-2.007-20.47-2.8,1.881-1.349,8.017-2.811,11.238-4.917-2.707-.34-14.912-4.414-18.462-.242,4.353.065,7.2,0,12.041-5.526-2.9-2.306-14.551-6.823-18.463-.31,4.592,1.484,7.078,1.2,11.639-6.51-2.319-4.346-13.314-9.231-17.259.078,4.2,1.911,6.653,2.408,10.436-6.832-2-6.312-11.348-10.836-15.653-.216,3.831,3.111,6.247,2.409,9.23-6.83-1.465-6.065-10.524-11.641-13.245.387,3.762,3.286,5.01,4.014,8.429-5.564-1.259-8.8-6.989-15.654-5.619,5.549,4.084,15.185,4.08,18.865,10.034-3.157.322-7.837-.88-9.231,1.2,6.458,1.028,14.87-2.513,16.857,4.014-2.948.531-8.172-1.214-9.232,1.2,6.681.143,15.933-.148,16.055,5.218-3.652.012-8.4-1.894-10.838.4,6.091,2.069,16.753-.432,17.259,7.224-2.918-.212-7.85-2.513-10.034-.8,5.2,2.7,16.465,1.445,15.652,8.829-3.946-.737-6.534-2.831-11.238-2.809,4.026,4.8,15.792,1.868,15.654,10.837-3.794-1.16-7.439-4.6-12.041-3.613,4.2,4.362,15.96,3.3,14.85,11.639-4.341-1.546-7.036-4.737-12.041-5.619,3.479,6.155,16.322,5.083,14.85,14.85-4.153-1.732-6.609-5.163-11.639-6.02,2.992,6.241,15.49,5.112,12.844,15.654-2.845-1.838-4.493-4.873-8.028-6.021,1.047,6.951,11.917,5.868,8.83,15.654-2.355-1.418-4.377-4.837-6.823-6.823-1.122-.912-3.562-2.578-4.414-2.007,2.221,6.929,15.3,9.069,10.034,18.463-3.376-4.385-6.136-9.384-10.838-12.442a38.555,38.555,0,0,0,7.225,12.041c1.253,1.45,3.219,2.278,3.613,4.014.389,1.715-.016,5.481-2.007,6.823-3.705-4.723-4.9-11.954-10.034-15.252-.054,8.755,13.367,16.619,7.625,23.68-3.549-4.88-4.726-12.131-9.231-16.055.075,9.418,11.331,15.636,6.02,24.082-3.771-4.926-3.991-13.4-8.829-17.259,1.334,7.9,4.795,13.668,7.224,20.47-1.366,1.844-1.641,4.78-4.415,5.218-.784-7.511-2.237-14.353-5.218-19.668-1.9,10.836,9.247,22.555-.4,27.695-1.1-7.325.147-17-3.611-21.673-1.209,8.471,1.207,16.689,2.005,24.482-1.8,1.674-2.822,4.135-5.618,4.816-.2-6.6.931-15.018-.8-21.673-3.231,5.556-2.412,16.5-1.2,23.279-1.69,2.591-3.753,4.809-7.225,5.619,1.169-7.261,4.047-14.95,2.409-23.68-2.8,7.506-3.341,17.262-4.816,26.089-1.986.516-3.843,2.987-6.021,2.005,2.247-6.851,5.585-14.749,4.816-23.278a74.408,74.408,0,0,0-6.823,24.884c-1.726,1.516-4.852,3.214-7.223,2.81,2.407-6.423,6.226-13.573,5.618-21.673a65.89,65.89,0,0,0-8.027,22.475c-11.517,5.976-33.28,5.871-46.959,2.007-2.567-8.27-5.128-16.545-10.034-22.475-.01,9.24,4.627,13.836,6.421,21.272-2.561-.516-5.182-.972-6.421-2.809-1.955-8.615-4.179-16.96-8.83-22.878-.7,8.085,4.485,15.83,5.62,22.075-1.94-1.13-4.731-1.13-6.02-3.21-1-1.615-.131-2.723-.4-4.816-.854-6.606-4.145-15.394-6.422-20.068-.65,9.49,3.681,16.1,4.013,23.279a17.673,17.673,0,0,1-6.421-4.414c-.03-9.2-.328-18.135-3.612-24.082-.571,7.663.8,15.521.4,21.673-8.69-2.314-1.09-18.807-4.414-27.695-4.032,4.143-1.469,14.63-2.409,20.871-9.315-3.891,1.337-17.919-2.809-27.693-2.111,5.781-2.287,13.5-3.613,20.068-7.551-5.478,3.216-16.648.8-25.688-3.315,4.713-4.113,11.942-6.021,18.061-7.251-6.856,5.262-15.719,3.211-24.884-3.671,4.624-5.012,11.577-7.625,17.259-5.1-8.607,6.134-14.938,6.422-24.484-5.167,3.4-5.713,11.412-10.034,15.654-3.561-9.7,7.3-13.994,8.027-23.279-4.947,3.214-6.663,9.658-10.435,14.047a21.209,21.209,0,0,1-1.2-7.223c4.231-4.331,8.95-8.176,11.238-14.45-5,2.356-7.791,6.926-11.238,10.837-2.854-9.781,9.957-10.569,11.639-18.463-5.877,1.213-7.269,6.913-12.04,9.231-1.846-10.285,10.634-9.692,12.843-17.258-5.712.843-7.2,5.907-12.04,7.625a8.1,8.1,0,0,1,.8-5.619c3.02-4.568,13.655-5.58,13.245-10.435-4.627,1.258-6.945,4.828-11.639,6.02-.212-2.084.529-3.216.8-4.816,2.082-1.012,4.921-2.654,7.626-4.014,2.508-1.261,6.716-2.229,6.021-4.415-4.6.515-8.049,4.223-11.64,4.415,1.025-8.073,12.841-5.353,16.054-11.238-5.215.03-8.864,3.676-12.843,3.613.76-8.337,12.713-5.482,16.857-10.435-4.091-.036-7.357,2.754-11.238,1.605,1.12-7.442,13.046-4.079,17.258-8.428-4.524-.733-7.961,1.609-11.238.8.79-7.237,12.5-3.559,17.258-6.823-2.559-1.262-7.558.4-9.632-.4,1.5-6.076,10.729-1.957,16.456-3.612-1.24-2.641-6.43-1.331-9.232-2.408,3.73-5.234,12.936-4.992,16.857-10.034-6.07-.049-8.835,5.343-13.647,5.217.24-2.709,2.976-5.043,2.007-7.626-3.206,4.689-4.8,13.123-10.837,13.646.336-2.347,2.433-5.05,1.2-7.626-3.232,4.663-3.065,14.861-9.231,15.252.675-3.874,2.454-6.643,2.81-10.837-5.6,2.963-3.143,16.121-8.829,17.66.068-4.079,1.591-6.7,1.2-11.239-4.984,3.712-.5,16.893-7.224,18.864.142-4.094,1.934-9.3-.4-12.442-2.8,4.956,1.08,18.739-4.013,20.068-.638-4.046.156-9.521-2.007-12.041-3.351,7.309,3.75,18.407-2.809,22.075.037-5.523-.4-10.57-2.408-14.048-1.83,9.863,4.575,17.539,0,24.082-1.566-4.856-1.791-11.053-4.817-14.449-1.637,10.449,6.6,14.911,3.211,24.483-2.953-4.272-3.182-11.268-7.626-14.048-.308,10.343,8.51,13.7,6.824,24.082-3.9-3.593-4.482-10.5-10.034-12.441,1.016,9.954,11.86,12.221,10.435,23.279-4-3.9-6.358-9.428-11.639-12.041,1.933,9.474,13.052,11.943,13.647,22.075-5.083-3.212-7.742-8.848-13.647-11.237a26.877,26.877,0,0,0,6.422,9.23c3.424,3.028,9.867,4.576,9.231,10.436-4.851-2.91-8.693-8.966-14.85-9.232,4.254,7.92,16.172,8.177,18.864,17.661-5.852-2.711-9.634-7.493-16.857-8.83,4.182,8.26,18.664,8.36,20.871,17.259-5.792-2.236-11.005-7.189-18.061-6.823,5.553,7.023,18.95,6.2,23.279,14.449-5.921-1.705-11.8-5.585-19.265-4.414a51.463,51.463,0,0,0,21.673,7.225c1.36,1.583,3.625,2.26,4.013,4.816-6.391-1.264-13.149-3.75-20.47-2.811,6.663,7.253,26.072,1.756,30.1,11.639-7.024-.624-16.07-2.977-22.877-1.2,6.731,7.081,27.986-.195,32.108,7.627-7.214,1.215-17.54-.684-22.476,2.809,11.615,4.874,27.055-4.563,34.919,3.211-7.594,2.306-18.145,1.656-24.082,5.619a57.686,57.686,0,0,0,9.633.4c10.271-.537,19.562-6.5,25.285-2.407-6.841,3.193-13.7,6.371-18.463,11.639,2.848,2.237,6.82,3.348,10.837,4.414,8.218-7.563,19.439-14.909,34.516-14.448,12.7.387,21.949,7.174,29.7,12.843,3.139-1.945,7.71-2.46,10.034-5.218-4.225-5.941-13.615-6.719-19.265-11.238,9.474-4.728,22.108,4.431,34.516.4-6.083-3.281-16.3-2.429-23.68-4.416,6.026-8.119,23.3,1.611,32.913-4.414-6.515-1.38-14.8-.99-21.272-2.409,4.449-7.937,24.028-1.712,30.5-8.427-7.632-.66-14.886,1.147-20.87.8,1.953-5.216,6.957-4.6,13.245-5.62,6.426-1.04,11.584-4.07,15.652-6.422-7.2-.857-14.3,3.848-20.87,3.613,3.851-8.86,20.179-5.239,24.482-13.647-7.323.438-12.291,5.368-18.462,5.62,3.983-9,18.132-7.821,22.879-16.055-6.7,1.729-12.753,6.245-18.063,8.029-.14-2.149,1.115-2.9,1.607-4.416,7.034-2.866,14.44-7.5,17.659-12.843C438.152,164.547,433.121,169.55,428.286,171.272Zm-81.877-56.191c-8.25-6.715-24.239-19.136-37.727-12.442,15.352,1.64,26.593,7.39,34.516,16.456a22.948,22.948,0,0,1-6.02,5.217c-1.04-.432-.939-2-2.811-1.606-1.2,1.912,1.084,1.9,1.205,3.613-3.021,3.446-8.512-2.016-11.239,1.2v3.211c3.369,4.024,10.475,1.564,14.048-.8,1.725.015,1.346,2.133,3.613,1.606,1.558-2.089-2.288-2.5-1.2-4.013a13.178,13.178,0,0,1,6.02-5.619,24.8,24.8,0,0,1,6.421,6.02c-.582,1.024-2.2,1.016-1.605,3.212,4.363-2.77,7.043,2.044,13.245,1.2,2.678-.362,6.182-2.169,5.62-4.816-.983-4.622-8.273,1.806-11.639-2.007-.168-1.64,1.321-1.622.8-3.612-2.672-.8-1.4,2.346-3.613,2.007-2.976-.9-4.681-3.077-6.02-5.619,8.35-10.113,20.643-16.282,36.524-18.865C367.739,94.75,356.848,107.477,346.409,115.081Zm-62.21,29.3c6.019,28.08,26.838,49.272,58.2,51.374,39.12,2.622,62.288-22.08,69.032-52.579H391.762c-5.6,20.534-22.79,35.632-49.366,33.314-20.468-1.785-34.111-15.428-38.932-33.314H284.2C283.514,143.341,284.282,143.694,284.2,144.381Zm23.278,0a38.559,38.559,0,0,0,9.232,16.455c21.53,21.762,66.1,12.446,71.441-17.661H369.687c-4.535,7.05-11.931,13-22.475,12.845s-17.156-6.436-22.075-12.845H307.076A1.888,1.888,0,0,0,307.476,144.381Z" transform="translate(-229.596 -26.783)" fill="none"/>
    <g id="Group_1" data-name="Group 1" transform="translate(79.086 17.916)">
      <path id="Path_4" data-name="Path 4" d="M561.881,63.705c.23.839.994,1.146.8,2.409,2.182-.54,4.829-2.256,5.62.8a6.231,6.231,0,0,1-3.211.8c-.4,2.945-4.133,2.556-4.014,6.02,2.683-.6,5.236-6.7,10.837-4.414.413,1.885-1.875,1.069-1.607,2.809,1.6.94,4.84.245,5.218,2.409-4.432,1.187-9.725,1.511-13.245,3.612,3.47.387,14.117-2.62,14.85,2.81-1.967.094-3.038-.707-5.216-.4.5,2.573,3.937,2.217,4.013,5.218-3.235-1.313-7.6-1.5-10.034-3.612,1.152,3.4,5.4,3.7,5.62,8.028-3.048-.209-5.012-4.855-8.429-6.021,1.411,3.271,4.045,5.32,4.414,9.632-2.229.223-2.815-1.2-2.809-3.211-1.267-1.274-3.2-1.882-3.612-4.013-.139,2.151,1.723,5.765,1.2,9.633a3.4,3.4,0,0,0-2.407-.4c.792,8.037,1.785,15.875,2.809,23.681,1.983.56,4.692.391,7.225.4.016,2.84-1.873,3.523-4.416,2.81-.939.131-.389,1.75-1.2,2.007-1.517.872-1.948-.38-3.211-.8-1.132.073-.5,1.908-2.007,1.606-1.739-1.591-4.493-2.157-6.02-.4-1.563-.712-2.956-1.593-3.211-3.612a23.165,23.165,0,0,1,6.02-.8c2.631-2.051-.034-9.4,2.007-12.04-2.268-3.394,3.235-12.629-3.612-12.442-1.47-2.825-.252-6.653,0-10.034-2.089,1.79-1.411,6.348-4.415,7.224V89.393c-1.9-.538-2.282,2.509-3.211,1.605V86.985c-1.76-.423-1.319,1.357-2.81,1.2-.064-4.345,3.675-4.887,5.62-7.224-4.228,1.257-6.531,4.44-9.232,7.224-3.422-2.633,2.479-4.893,2.81-7.626-1.254-.488-5.035,1.8-6.823.8,2.112-3.311,7.524-4.765,12.843-3.612-2.527-2.157-7.214-2.153-9.231-4.817,4.349-2.436,9.467,1.205,12.441,2.81-1.181-2.969-7.393-4.378-8.829-8.429,6.007-.656,7.6,3.106,10.434,5.619.341-3.02-3.606-5.219-5.218-7.626,1.372-1.293,6.483-2.062,7.627,0C557.621,64.264,558.923,63.157,561.881,63.705Z" transform="translate(-521.343 -63.56)" fill="#28924f"/>
      <path id="Path_5" data-name="Path 5" d="M561.371,255.165c-15.881,2.582-28.173,8.752-36.524,18.865,1.339,2.541,3.044,4.716,6.02,5.619,2.213.339.941-2.807,3.612-2.007.519,1.991-.97,1.972-.8,3.612,3.366,3.813,10.656-2.615,11.639,2.007.562,2.648-2.941,4.454-5.62,4.816-6.2.841-8.881-3.974-13.245-1.2-.59-2.2,1.024-2.188,1.605-3.212a24.8,24.8,0,0,0-6.421-6.02,13.179,13.179,0,0,0-6.02,5.619c-1.084,1.517,2.761,1.924,1.2,4.013-2.267.527-1.888-1.591-3.612-1.606-3.573,2.368-10.679,4.828-14.048.8v-3.211c2.727-3.22,8.218,2.242,11.239-1.2-.121-1.708-2.4-1.7-1.205-3.613,1.872-.4,1.77,1.173,2.81,1.606a22.943,22.943,0,0,0,6.02-5.217c-7.924-9.066-19.165-14.817-34.516-16.456,13.488-6.694,29.477,5.727,37.727,12.442C531.674,263.214,542.565,250.487,561.371,255.165Zm-35.72,23.279a3.865,3.865,0,0,0-3.212-2.809C522.823,277.259,524.305,277.782,525.651,278.444Zm12.039,7.626c1.744-.8,4.733-.351,5.218-2.408C541.707,282.106,538.347,284.494,537.69,286.07Zm-36.925-.4c1.343-1.156,4.553.609,4.818-.8C504.133,284,499.611,282.567,500.765,285.668Z" transform="translate(-483.508 -200.435)" fill="#28924f"/>
    </g>
    <path id="Path_6" data-name="Path 6" d="M621.625,330.352a3.864,3.864,0,0,1,3.212,2.809C623.492,332.5,622.009,331.975,621.625,330.352Z" transform="translate(-503.609 -237.236)" fill="#fff"/>
    <path id="Path_7" data-name="Path 7" d="M680.953,357.542c-.485,2.057-3.474,1.61-5.218,2.408C676.391,358.374,679.751,355.985,680.953,357.542Z" transform="translate(-542.467 -256.399)" fill="#fff"/>
    <path id="Path_8" data-name="Path 8" d="M549.076,360.306c-.265,1.411-3.476-.354-4.818.8C543.1,358.007,547.625,359.435,549.076,360.306Z" transform="translate(-447.915 -257.959)" fill="#fff"/>
    <path id="Path_9" data-name="Path 9" d="M477.81,412.936h18.061c4.919,6.409,11.545,12.695,22.075,12.845s17.94-5.795,22.475-12.845h18.463c-5.339,30.107-49.912,39.423-71.441,17.661a38.558,38.558,0,0,1-9.232-16.455A1.888,1.888,0,0,1,477.81,412.936Zm16.054,6.423h2.007v-2.007c-1.153-.05-1.906-.5-1.605-2.007-1.135.332-1.04-.565-2.007-.4C491.43,417.78,494.44,416.776,493.864,419.359Zm52.177-3.613c-.549,1.385.822,3.872,2.809,4.013,1.5.426,1.3-.845,2.007-1.2,1.4,1.88-.839,4.434,0,5.62C555.658,421.246,551.536,413.867,546.041,415.747Zm-60.2,6.421c1.615.258,4.267-.523,5.218.4-.023,1.315-1.142,1.534-.8,3.211,3.83,3.261,6.6,7.578,12.844,8.428,1.1,2.533,5.19,2.768,8.429,2.007,1.927.618,3.665,1.173,4.013-1.205-3.273.044-7.039-6.849-9.231-1.605a3.826,3.826,0,0,1,3.211,1.2c-6.479.037-4.026-4.61-2.409-8.427-3.139.338-2.322,4.633-4.414,6.02-1.112-1.417-4.991-1.341-3.612-4.014-3.394.918-4.557-2.249-6.422-4.013-.043-1.246,1.262-1.146.8-2.811-1.531-1.537-4.713.349-5.618-1.2.041-1.831,2.108-1.636,2.407-3.21C487.863,417.682,484.94,419.421,485.837,422.168Zm54.986-4.414v2.006h2.007c-.244-.826.647-2.788-.8-2.408C541.959,417.819,541.393,417.788,540.823,417.754Zm4.816,8.829c-.753-3.8-4.158-4.939-6.823-6.823C539.343,423.782,543.335,424.339,545.639,426.583Zm-2.007-6.422c-.189,1.261,1.081,1.06,1.205,2.007.943-.127,1.506-.634,2.809-.4.946,2.368-.09,4.212-.8,6.021C552.779,426.993,549.092,417.5,543.632,420.161Zm-11.639,7.225c2.718.711,1.713-2.3,4.416-1.605v-2.007H534.4C534.674,426.054,531.372,424.759,531.992,427.386Zm8.029-.4c1.135.069,2.753-.344,2.809.8.429,2.7-1.006,3.542-1.605,5.217,1.654-.219,2.489-1.256,3.612-2.005.234-4.114-1.592-6.168-5.218-6.423C538.734,425.423,540.134,425.763,540.021,426.984Zm-6.423,8.429a14.1,14.1,0,0,0-3.211-8.83A9.869,9.869,0,0,0,533.6,435.413ZM536.007,433c3.3.292,3.915-2.154,3.211-4.816a5.157,5.157,0,0,0-3.613-1.2C534.745,428.566,535.21,431.8,536.007,433Zm-6.823,1.205c-1.792.348-3.286.995-5.218,1.2-.844-1.429-.834-3.714-2.007-4.816-1.221,1.646-.286,2.8,0,4.816-.771.653-3.361.692-3.613-.4a3.137,3.137,0,0,0,0,3.211c5.047-.836,7.713-.16,12.443-2.006.675-3.709-2.237-4.744-1.2-7.626-1.516.178-1.885-.792-2.811-1.2C525.393,430.5,529.025,431.37,529.184,434.209Zm-20.068-5.619c-.211,2.239,1.727,2.2,2.809,1.2C511.913,428.12,510.363,427.987,509.115,428.59Zm7.225,9.632c1.411-1.328,2.018-7.526.4-9.231C515.268,430.827,515.784,435.2,516.34,438.222Zm-22.075-4.816c1.2-1.808-1.878-2.254-2.007-4.013h-2.007C491.042,431.278,491.86,433.137,494.266,433.406Z" transform="translate(-400.33 -296.543)" fill="#28924f"/>
    <path id="Path_10" data-name="Path 10" d="M528.7,420.007c.967-.163.872.733,2.007.4-.3,1.5.452,1.956,1.605,2.007v2.008h-2.007C530.884,421.839,527.874,422.844,528.7,420.007Z" transform="translate(-436.773 -301.606)" fill="#fff"/>
    <path id="Path_11" data-name="Path 11" d="M446.485,424.282c.967-.165.872.732,2.007.4-.477,2.216,1.279,2.2.8,4.416C446.593,429.256,446.834,426.473,446.485,424.282Z" transform="translate(-377.835 -304.676)" fill="#fff"/>
    <path id="Path_12" data-name="Path 12" d="M788.226,425.753c3.266.614,6.957.8,8.83,2.811C794.363,428.977,789.154,428.443,788.226,425.753Z" transform="translate(-623.25 -305.747)" fill="#fff"/>
    <path id="Path_13" data-name="Path 13" d="M510.282,427.179c-.3,1.574-2.367,1.38-2.407,3.21.9,1.553,4.086-.333,5.618,1.2.461,1.664-.844,1.565-.8,2.811,1.865,1.764,3.028,4.931,6.422,4.013-1.379,2.673,2.5,2.6,3.612,4.014,2.092-1.387,1.275-5.682,4.414-6.019-1.617,3.817-4.07,8.464,2.409,8.427a3.826,3.826,0,0,0-3.211-1.2c2.191-5.244,5.957,1.649,9.231,1.605-.348,2.378-2.086,1.823-4.013,1.205-3.239.761-7.333.526-8.429-2.007-6.242-.851-9.015-5.167-12.844-8.428-.338-1.677.78-1.9.8-3.211-.95-.924-3.6-.144-5.218-.4C504.971,429.65,507.894,427.91,510.282,427.179Z" transform="translate(-420.361 -306.771)" fill="#fff"/>
    <path id="Path_14" data-name="Path 14" d="M424.647,428.6c-.519,1.488-2.882,1.132-3.211,2.809,1.176,1.233,4,.82,5.217,2.007.275,1.746-.722,2.221-1.605,2.809.608,1.8,1.934,2.884,2.409,4.816.657-.947,1.09-2.12,3.211-1.605-.068,2.216-2.959,3.719-4.415,3.211-1.822-1.12-2.442-3.444-3.612-5.216-.083-1.689,1.525-1.687,1.605-3.212-.763-1.375-3.928-.351-4.816-1.605C419.4,429.511,422.167,429.2,424.647,428.6Z" transform="translate(-358.405 -307.794)" fill="#fff"/>
    <path id="Path_15" data-name="Path 15" d="M702.572,428.48c1.45-.38.56,1.581.8,2.408h-2.007v-2.006C701.938,428.916,702.5,428.947,702.572,428.48Z" transform="translate(-560.875 -307.67)" fill="#fff"/>
    <path id="Path_16" data-name="Path 16" d="M694.247,437.145c2.665,1.884,6.07,3.028,6.823,6.823C698.766,441.724,694.775,441.167,694.247,437.145Z" transform="translate(-555.761 -313.928)" fill="#fff"/>
    <path id="Path_17" data-name="Path 17" d="M714.5,445c.713-1.809,1.749-3.654.8-6.021-1.3-.232-1.867.274-2.809.4-.124-.947-1.395-.746-1.205-2.007C716.744,434.708,720.432,444.2,714.5,445Z" transform="translate(-567.982 -313.754)" fill="#fff"/>
    <path id="Path_18" data-name="Path 18" d="M738.149,439.909c-2.973,2.019-2.02,6.564-5.62,7.225-.008.946.692,1.181.4,2.407-.781.825-1.253,1.96-2.809,2.007a2.254,2.254,0,0,1,.4,1.605,65.627,65.627,0,0,1-16.055,15.252c-1.81.338-2-.939-3.211-1.2-1.014,1.393.356,5.172-1.605,5.62-2.325-.751-3.444-2.709-4.014-5.218,1.68.326,1.166,2.848,3.211,2.809.875-1.4.207-4.341,1.605-5.218,1.1-1.05,1.713.646,2.81.8,4.4-1.89,6.969-5.608,10.436-8.429-4.243.041-5.747,6.293-10.436,7.223-1.259-3.471.534-7.173,2.007-9.23,2,2.165-.9,4.153-1.205,6.421,3.023-.568,5.946-8.62,10.838-6.02,1.44-1.236,2.369-2.982,3.612-4.416-1.409-2.069-5.345-1.612-5.62-4.816,2.435.509,3.541,2.347,6.02,2.809,1.373.17,1.207-1.2,2.007-1.606-.588-1.285-1.515-2.229-1.2-4.414,2.309.3,3.823-.191,4.414-1.605-1.581-1.63-5.793-.629-6.823-2.809,2.513-1.982,3.745-.253,6.022.8C735.4,439.38,736.571,438.023,738.149,439.909Z" transform="translate(-563.941 -314.686)" fill="#fff"/>
    <path id="Path_19" data-name="Path 19" d="M672.25,451.386h2.007v2.007c-2.7-.7-1.7,2.316-4.416,1.605C669.221,452.371,672.523,453.666,672.25,451.386Z" transform="translate(-538.179 -324.155)" fill="#fff"/>
    <path id="Path_20" data-name="Path 20" d="M696.346,454.23c3.625.255,5.451,2.309,5.218,6.423-1.124.75-1.958,1.787-3.613,2.006.6-1.674,2.034-2.513,1.605-5.217-.056-1.148-1.674-.735-2.809-.8C696.86,455.417,695.461,455.077,696.346,454.23Z" transform="translate(-557.056 -326.197)" fill="#fff"/>
    <path id="Path_21" data-name="Path 21" d="M664.159,461.352a14.1,14.1,0,0,1,3.211,8.83A9.869,9.869,0,0,1,664.159,461.352Z" transform="translate(-534.102 -331.312)" fill="#fff"/>
    <path id="Path_22" data-name="Path 22" d="M681.681,462.743a5.157,5.157,0,0,1,3.613,1.2c.7,2.662.088,5.108-3.211,4.816C681.286,467.554,680.82,464.324,681.681,462.743Zm2.007,2.409h-1.605C681.446,467.017,684.157,466.545,683.688,465.152Z" transform="translate(-546.405 -332.301)" fill="#fff"/>
    <path id="Path_23" data-name="Path 23" d="M628.927,464.2c.926.412,1.3,1.382,2.81,1.2-1.033,2.882,1.879,3.918,1.2,7.626-4.729,1.846-7.4,1.17-12.442,2.006a3.136,3.136,0,0,1,0-3.211c.252,1.094,2.841,1.055,3.613.4-.286-2.018-1.222-3.17,0-4.816,1.172,1.1,1.162,3.387,2.007,4.816,1.932-.209,3.426-.856,5.218-1.2C631.178,468.185,627.546,467.318,628.927,464.2Z" transform="translate(-502.482 -333.358)" fill="#fff"/>
    <path id="Path_24" data-name="Path 24" d="M425.019,465.627h1.606c.024,1.983,1.953,2.059,1.605,4.414h-1.605C426.6,468.059,424.672,467.98,425.019,465.627Z" transform="translate(-362.389 -334.382)" fill="#fff"/>
    <path id="Path_25" data-name="Path 25" d="M591.645,468.84c-1.082,1-3.019,1.036-2.809-1.2C590.084,467.033,591.634,467.166,591.645,468.84Z" transform="translate(-480.051 -335.589)" fill="#fff"/>
    <path id="Path_26" data-name="Path 26" d="M613.479,469.9c1.618,1.705,1.011,7.9-.4,9.231C612.522,476.1,612.006,471.733,613.479,469.9Z" transform="translate(-497.068 -337.448)" fill="#fff"/>
    <path id="Path_27" data-name="Path 27" d="M521.952,471.323h2.007c.129,1.759,3.208,2.2,2.007,4.013C523.561,475.066,522.742,473.208,521.952,471.323Z" transform="translate(-432.03 -338.472)" fill="#fff"/>
    <path id="Path_28" data-name="Path 28" d="M684.033,471.323h1.606C686.107,472.716,683.4,473.188,684.033,471.323Z" transform="translate(-548.356 -338.472)" fill="#237424"/>
    <path id="Path_29" data-name="Path 29" d="M443.637,483.995h2.007c-.062,1,.631,1.243.8,2.007,1.882-.616,1.55-2.394,3.612-2.007.636,1.473-2.1,2.6-2.809,4.014C445.037,487.679,444.009,486.165,443.637,483.995Z" transform="translate(-375.79 -347.533)" fill="#fff"/>
    <path id="Path_30" data-name="Path 30" d="M704.758,524.008c-.671,2-2.287,3.064-4.816,3.211C700.246,524.846,702.243,524.168,704.758,524.008Z" transform="translate(-559.851 -376.307)" fill="#fff"/>
    <path id="Path_31" data-name="Path 31" d="M643.962,532.548a12.289,12.289,0,0,1,4.014,8.429c-2.053-1.024-2.691-3.462-3.613-5.617-1.282,2.229,1.6,3.744.8,6.823-4.839,1.14-7.22,3.163-13.646,3.211-.867.871-1.029,2.448-2.005,3.211a6.431,6.431,0,0,1-3.613-.8c1.506-.768,3.3-1.244,4.013-2.809-1.07-1.355-1.761-1.793-1.2-4.014,1.652,2.522,5.585,2.048,8.83,1.205-.162-.776-1.839-.036-1.2-1.605.207-2.6,6.062-2.476,4.414.4a15.012,15.012,0,0,0,2.809-.8c-.314-2.763-2.86-3.294-2.408-6.823,1,.2,1.339,1.068,2.408,1.2C644.431,534.624,643.743,533.131,643.962,532.548Z" transform="translate(-506.679 -382.44)" fill="#fff"/>
    <path id="Path_32" data-name="Path 32" d="M563.431,538.243c1.216,1.614,2.8.394,4.012,2.007-1.421,2.153-4.5.622-5.618-.8C561.935,538.622,563.32,539.069,563.431,538.243Z" transform="translate(-460.665 -386.53)" fill="#fff"/>
    <path id="Path_33" data-name="Path 33" d="M555.927,552.485c2.05.244-1.229,2.856.4,4.014,2.588-.086,2.418-2.934,5.618-2.409.67.535.136,2.273.8,2.809,2.714.321,6.487,1.032,8.027-.8-.438,1.909,1.306,1.638,2.809,1.605.49-1.029-.7-1.627.4-3.211,2.418.67,1.935,3.593,1.205,5.618-5.683-.581-8.731.31-14.048-1.2-.127-.942-.633-1.506-.4-2.809-2.656.019-2.332,3.02-5.218,2.809C553.76,557.3,555.412,554.254,555.927,552.485Z" transform="translate(-455.569 -396.758)" fill="#fff"/>
    <path id="Path_34" data-name="Path 34" d="M598.987,582.388c.007.8,1.1.509.8,1.605-.357.178-.718.353-.8.8-1.569-1.052-3.038.165-4.414-1.2C595.8,581.3,597.055,583.756,598.987,582.388Z" transform="translate(-484.182 -418.232)" fill="#fff"/>
    <path id="Path_35" data-name="Path 35" d="M617.319,584.367c-.528.142-.632.707-1.2.8a1.509,1.509,0,0,1-1.605-1.607C615.519,582.7,617.259,582.443,617.319,584.367Z" transform="translate(-498.499 -418.605)" fill="#fff"/>
    <path id="Path_36" data-name="Path 36" d="M466.4,203.148c-3.219,5.344-10.625,9.977-17.659,12.843-.492,1.517-1.747,2.267-1.607,4.416,5.309-1.784,11.362-6.3,18.063-8.029-4.746,8.234-18.9,7.06-22.879,16.055,6.171-.252,11.14-5.182,18.463-5.62-4.3,8.407-20.631,4.787-24.482,13.647,6.57.235,13.671-4.47,20.87-3.613-4.068,2.352-9.226,5.381-15.652,6.422-6.288,1.019-11.292.4-13.245,5.62,5.984.345,13.238-1.462,20.87-.8-6.474,6.716-26.054.49-30.5,8.427,6.475,1.419,14.757,1.029,21.272,2.409-9.608,6.026-26.887-3.7-32.913,4.414,7.38,1.987,17.6,1.135,23.68,4.416-12.409,4.029-25.042-5.13-34.516-.4,5.649,4.519,15.04,5.3,19.265,11.237-2.324,2.758-6.9,3.273-10.034,5.218-7.751-5.669-17-12.456-29.7-12.843-15.077-.461-26.3,6.885-34.516,14.448-4.017-1.066-7.989-2.177-10.837-4.414,4.765-5.268,11.621-8.446,18.463-11.639-5.723-4.093-15.014,1.87-25.285,2.407a57.7,57.7,0,0,1-9.633-.4c5.937-3.963,16.488-3.314,24.082-5.619-7.863-7.774-23.3,1.662-34.919-3.211,4.936-3.493,15.262-1.594,22.476-2.809-4.122-7.821-25.377-.545-32.108-7.627,6.807-1.774,15.853.58,22.877,1.2-4.03-9.884-23.44-4.386-30.1-11.639,7.321-.939,14.079,1.547,20.47,2.811-.389-2.556-2.654-3.234-4.013-4.816a51.463,51.463,0,0,1-21.673-7.225c7.46-1.171,13.344,2.709,19.265,4.414-4.329-8.246-17.725-7.426-23.279-14.449,7.056-.366,12.27,4.588,18.061,6.823-2.206-8.9-16.689-9-20.871-17.259,7.223,1.337,11.006,6.119,16.857,8.83-2.692-9.483-14.611-9.74-18.864-17.661,6.157.266,10,6.322,14.85,9.232.636-5.86-5.807-7.408-9.231-10.436a26.877,26.877,0,0,1-6.422-9.23c5.9,2.389,8.563,8.025,13.647,11.237-.594-10.132-11.714-12.6-13.647-22.075,5.282,2.613,7.641,8.146,11.639,12.041,1.425-11.058-9.419-13.325-10.435-23.279,5.553,1.939,6.136,8.848,10.034,12.441,1.687-10.383-7.131-13.739-6.823-24.082,4.444,2.78,4.673,9.776,7.626,14.048,3.393-9.572-4.849-14.034-3.211-24.483,3.026,3.4,3.251,9.593,4.817,14.449,4.575-6.543-1.83-14.22,0-24.082,2.007,3.479,2.445,8.525,2.408,14.048,6.559-3.668-.542-14.767,2.809-22.075,2.163,2.52,1.369,8,2.007,12.041,5.094-1.33,1.208-15.112,4.013-20.068,2.335,3.145.544,8.348.4,12.442,6.724-1.971,2.24-15.152,7.224-18.864.387,4.534-1.135,7.16-1.2,11.239,5.687-1.539,3.23-14.7,8.829-17.66-.355,4.193-2.134,6.963-2.81,10.837,6.167-.391,6-10.589,9.231-15.252,1.23,2.576-.868,5.279-1.2,7.626,6.034-.523,7.631-8.957,10.837-13.646.969,2.583-1.767,4.917-2.007,7.626,4.811.126,7.576-5.266,13.647-5.217-3.921,5.041-13.127,4.8-16.857,10.034,2.8,1.077,7.993-.233,9.232,2.408-5.728,1.655-14.96-2.464-16.456,3.612,2.074.8,7.074-.861,9.632.4-4.762,3.265-16.468-.414-17.258,6.823,3.277.806,6.714-1.535,11.237-.8-4.212,4.35-16.138.986-17.258,8.428,3.881,1.149,7.148-1.641,11.238-1.605-4.144,4.953-16.1,2.1-16.857,10.435,3.979.063,7.628-3.583,12.843-3.613-3.212,5.885-15.029,3.166-16.054,11.238,3.59-.193,7.043-3.9,11.639-4.415.695,2.186-3.513,3.155-6.021,4.415-2.7,1.359-5.544,3-7.626,4.013-.274,1.6-1.015,2.732-.8,4.816,4.694-1.191,7.012-4.761,11.639-6.02.411,4.855-10.225,5.867-13.245,10.435a8.1,8.1,0,0,0-.8,5.619c4.837-1.718,6.328-6.782,12.04-7.625-2.209,7.566-14.689,6.972-12.843,17.258,4.771-2.318,6.164-8.017,12.04-9.231-1.682,7.893-14.493,8.682-11.639,18.463,3.448-3.911,6.236-8.481,11.238-10.837-2.289,6.274-7.007,10.119-11.238,14.45a21.207,21.207,0,0,0,1.2,7.223c3.772-4.388,5.487-10.832,10.435-14.047-.722,9.284-11.588,13.574-8.027,23.279,4.321-4.241,4.867-12.258,10.034-15.654-.288,9.546-11.525,15.877-6.422,24.484,2.613-5.682,3.955-12.635,7.625-17.259,2.051,9.165-10.462,18.028-3.211,24.884,1.908-6.119,2.706-13.348,6.021-18.061,2.413,9.039-8.353,20.21-.8,25.688,1.325-6.569,1.5-14.287,3.613-20.068,4.146,9.774-6.506,23.8,2.809,27.693.94-6.242-1.623-16.728,2.409-20.871,3.324,8.888-4.275,25.381,4.414,27.695.4-6.152-.972-14.011-.4-21.673,3.283,5.948,3.581,14.881,3.612,24.082a17.673,17.673,0,0,0,6.421,4.414c-.332-7.174-4.663-13.789-4.013-23.279,2.277,4.674,5.567,13.462,6.422,20.068.271,2.093-.6,3.2.4,4.816,1.288,2.081,4.079,2.081,6.02,3.211-1.135-6.245-6.323-13.989-5.62-22.075,4.651,5.918,6.876,14.264,8.83,22.878,1.24,1.837,3.861,2.293,6.422,2.809-1.795-7.436-6.431-12.031-6.422-21.272,4.906,5.93,7.467,14.205,10.034,22.475,13.679,3.864,35.442,3.968,46.959-2.007a65.887,65.887,0,0,1,8.027-22.475c.608,8.1-3.211,15.25-5.618,21.673,2.371.4,5.5-1.295,7.223-2.81a74.406,74.406,0,0,1,6.823-24.884c.769,8.53-2.569,16.428-4.816,23.278,2.179.982,4.035-1.489,6.021-2.006,1.475-8.827,2.02-18.583,4.816-26.089,1.638,8.731-1.239,16.42-2.409,23.68,3.472-.81,5.535-3.028,7.225-5.619-1.209-6.776-2.027-17.723,1.2-23.279,1.734,6.655.6,15.074.8,21.673,2.8-.681,3.814-3.142,5.618-4.816-.8-7.793-3.214-16.011-2.006-24.482,3.758,4.669,2.507,14.349,3.611,21.673,9.649-5.14-1.5-16.859.4-27.695,2.98,5.314,4.434,12.157,5.218,19.668,2.773-.438,3.049-3.374,4.414-5.218-2.428-6.8-5.889-12.573-7.223-20.47,4.837,3.858,5.058,12.334,8.829,17.259,5.311-8.447-5.945-14.664-6.02-24.083,4.5,3.924,5.682,11.176,9.231,16.055,5.742-7.062-7.679-14.925-7.625-23.68,5.13,3.3,6.328,10.529,10.034,15.252,1.991-1.342,2.4-5.108,2.007-6.823-.394-1.736-2.36-2.564-3.612-4.014a38.552,38.552,0,0,1-7.225-12.041c4.7,3.059,7.462,8.058,10.838,12.443,5.267-9.394-7.813-11.533-10.034-18.463.852-.57,3.292,1.1,4.414,2.007,2.446,1.986,4.468,5.405,6.823,6.823,3.087-9.786-7.784-8.7-8.83-15.654,3.536,1.148,5.184,4.183,8.029,6.021,2.646-10.542-9.853-9.413-12.845-15.654,5.03.857,7.486,4.289,11.639,6.02,1.472-9.767-11.371-8.695-14.85-14.85,5.005.882,7.7,4.073,12.041,5.619,1.11-8.337-10.65-7.277-14.85-11.639,4.6-.987,8.247,2.453,12.041,3.613.139-8.969-11.628-6.034-15.653-10.837,4.7-.022,7.292,2.073,11.237,2.809.813-7.385-10.447-6.128-15.652-8.829,2.184-1.711,7.116.591,10.034.8-.506-7.656-11.168-5.155-17.259-7.224,2.433-2.3,7.186-.39,10.837-.4-.123-5.366-9.374-5.075-16.055-5.218,1.06-2.418,6.284-.673,9.232-1.2-1.987-6.526-10.4-2.985-16.857-4.014,1.393-2.085,6.074-.883,9.231-1.2-3.679-5.954-13.315-5.95-18.864-10.034,6.858-1.37,10.09,4.36,15.654,5.619-.728-3.418-3.627-4.667-4.014-8.429,5.576,2.721,4.811,11.78,11.641,13.245.7-2.984-2.625-5.4-2.409-9.23,4.524,4.3,4,13.654,10.836,15.653-.5-3.783-2.329-6.233-2.408-10.436,4.885,3.945,2.721,14.94,9.231,17.259.281-4.561-1.514-7.047-1.2-11.639,4.517,3.911,1.3,15.561,6.823,18.463.065-4.841-.242-7.688,0-12.041,4.074,3.55-.5,15.755,4.414,18.462,1.462-3.222.008-9.357,2.811-11.238,1.824,7.66-4.011,16.305,2.007,20.47,1.823-3.261-.153-10.321,4.013-11.238.728,7.662-5.156,14.869-.4,20.47,2.611-3.276,1.842-9.931,5.218-12.442,1.251,9.565-6.9,15.458-2.407,23.278,2.966-3.857,3.912-9.734,6.823-13.646,1.565,10.144-8.963,14.525-5.62,25.286,3.629-3.462,5.254-8.928,8.831-12.442,0,9.235-9.869,12.073-8.831,23.68,4.217-3.543,6.533-8.985,10.436-12.843.049,9.817-10.9,12.113-11.64,22.475,4.232-2.324,8.1-8.487,12.843-11.639-.888,8.88-12.289,10.722-14.448,19.668,4.591-2.232,9.17-7.954,14.85-10.436-4.187,6.515-10.238,11.168-16.857,15.252-.18,1.293-.769,2.173-.8,3.612C455.584,210.256,460.614,205.253,466.4,203.148Z" transform="translate(-252.058 -67.489)" fill="#28924f"/>
    <path id="Path_37" data-name="Path 37" d="M395.918,412.936h19.265c4.821,17.886,18.464,31.53,38.932,33.315,26.576,2.318,43.763-12.781,49.366-33.315h19.666c-6.745,30.5-29.913,55.2-69.032,52.579-31.36-2.1-52.179-23.294-58.2-51.374C396,413.454,395.234,413.1,395.918,412.936Zm16.857,8.029c.476-2.216-1.28-2.2-.8-4.416-1.135.332-1.04-.565-2.007-.4C410.315,418.34,410.074,421.123,412.776,420.965Zm102.346-1.605c-1.873-2.007-5.564-2.2-8.83-2.811C507.219,419.239,512.429,419.772,515.122,419.359ZM402.34,421.365c.888,1.254,4.053.23,4.816,1.605-.08,1.525-1.688,1.524-1.605,3.213,1.171,1.772,1.791,4.1,3.612,5.216,1.456.508,4.347-.995,4.415-3.211-2.121-.514-2.553.658-3.211,1.605-.475-1.932-1.8-3.016-2.409-4.816.883-.588,1.881-1.063,1.606-2.809-1.22-1.187-4.042-.774-5.217-2.007.329-1.677,2.691-1.321,3.211-2.809C405.078,417.95,402.312,418.26,402.34,421.365Zm108.368.4c-2.277-1.055-3.508-2.784-6.022-.8,1.031,2.18,5.242,1.179,6.823,2.809-.591,1.414-2.1,1.908-4.414,1.605-.312,2.185.615,3.129,1.2,4.414-.8.4-.634,1.775-2.007,1.606-2.479-.462-3.585-2.3-6.02-2.809.274,3.2,4.21,2.747,5.62,4.816-1.243,1.434-2.172,3.18-3.612,4.416-4.891-2.6-7.815,5.451-10.838,6.02.309-2.269,3.2-4.256,1.205-6.421-1.473,2.058-3.266,5.76-2.007,9.23,4.689-.931,6.193-7.183,10.436-7.223-3.467,2.821-6.038,6.539-10.436,8.429-1.1-.157-1.712-1.854-2.811-.8-1.4.877-.73,3.818-1.606,5.218-2.045.039-1.53-2.482-3.211-2.809.57,2.508,1.689,4.467,4.014,5.218,1.962-.448.591-4.227,1.606-5.62,1.207.264,1.4,1.542,3.211,1.2A65.633,65.633,0,0,0,507.9,435.011a2.255,2.255,0,0,0-.4-1.605c1.556-.048,2.029-1.183,2.809-2.007.291-1.227-.41-1.462-.4-2.407,3.6-.661,2.647-5.206,5.62-7.225C513.946,419.88,512.773,421.238,510.708,421.767ZM405.551,432.2h1.605c.348-2.355-1.582-2.432-1.605-4.414h-1.605C403.6,430.142,405.527,430.22,405.551,432.2Zm7.225,4.816c.713-1.416,3.445-2.541,2.809-4.014-2.062-.387-1.73,1.391-3.612,2.007-.172-.764-.865-1.007-.8-2.007h-2.007C409.535,435.175,410.564,436.689,412.776,437.018Zm5.217,2.409a3.721,3.721,0,0,0,1.2-2.811c-.449-.085-.624-.444-.8-.8-3.5-.3-4.728,2.213-4.013,4.013-2.105-.036-2.609-1.673-4.014-2.407.476,2.936,2.187,5.159,5.618,4.012,5.728,4.976,11.378,10.029,18.865,13.246,2.255-.562,2.148-5.6,4.014-5.218-.325,1.958-2.12,4.556-1.205,6.422,2.221-1.927,2.527-5.768,3.613-8.83-1.259-.19-1.06,1.079-2.007,1.2-.356-.713-1.12-1.019-.8-2.407-1-.062-1.243.631-2.007.8-.039,2.368-.405,4.413-1.605,5.62-2.132-.707.372-1.746-1.2-2.409a1.962,1.962,0,0,1-2.007.8c-.806-.818.178-.787.4-1.605-2.063.634-4-.046-2.409-1.606-2.263.123-4.2-.08-4.414-2.007q1.313.111,1.2-1.2c-.642-1.991-2.82-3.627-4.816-2.007-.529,1,1.587,1.256.4,1.605C420.908,442.13,419.092,441.137,417.993,439.427Zm63.415,8.027c2.53-.147,4.145-1.208,4.816-3.21C483.708,444.4,481.711,445.081,481.407,447.454Zm-3.211,1.2c-1.068-.136-1.406-1-2.408-1.2-.452,3.529,2.094,4.06,2.408,6.823a15,15,0,0,1-2.809.8c1.648-2.876-4.207-3-4.414-.4-.635,1.57,1.042.83,1.2,1.605-3.245.843-7.178,1.316-8.83-1.205-.557,2.221.134,2.659,1.2,4.014-.709,1.565-2.507,2.042-4.013,2.809a6.427,6.427,0,0,0,3.612.8c.977-.763,1.138-2.34,2.005-3.211,6.427-.047,8.808-2.071,13.647-3.211.8-3.078-2.084-4.594-.8-6.823.921,2.156,1.559,4.594,3.612,5.618a12.29,12.29,0,0,0-4.014-8.428C478.38,447.234,479.067,448.726,478.2,448.658Zm-35.72.8c1.117,1.424,4.2,2.954,5.618.8-1.217-1.613-2.8-.393-4.013-2.007C443.971,449.082,442.586,448.635,442.477,449.461Zm-1.205,9.23c2.886.211,2.562-2.789,5.218-2.809-.232,1.3.274,1.867.4,2.809,5.317,1.514,8.365.622,14.048,1.2.73-2.025,1.213-4.948-1.205-5.618-1.1,1.584.088,2.182-.4,3.211-1.5.032-3.247.3-2.809-1.605-1.54,1.834-5.313,1.123-8.027.8-.668-.536-.134-2.274-.8-2.809-3.2-.525-3.03,2.322-5.618,2.409-1.631-1.158,1.648-3.771-.4-4.014C441.159,454.039,439.506,457.085,441.271,458.692Zm10.436,3.211c1.377,1.371,2.845.153,4.415,1.205.085-.451.446-.626.8-.8.292-1.1-.8-.809-.8-1.605C454.19,462.067,452.932,459.607,451.707,461.9Zm5.62-.4a1.509,1.509,0,0,0,1.606,1.607c.572-.1.676-.662,1.2-.8C460.076,460.38,458.336,460.634,457.327,461.5Z" transform="translate(-341.316 -296.543)" fill="#28924f"/>
    <path id="Path_38" data-name="Path 38" d="M724.385,430.566c-.839-1.186,1.4-3.74,0-5.62-.71.359-.511,1.63-2.007,1.2-1.987-.141-3.358-2.628-2.809-4.013C725.064,420.257,729.187,427.636,724.385,430.566Z" transform="translate(-573.858 -302.933)" fill="#fff"/>
    <path id="Path_39" data-name="Path 39" d="M459.549,502.068c1.186-.349-.931-.6-.4-1.605,2-1.62,4.174.016,4.816,2.007q.11,1.313-1.2,1.2c.214,1.927,2.151,2.13,4.414,2.007-1.594,1.56.346,2.239,2.409,1.606-.224.818-1.208.787-.4,1.605a1.962,1.962,0,0,0,2.008-.8c1.576.663-.928,1.7,1.2,2.409,1.2-1.207,1.566-3.252,1.605-5.62.764-.171,1.009-.864,2.007-.8-.319,1.388.446,1.694.8,2.407.947-.124.748-1.393,2.007-1.2-1.086,3.062-1.392,6.9-3.613,8.83-.914-1.865.88-4.463,1.205-6.421-1.867-.387-1.759,4.656-4.014,5.217-7.486-3.217-13.137-8.27-18.865-13.246-3.431,1.146-5.142-1.076-5.618-4.012,1.4.734,1.908,2.371,4.014,2.407-.715-1.8.513-4.315,4.013-4.013.178.358.353.717.8.8a3.722,3.722,0,0,1-1.2,2.811C456.634,499.363,458.45,500.356,459.549,502.068Z" transform="translate(-378.858 -354.769)" fill="#fff"/>
  </g>
</svg>
